%TF.GenerationSoftware,KiCad,Pcbnew,9.0.0*%
%TF.CreationDate,2025-04-27T01:10:23+09:00*%
%TF.ProjectId,PCB,5043422e-6b69-4636-9164-5f7063625858,rev?*%
%TF.SameCoordinates,Original*%
%TF.FileFunction,Legend,Top*%
%TF.FilePolarity,Positive*%
%FSLAX46Y46*%
G04 Gerber Fmt 4.6, Leading zero omitted, Abs format (unit mm)*
G04 Created by KiCad (PCBNEW 9.0.0) date 2025-04-27 01:10:23*
%MOMM*%
%LPD*%
G01*
G04 APERTURE LIST*
%ADD10C,0.100000*%
%ADD11C,0.304800*%
%ADD12C,0.150000*%
%ADD13C,0.152400*%
%ADD14C,0.120000*%
%ADD15C,0.127000*%
%ADD16C,0.200000*%
G04 APERTURE END LIST*
D10*
X214000000Y-55000000D02*
X221000000Y-55000000D01*
X221000000Y-61000000D01*
X214000000Y-61000000D01*
X214000000Y-55000000D01*
X194172306Y-84079961D02*
X194267544Y-84127580D01*
X194267544Y-84127580D02*
X194410401Y-84127580D01*
X194410401Y-84127580D02*
X194553258Y-84079961D01*
X194553258Y-84079961D02*
X194648496Y-83984723D01*
X194648496Y-83984723D02*
X194696115Y-83889485D01*
X194696115Y-83889485D02*
X194743734Y-83699009D01*
X194743734Y-83699009D02*
X194743734Y-83556152D01*
X194743734Y-83556152D02*
X194696115Y-83365676D01*
X194696115Y-83365676D02*
X194648496Y-83270438D01*
X194648496Y-83270438D02*
X194553258Y-83175200D01*
X194553258Y-83175200D02*
X194410401Y-83127580D01*
X194410401Y-83127580D02*
X194315163Y-83127580D01*
X194315163Y-83127580D02*
X194172306Y-83175200D01*
X194172306Y-83175200D02*
X194124687Y-83222819D01*
X194124687Y-83222819D02*
X194124687Y-83556152D01*
X194124687Y-83556152D02*
X194315163Y-83556152D01*
X193696115Y-83127580D02*
X193696115Y-84127580D01*
X193696115Y-84127580D02*
X193124687Y-83127580D01*
X193124687Y-83127580D02*
X193124687Y-84127580D01*
X192648496Y-83127580D02*
X192648496Y-84127580D01*
X192648496Y-84127580D02*
X192410401Y-84127580D01*
X192410401Y-84127580D02*
X192267544Y-84079961D01*
X192267544Y-84079961D02*
X192172306Y-83984723D01*
X192172306Y-83984723D02*
X192124687Y-83889485D01*
X192124687Y-83889485D02*
X192077068Y-83699009D01*
X192077068Y-83699009D02*
X192077068Y-83556152D01*
X192077068Y-83556152D02*
X192124687Y-83365676D01*
X192124687Y-83365676D02*
X192172306Y-83270438D01*
X192172306Y-83270438D02*
X192267544Y-83175200D01*
X192267544Y-83175200D02*
X192410401Y-83127580D01*
X192410401Y-83127580D02*
X192648496Y-83127580D01*
X242920038Y-63922306D02*
X242872419Y-64017544D01*
X242872419Y-64017544D02*
X242872419Y-64160401D01*
X242872419Y-64160401D02*
X242920038Y-64303258D01*
X242920038Y-64303258D02*
X243015276Y-64398496D01*
X243015276Y-64398496D02*
X243110514Y-64446115D01*
X243110514Y-64446115D02*
X243300990Y-64493734D01*
X243300990Y-64493734D02*
X243443847Y-64493734D01*
X243443847Y-64493734D02*
X243634323Y-64446115D01*
X243634323Y-64446115D02*
X243729561Y-64398496D01*
X243729561Y-64398496D02*
X243824800Y-64303258D01*
X243824800Y-64303258D02*
X243872419Y-64160401D01*
X243872419Y-64160401D02*
X243872419Y-64065163D01*
X243872419Y-64065163D02*
X243824800Y-63922306D01*
X243824800Y-63922306D02*
X243777180Y-63874687D01*
X243777180Y-63874687D02*
X243443847Y-63874687D01*
X243443847Y-63874687D02*
X243443847Y-64065163D01*
X243872419Y-63446115D02*
X242872419Y-63446115D01*
X242872419Y-63446115D02*
X243872419Y-62874687D01*
X243872419Y-62874687D02*
X242872419Y-62874687D01*
X243872419Y-62398496D02*
X242872419Y-62398496D01*
X242872419Y-62398496D02*
X242872419Y-62160401D01*
X242872419Y-62160401D02*
X242920038Y-62017544D01*
X242920038Y-62017544D02*
X243015276Y-61922306D01*
X243015276Y-61922306D02*
X243110514Y-61874687D01*
X243110514Y-61874687D02*
X243300990Y-61827068D01*
X243300990Y-61827068D02*
X243443847Y-61827068D01*
X243443847Y-61827068D02*
X243634323Y-61874687D01*
X243634323Y-61874687D02*
X243729561Y-61922306D01*
X243729561Y-61922306D02*
X243824800Y-62017544D01*
X243824800Y-62017544D02*
X243872419Y-62160401D01*
X243872419Y-62160401D02*
X243872419Y-62398496D01*
X239540752Y-98142857D02*
X240207419Y-98142857D01*
X239159800Y-98380952D02*
X239874085Y-98619047D01*
X239874085Y-98619047D02*
X239874085Y-98000000D01*
X239207419Y-97714285D02*
X239207419Y-97047619D01*
X239207419Y-97047619D02*
X240207419Y-97476190D01*
X239207419Y-96476190D02*
X239207419Y-96380952D01*
X239207419Y-96380952D02*
X239255038Y-96285714D01*
X239255038Y-96285714D02*
X239302657Y-96238095D01*
X239302657Y-96238095D02*
X239397895Y-96190476D01*
X239397895Y-96190476D02*
X239588371Y-96142857D01*
X239588371Y-96142857D02*
X239826466Y-96142857D01*
X239826466Y-96142857D02*
X240016942Y-96190476D01*
X240016942Y-96190476D02*
X240112180Y-96238095D01*
X240112180Y-96238095D02*
X240159800Y-96285714D01*
X240159800Y-96285714D02*
X240207419Y-96380952D01*
X240207419Y-96380952D02*
X240207419Y-96476190D01*
X240207419Y-96476190D02*
X240159800Y-96571428D01*
X240159800Y-96571428D02*
X240112180Y-96619047D01*
X240112180Y-96619047D02*
X240016942Y-96666666D01*
X240016942Y-96666666D02*
X239826466Y-96714285D01*
X239826466Y-96714285D02*
X239588371Y-96714285D01*
X239588371Y-96714285D02*
X239397895Y-96666666D01*
X239397895Y-96666666D02*
X239302657Y-96619047D01*
X239302657Y-96619047D02*
X239255038Y-96571428D01*
X239255038Y-96571428D02*
X239207419Y-96476190D01*
X239540752Y-95285714D02*
X240207419Y-95285714D01*
X239540752Y-95714285D02*
X240064561Y-95714285D01*
X240064561Y-95714285D02*
X240159800Y-95666666D01*
X240159800Y-95666666D02*
X240207419Y-95571428D01*
X240207419Y-95571428D02*
X240207419Y-95428571D01*
X240207419Y-95428571D02*
X240159800Y-95333333D01*
X240159800Y-95333333D02*
X240112180Y-95285714D01*
X239683609Y-94476190D02*
X239683609Y-94809523D01*
X240207419Y-94809523D02*
X239207419Y-94809523D01*
X239207419Y-94809523D02*
X239207419Y-94333333D01*
X206887819Y-80011904D02*
X206840200Y-79964285D01*
X206840200Y-79964285D02*
X206792580Y-79821428D01*
X206792580Y-79821428D02*
X206792580Y-79726190D01*
X206792580Y-79726190D02*
X206840200Y-79583333D01*
X206840200Y-79583333D02*
X206935438Y-79488095D01*
X206935438Y-79488095D02*
X207030676Y-79440476D01*
X207030676Y-79440476D02*
X207221152Y-79392857D01*
X207221152Y-79392857D02*
X207364009Y-79392857D01*
X207364009Y-79392857D02*
X207554485Y-79440476D01*
X207554485Y-79440476D02*
X207649723Y-79488095D01*
X207649723Y-79488095D02*
X207744961Y-79583333D01*
X207744961Y-79583333D02*
X207792580Y-79726190D01*
X207792580Y-79726190D02*
X207792580Y-79821428D01*
X207792580Y-79821428D02*
X207744961Y-79964285D01*
X207744961Y-79964285D02*
X207697342Y-80011904D01*
X207792580Y-80630952D02*
X207792580Y-80821428D01*
X207792580Y-80821428D02*
X207744961Y-80916666D01*
X207744961Y-80916666D02*
X207649723Y-81011904D01*
X207649723Y-81011904D02*
X207459247Y-81059523D01*
X207459247Y-81059523D02*
X207125914Y-81059523D01*
X207125914Y-81059523D02*
X206935438Y-81011904D01*
X206935438Y-81011904D02*
X206840200Y-80916666D01*
X206840200Y-80916666D02*
X206792580Y-80821428D01*
X206792580Y-80821428D02*
X206792580Y-80630952D01*
X206792580Y-80630952D02*
X206840200Y-80535714D01*
X206840200Y-80535714D02*
X206935438Y-80440476D01*
X206935438Y-80440476D02*
X207125914Y-80392857D01*
X207125914Y-80392857D02*
X207459247Y-80392857D01*
X207459247Y-80392857D02*
X207649723Y-80440476D01*
X207649723Y-80440476D02*
X207744961Y-80535714D01*
X207744961Y-80535714D02*
X207792580Y-80630952D01*
X206792580Y-81488095D02*
X207792580Y-81488095D01*
X207792580Y-81488095D02*
X206792580Y-82059523D01*
X206792580Y-82059523D02*
X207792580Y-82059523D01*
X206792580Y-82535714D02*
X207792580Y-82535714D01*
X207792580Y-82535714D02*
X206792580Y-83107142D01*
X206792580Y-83107142D02*
X207792580Y-83107142D01*
X207697342Y-83535714D02*
X207744961Y-83583333D01*
X207744961Y-83583333D02*
X207792580Y-83678571D01*
X207792580Y-83678571D02*
X207792580Y-83916666D01*
X207792580Y-83916666D02*
X207744961Y-84011904D01*
X207744961Y-84011904D02*
X207697342Y-84059523D01*
X207697342Y-84059523D02*
X207602104Y-84107142D01*
X207602104Y-84107142D02*
X207506866Y-84107142D01*
X207506866Y-84107142D02*
X207364009Y-84059523D01*
X207364009Y-84059523D02*
X206792580Y-83488095D01*
X206792580Y-83488095D02*
X206792580Y-84107142D01*
D11*
X189999355Y-79436616D02*
X189999355Y-78928616D01*
X190797641Y-78710902D02*
X190797641Y-79436616D01*
X190797641Y-79436616D02*
X189273641Y-79436616D01*
X189273641Y-79436616D02*
X189273641Y-78710902D01*
X190797641Y-77186902D02*
X190071927Y-77694902D01*
X190797641Y-78057759D02*
X189273641Y-78057759D01*
X189273641Y-78057759D02*
X189273641Y-77477188D01*
X189273641Y-77477188D02*
X189346212Y-77332045D01*
X189346212Y-77332045D02*
X189418784Y-77259474D01*
X189418784Y-77259474D02*
X189563927Y-77186902D01*
X189563927Y-77186902D02*
X189781641Y-77186902D01*
X189781641Y-77186902D02*
X189926784Y-77259474D01*
X189926784Y-77259474D02*
X189999355Y-77332045D01*
X189999355Y-77332045D02*
X190071927Y-77477188D01*
X190071927Y-77477188D02*
X190071927Y-78057759D01*
X190362212Y-76606331D02*
X190362212Y-75880617D01*
X190797641Y-76751474D02*
X189273641Y-76243474D01*
X189273641Y-76243474D02*
X190797641Y-75735474D01*
X189418784Y-74138902D02*
X189346212Y-74066330D01*
X189346212Y-74066330D02*
X189273641Y-73921188D01*
X189273641Y-73921188D02*
X189273641Y-73558330D01*
X189273641Y-73558330D02*
X189346212Y-73413188D01*
X189346212Y-73413188D02*
X189418784Y-73340616D01*
X189418784Y-73340616D02*
X189563927Y-73268045D01*
X189563927Y-73268045D02*
X189709070Y-73268045D01*
X189709070Y-73268045D02*
X189926784Y-73340616D01*
X189926784Y-73340616D02*
X190797641Y-74211473D01*
X190797641Y-74211473D02*
X190797641Y-73268045D01*
X189273641Y-72324616D02*
X189273641Y-72179473D01*
X189273641Y-72179473D02*
X189346212Y-72034330D01*
X189346212Y-72034330D02*
X189418784Y-71961759D01*
X189418784Y-71961759D02*
X189563927Y-71889187D01*
X189563927Y-71889187D02*
X189854212Y-71816616D01*
X189854212Y-71816616D02*
X190217070Y-71816616D01*
X190217070Y-71816616D02*
X190507355Y-71889187D01*
X190507355Y-71889187D02*
X190652498Y-71961759D01*
X190652498Y-71961759D02*
X190725070Y-72034330D01*
X190725070Y-72034330D02*
X190797641Y-72179473D01*
X190797641Y-72179473D02*
X190797641Y-72324616D01*
X190797641Y-72324616D02*
X190725070Y-72469759D01*
X190725070Y-72469759D02*
X190652498Y-72542330D01*
X190652498Y-72542330D02*
X190507355Y-72614901D01*
X190507355Y-72614901D02*
X190217070Y-72687473D01*
X190217070Y-72687473D02*
X189854212Y-72687473D01*
X189854212Y-72687473D02*
X189563927Y-72614901D01*
X189563927Y-72614901D02*
X189418784Y-72542330D01*
X189418784Y-72542330D02*
X189346212Y-72469759D01*
X189346212Y-72469759D02*
X189273641Y-72324616D01*
X189418784Y-71236044D02*
X189346212Y-71163472D01*
X189346212Y-71163472D02*
X189273641Y-71018330D01*
X189273641Y-71018330D02*
X189273641Y-70655472D01*
X189273641Y-70655472D02*
X189346212Y-70510330D01*
X189346212Y-70510330D02*
X189418784Y-70437758D01*
X189418784Y-70437758D02*
X189563927Y-70365187D01*
X189563927Y-70365187D02*
X189709070Y-70365187D01*
X189709070Y-70365187D02*
X189926784Y-70437758D01*
X189926784Y-70437758D02*
X190797641Y-71308615D01*
X190797641Y-71308615D02*
X190797641Y-70365187D01*
X189273641Y-68986329D02*
X189273641Y-69712043D01*
X189273641Y-69712043D02*
X189999355Y-69784615D01*
X189999355Y-69784615D02*
X189926784Y-69712043D01*
X189926784Y-69712043D02*
X189854212Y-69566901D01*
X189854212Y-69566901D02*
X189854212Y-69204043D01*
X189854212Y-69204043D02*
X189926784Y-69058901D01*
X189926784Y-69058901D02*
X189999355Y-68986329D01*
X189999355Y-68986329D02*
X190144498Y-68913758D01*
X190144498Y-68913758D02*
X190507355Y-68913758D01*
X190507355Y-68913758D02*
X190652498Y-68986329D01*
X190652498Y-68986329D02*
X190725070Y-69058901D01*
X190725070Y-69058901D02*
X190797641Y-69204043D01*
X190797641Y-69204043D02*
X190797641Y-69566901D01*
X190797641Y-69566901D02*
X190725070Y-69712043D01*
X190725070Y-69712043D02*
X190652498Y-69784615D01*
X190652498Y-68260614D02*
X190725070Y-68188043D01*
X190725070Y-68188043D02*
X190797641Y-68260614D01*
X190797641Y-68260614D02*
X190725070Y-68333186D01*
X190725070Y-68333186D02*
X190652498Y-68260614D01*
X190652498Y-68260614D02*
X190797641Y-68260614D01*
X189273641Y-67244615D02*
X189273641Y-67099472D01*
X189273641Y-67099472D02*
X189346212Y-66954329D01*
X189346212Y-66954329D02*
X189418784Y-66881758D01*
X189418784Y-66881758D02*
X189563927Y-66809186D01*
X189563927Y-66809186D02*
X189854212Y-66736615D01*
X189854212Y-66736615D02*
X190217070Y-66736615D01*
X190217070Y-66736615D02*
X190507355Y-66809186D01*
X190507355Y-66809186D02*
X190652498Y-66881758D01*
X190652498Y-66881758D02*
X190725070Y-66954329D01*
X190725070Y-66954329D02*
X190797641Y-67099472D01*
X190797641Y-67099472D02*
X190797641Y-67244615D01*
X190797641Y-67244615D02*
X190725070Y-67389758D01*
X190725070Y-67389758D02*
X190652498Y-67462329D01*
X190652498Y-67462329D02*
X190507355Y-67534900D01*
X190507355Y-67534900D02*
X190217070Y-67607472D01*
X190217070Y-67607472D02*
X189854212Y-67607472D01*
X189854212Y-67607472D02*
X189563927Y-67534900D01*
X189563927Y-67534900D02*
X189418784Y-67462329D01*
X189418784Y-67462329D02*
X189346212Y-67389758D01*
X189346212Y-67389758D02*
X189273641Y-67244615D01*
X189781641Y-65430329D02*
X190797641Y-65430329D01*
X189201070Y-65793186D02*
X190289641Y-66156043D01*
X190289641Y-66156043D02*
X190289641Y-65212614D01*
X190652498Y-64632042D02*
X190725070Y-64559471D01*
X190725070Y-64559471D02*
X190797641Y-64632042D01*
X190797641Y-64632042D02*
X190725070Y-64704614D01*
X190725070Y-64704614D02*
X190652498Y-64632042D01*
X190652498Y-64632042D02*
X190797641Y-64632042D01*
X189418784Y-63978900D02*
X189346212Y-63906328D01*
X189346212Y-63906328D02*
X189273641Y-63761186D01*
X189273641Y-63761186D02*
X189273641Y-63398328D01*
X189273641Y-63398328D02*
X189346212Y-63253186D01*
X189346212Y-63253186D02*
X189418784Y-63180614D01*
X189418784Y-63180614D02*
X189563927Y-63108043D01*
X189563927Y-63108043D02*
X189709070Y-63108043D01*
X189709070Y-63108043D02*
X189926784Y-63180614D01*
X189926784Y-63180614D02*
X190797641Y-64051471D01*
X190797641Y-64051471D02*
X190797641Y-63108043D01*
X189273641Y-61729185D02*
X189273641Y-62454899D01*
X189273641Y-62454899D02*
X189999355Y-62527471D01*
X189999355Y-62527471D02*
X189926784Y-62454899D01*
X189926784Y-62454899D02*
X189854212Y-62309757D01*
X189854212Y-62309757D02*
X189854212Y-61946899D01*
X189854212Y-61946899D02*
X189926784Y-61801757D01*
X189926784Y-61801757D02*
X189999355Y-61729185D01*
X189999355Y-61729185D02*
X190144498Y-61656614D01*
X190144498Y-61656614D02*
X190507355Y-61656614D01*
X190507355Y-61656614D02*
X190652498Y-61729185D01*
X190652498Y-61729185D02*
X190725070Y-61801757D01*
X190725070Y-61801757D02*
X190797641Y-61946899D01*
X190797641Y-61946899D02*
X190797641Y-62309757D01*
X190797641Y-62309757D02*
X190725070Y-62454899D01*
X190725070Y-62454899D02*
X190652498Y-62527471D01*
D10*
X226887819Y-80011904D02*
X226840200Y-79964285D01*
X226840200Y-79964285D02*
X226792580Y-79821428D01*
X226792580Y-79821428D02*
X226792580Y-79726190D01*
X226792580Y-79726190D02*
X226840200Y-79583333D01*
X226840200Y-79583333D02*
X226935438Y-79488095D01*
X226935438Y-79488095D02*
X227030676Y-79440476D01*
X227030676Y-79440476D02*
X227221152Y-79392857D01*
X227221152Y-79392857D02*
X227364009Y-79392857D01*
X227364009Y-79392857D02*
X227554485Y-79440476D01*
X227554485Y-79440476D02*
X227649723Y-79488095D01*
X227649723Y-79488095D02*
X227744961Y-79583333D01*
X227744961Y-79583333D02*
X227792580Y-79726190D01*
X227792580Y-79726190D02*
X227792580Y-79821428D01*
X227792580Y-79821428D02*
X227744961Y-79964285D01*
X227744961Y-79964285D02*
X227697342Y-80011904D01*
X227792580Y-80630952D02*
X227792580Y-80821428D01*
X227792580Y-80821428D02*
X227744961Y-80916666D01*
X227744961Y-80916666D02*
X227649723Y-81011904D01*
X227649723Y-81011904D02*
X227459247Y-81059523D01*
X227459247Y-81059523D02*
X227125914Y-81059523D01*
X227125914Y-81059523D02*
X226935438Y-81011904D01*
X226935438Y-81011904D02*
X226840200Y-80916666D01*
X226840200Y-80916666D02*
X226792580Y-80821428D01*
X226792580Y-80821428D02*
X226792580Y-80630952D01*
X226792580Y-80630952D02*
X226840200Y-80535714D01*
X226840200Y-80535714D02*
X226935438Y-80440476D01*
X226935438Y-80440476D02*
X227125914Y-80392857D01*
X227125914Y-80392857D02*
X227459247Y-80392857D01*
X227459247Y-80392857D02*
X227649723Y-80440476D01*
X227649723Y-80440476D02*
X227744961Y-80535714D01*
X227744961Y-80535714D02*
X227792580Y-80630952D01*
X226792580Y-81488095D02*
X227792580Y-81488095D01*
X227792580Y-81488095D02*
X226792580Y-82059523D01*
X226792580Y-82059523D02*
X227792580Y-82059523D01*
X226792580Y-82535714D02*
X227792580Y-82535714D01*
X227792580Y-82535714D02*
X226792580Y-83107142D01*
X226792580Y-83107142D02*
X227792580Y-83107142D01*
X226792580Y-84107142D02*
X226792580Y-83535714D01*
X226792580Y-83821428D02*
X227792580Y-83821428D01*
X227792580Y-83821428D02*
X227649723Y-83726190D01*
X227649723Y-83726190D02*
X227554485Y-83630952D01*
X227554485Y-83630952D02*
X227506866Y-83535714D01*
X194696115Y-60087580D02*
X194696115Y-61087580D01*
X194696115Y-61087580D02*
X194458020Y-61087580D01*
X194458020Y-61087580D02*
X194315163Y-61039961D01*
X194315163Y-61039961D02*
X194219925Y-60944723D01*
X194219925Y-60944723D02*
X194172306Y-60849485D01*
X194172306Y-60849485D02*
X194124687Y-60659009D01*
X194124687Y-60659009D02*
X194124687Y-60516152D01*
X194124687Y-60516152D02*
X194172306Y-60325676D01*
X194172306Y-60325676D02*
X194219925Y-60230438D01*
X194219925Y-60230438D02*
X194315163Y-60135200D01*
X194315163Y-60135200D02*
X194458020Y-60087580D01*
X194458020Y-60087580D02*
X194696115Y-60087580D01*
X193267544Y-60754247D02*
X193267544Y-60087580D01*
X193505639Y-61135200D02*
X193743734Y-60420914D01*
X193743734Y-60420914D02*
X193124687Y-60420914D01*
X242920038Y-73922306D02*
X242872419Y-74017544D01*
X242872419Y-74017544D02*
X242872419Y-74160401D01*
X242872419Y-74160401D02*
X242920038Y-74303258D01*
X242920038Y-74303258D02*
X243015276Y-74398496D01*
X243015276Y-74398496D02*
X243110514Y-74446115D01*
X243110514Y-74446115D02*
X243300990Y-74493734D01*
X243300990Y-74493734D02*
X243443847Y-74493734D01*
X243443847Y-74493734D02*
X243634323Y-74446115D01*
X243634323Y-74446115D02*
X243729561Y-74398496D01*
X243729561Y-74398496D02*
X243824800Y-74303258D01*
X243824800Y-74303258D02*
X243872419Y-74160401D01*
X243872419Y-74160401D02*
X243872419Y-74065163D01*
X243872419Y-74065163D02*
X243824800Y-73922306D01*
X243824800Y-73922306D02*
X243777180Y-73874687D01*
X243777180Y-73874687D02*
X243443847Y-73874687D01*
X243443847Y-73874687D02*
X243443847Y-74065163D01*
X243872419Y-73446115D02*
X242872419Y-73446115D01*
X242872419Y-73446115D02*
X243872419Y-72874687D01*
X243872419Y-72874687D02*
X242872419Y-72874687D01*
X243872419Y-72398496D02*
X242872419Y-72398496D01*
X242872419Y-72398496D02*
X242872419Y-72160401D01*
X242872419Y-72160401D02*
X242920038Y-72017544D01*
X242920038Y-72017544D02*
X243015276Y-71922306D01*
X243015276Y-71922306D02*
X243110514Y-71874687D01*
X243110514Y-71874687D02*
X243300990Y-71827068D01*
X243300990Y-71827068D02*
X243443847Y-71827068D01*
X243443847Y-71827068D02*
X243634323Y-71874687D01*
X243634323Y-71874687D02*
X243729561Y-71922306D01*
X243729561Y-71922306D02*
X243824800Y-72017544D01*
X243824800Y-72017544D02*
X243872419Y-72160401D01*
X243872419Y-72160401D02*
X243872419Y-72398496D01*
X194696115Y-57587580D02*
X194696115Y-58587580D01*
X194696115Y-58587580D02*
X194458020Y-58587580D01*
X194458020Y-58587580D02*
X194315163Y-58539961D01*
X194315163Y-58539961D02*
X194219925Y-58444723D01*
X194219925Y-58444723D02*
X194172306Y-58349485D01*
X194172306Y-58349485D02*
X194124687Y-58159009D01*
X194124687Y-58159009D02*
X194124687Y-58016152D01*
X194124687Y-58016152D02*
X194172306Y-57825676D01*
X194172306Y-57825676D02*
X194219925Y-57730438D01*
X194219925Y-57730438D02*
X194315163Y-57635200D01*
X194315163Y-57635200D02*
X194458020Y-57587580D01*
X194458020Y-57587580D02*
X194696115Y-57587580D01*
X193743734Y-58492342D02*
X193696115Y-58539961D01*
X193696115Y-58539961D02*
X193600877Y-58587580D01*
X193600877Y-58587580D02*
X193362782Y-58587580D01*
X193362782Y-58587580D02*
X193267544Y-58539961D01*
X193267544Y-58539961D02*
X193219925Y-58492342D01*
X193219925Y-58492342D02*
X193172306Y-58397104D01*
X193172306Y-58397104D02*
X193172306Y-58301866D01*
X193172306Y-58301866D02*
X193219925Y-58159009D01*
X193219925Y-58159009D02*
X193791353Y-57587580D01*
X193791353Y-57587580D02*
X193172306Y-57587580D01*
X238827693Y-58920038D02*
X238732455Y-58872419D01*
X238732455Y-58872419D02*
X238589598Y-58872419D01*
X238589598Y-58872419D02*
X238446741Y-58920038D01*
X238446741Y-58920038D02*
X238351503Y-59015276D01*
X238351503Y-59015276D02*
X238303884Y-59110514D01*
X238303884Y-59110514D02*
X238256265Y-59300990D01*
X238256265Y-59300990D02*
X238256265Y-59443847D01*
X238256265Y-59443847D02*
X238303884Y-59634323D01*
X238303884Y-59634323D02*
X238351503Y-59729561D01*
X238351503Y-59729561D02*
X238446741Y-59824800D01*
X238446741Y-59824800D02*
X238589598Y-59872419D01*
X238589598Y-59872419D02*
X238684836Y-59872419D01*
X238684836Y-59872419D02*
X238827693Y-59824800D01*
X238827693Y-59824800D02*
X238875312Y-59777180D01*
X238875312Y-59777180D02*
X238875312Y-59443847D01*
X238875312Y-59443847D02*
X238684836Y-59443847D01*
X239303884Y-59872419D02*
X239303884Y-58872419D01*
X239303884Y-58872419D02*
X239875312Y-59872419D01*
X239875312Y-59872419D02*
X239875312Y-58872419D01*
X240351503Y-59872419D02*
X240351503Y-58872419D01*
X240351503Y-58872419D02*
X240589598Y-58872419D01*
X240589598Y-58872419D02*
X240732455Y-58920038D01*
X240732455Y-58920038D02*
X240827693Y-59015276D01*
X240827693Y-59015276D02*
X240875312Y-59110514D01*
X240875312Y-59110514D02*
X240922931Y-59300990D01*
X240922931Y-59300990D02*
X240922931Y-59443847D01*
X240922931Y-59443847D02*
X240875312Y-59634323D01*
X240875312Y-59634323D02*
X240827693Y-59729561D01*
X240827693Y-59729561D02*
X240732455Y-59824800D01*
X240732455Y-59824800D02*
X240589598Y-59872419D01*
X240589598Y-59872419D02*
X240351503Y-59872419D01*
X234697342Y-103630952D02*
X234744961Y-103678571D01*
X234744961Y-103678571D02*
X234792580Y-103773809D01*
X234792580Y-103773809D02*
X234792580Y-104011904D01*
X234792580Y-104011904D02*
X234744961Y-104107142D01*
X234744961Y-104107142D02*
X234697342Y-104154761D01*
X234697342Y-104154761D02*
X234602104Y-104202380D01*
X234602104Y-104202380D02*
X234506866Y-104202380D01*
X234506866Y-104202380D02*
X234364009Y-104154761D01*
X234364009Y-104154761D02*
X233792580Y-103583333D01*
X233792580Y-103583333D02*
X233792580Y-104202380D01*
X234697342Y-104583333D02*
X234744961Y-104630952D01*
X234744961Y-104630952D02*
X234792580Y-104726190D01*
X234792580Y-104726190D02*
X234792580Y-104964285D01*
X234792580Y-104964285D02*
X234744961Y-105059523D01*
X234744961Y-105059523D02*
X234697342Y-105107142D01*
X234697342Y-105107142D02*
X234602104Y-105154761D01*
X234602104Y-105154761D02*
X234506866Y-105154761D01*
X234506866Y-105154761D02*
X234364009Y-105107142D01*
X234364009Y-105107142D02*
X233792580Y-104535714D01*
X233792580Y-104535714D02*
X233792580Y-105154761D01*
X234792580Y-105773809D02*
X234792580Y-105869047D01*
X234792580Y-105869047D02*
X234744961Y-105964285D01*
X234744961Y-105964285D02*
X234697342Y-106011904D01*
X234697342Y-106011904D02*
X234602104Y-106059523D01*
X234602104Y-106059523D02*
X234411628Y-106107142D01*
X234411628Y-106107142D02*
X234173533Y-106107142D01*
X234173533Y-106107142D02*
X233983057Y-106059523D01*
X233983057Y-106059523D02*
X233887819Y-106011904D01*
X233887819Y-106011904D02*
X233840200Y-105964285D01*
X233840200Y-105964285D02*
X233792580Y-105869047D01*
X233792580Y-105869047D02*
X233792580Y-105773809D01*
X233792580Y-105773809D02*
X233840200Y-105678571D01*
X233840200Y-105678571D02*
X233887819Y-105630952D01*
X233887819Y-105630952D02*
X233983057Y-105583333D01*
X233983057Y-105583333D02*
X234173533Y-105535714D01*
X234173533Y-105535714D02*
X234411628Y-105535714D01*
X234411628Y-105535714D02*
X234602104Y-105583333D01*
X234602104Y-105583333D02*
X234697342Y-105630952D01*
X234697342Y-105630952D02*
X234744961Y-105678571D01*
X234744961Y-105678571D02*
X234792580Y-105773809D01*
X234459247Y-106964285D02*
X233792580Y-106964285D01*
X234459247Y-106535714D02*
X233935438Y-106535714D01*
X233935438Y-106535714D02*
X233840200Y-106583333D01*
X233840200Y-106583333D02*
X233792580Y-106678571D01*
X233792580Y-106678571D02*
X233792580Y-106821428D01*
X233792580Y-106821428D02*
X233840200Y-106916666D01*
X233840200Y-106916666D02*
X233887819Y-106964285D01*
X234316390Y-107773809D02*
X234316390Y-107440476D01*
X233792580Y-107440476D02*
X234792580Y-107440476D01*
X234792580Y-107440476D02*
X234792580Y-107916666D01*
X242920038Y-83672306D02*
X242872419Y-83767544D01*
X242872419Y-83767544D02*
X242872419Y-83910401D01*
X242872419Y-83910401D02*
X242920038Y-84053258D01*
X242920038Y-84053258D02*
X243015276Y-84148496D01*
X243015276Y-84148496D02*
X243110514Y-84196115D01*
X243110514Y-84196115D02*
X243300990Y-84243734D01*
X243300990Y-84243734D02*
X243443847Y-84243734D01*
X243443847Y-84243734D02*
X243634323Y-84196115D01*
X243634323Y-84196115D02*
X243729561Y-84148496D01*
X243729561Y-84148496D02*
X243824800Y-84053258D01*
X243824800Y-84053258D02*
X243872419Y-83910401D01*
X243872419Y-83910401D02*
X243872419Y-83815163D01*
X243872419Y-83815163D02*
X243824800Y-83672306D01*
X243824800Y-83672306D02*
X243777180Y-83624687D01*
X243777180Y-83624687D02*
X243443847Y-83624687D01*
X243443847Y-83624687D02*
X243443847Y-83815163D01*
X243872419Y-83196115D02*
X242872419Y-83196115D01*
X242872419Y-83196115D02*
X243872419Y-82624687D01*
X243872419Y-82624687D02*
X242872419Y-82624687D01*
X243872419Y-82148496D02*
X242872419Y-82148496D01*
X242872419Y-82148496D02*
X242872419Y-81910401D01*
X242872419Y-81910401D02*
X242920038Y-81767544D01*
X242920038Y-81767544D02*
X243015276Y-81672306D01*
X243015276Y-81672306D02*
X243110514Y-81624687D01*
X243110514Y-81624687D02*
X243300990Y-81577068D01*
X243300990Y-81577068D02*
X243443847Y-81577068D01*
X243443847Y-81577068D02*
X243634323Y-81624687D01*
X243634323Y-81624687D02*
X243729561Y-81672306D01*
X243729561Y-81672306D02*
X243824800Y-81767544D01*
X243824800Y-81767544D02*
X243872419Y-81910401D01*
X243872419Y-81910401D02*
X243872419Y-82148496D01*
X194696115Y-75587580D02*
X194696115Y-76587580D01*
X194696115Y-76587580D02*
X194458020Y-76587580D01*
X194458020Y-76587580D02*
X194315163Y-76539961D01*
X194315163Y-76539961D02*
X194219925Y-76444723D01*
X194219925Y-76444723D02*
X194172306Y-76349485D01*
X194172306Y-76349485D02*
X194124687Y-76159009D01*
X194124687Y-76159009D02*
X194124687Y-76016152D01*
X194124687Y-76016152D02*
X194172306Y-75825676D01*
X194172306Y-75825676D02*
X194219925Y-75730438D01*
X194219925Y-75730438D02*
X194315163Y-75635200D01*
X194315163Y-75635200D02*
X194458020Y-75587580D01*
X194458020Y-75587580D02*
X194696115Y-75587580D01*
X193172306Y-75587580D02*
X193743734Y-75587580D01*
X193458020Y-75587580D02*
X193458020Y-76587580D01*
X193458020Y-76587580D02*
X193553258Y-76444723D01*
X193553258Y-76444723D02*
X193648496Y-76349485D01*
X193648496Y-76349485D02*
X193743734Y-76301866D01*
X192696115Y-75587580D02*
X192505639Y-75587580D01*
X192505639Y-75587580D02*
X192410401Y-75635200D01*
X192410401Y-75635200D02*
X192362782Y-75682819D01*
X192362782Y-75682819D02*
X192267544Y-75825676D01*
X192267544Y-75825676D02*
X192219925Y-76016152D01*
X192219925Y-76016152D02*
X192219925Y-76397104D01*
X192219925Y-76397104D02*
X192267544Y-76492342D01*
X192267544Y-76492342D02*
X192315163Y-76539961D01*
X192315163Y-76539961D02*
X192410401Y-76587580D01*
X192410401Y-76587580D02*
X192600877Y-76587580D01*
X192600877Y-76587580D02*
X192696115Y-76539961D01*
X192696115Y-76539961D02*
X192743734Y-76492342D01*
X192743734Y-76492342D02*
X192791353Y-76397104D01*
X192791353Y-76397104D02*
X192791353Y-76159009D01*
X192791353Y-76159009D02*
X192743734Y-76063771D01*
X192743734Y-76063771D02*
X192696115Y-76016152D01*
X192696115Y-76016152D02*
X192600877Y-75968533D01*
X192600877Y-75968533D02*
X192410401Y-75968533D01*
X192410401Y-75968533D02*
X192315163Y-76016152D01*
X192315163Y-76016152D02*
X192267544Y-76063771D01*
X192267544Y-76063771D02*
X192219925Y-76159009D01*
X196637819Y-100011904D02*
X196590200Y-99964285D01*
X196590200Y-99964285D02*
X196542580Y-99821428D01*
X196542580Y-99821428D02*
X196542580Y-99726190D01*
X196542580Y-99726190D02*
X196590200Y-99583333D01*
X196590200Y-99583333D02*
X196685438Y-99488095D01*
X196685438Y-99488095D02*
X196780676Y-99440476D01*
X196780676Y-99440476D02*
X196971152Y-99392857D01*
X196971152Y-99392857D02*
X197114009Y-99392857D01*
X197114009Y-99392857D02*
X197304485Y-99440476D01*
X197304485Y-99440476D02*
X197399723Y-99488095D01*
X197399723Y-99488095D02*
X197494961Y-99583333D01*
X197494961Y-99583333D02*
X197542580Y-99726190D01*
X197542580Y-99726190D02*
X197542580Y-99821428D01*
X197542580Y-99821428D02*
X197494961Y-99964285D01*
X197494961Y-99964285D02*
X197447342Y-100011904D01*
X197542580Y-100630952D02*
X197542580Y-100821428D01*
X197542580Y-100821428D02*
X197494961Y-100916666D01*
X197494961Y-100916666D02*
X197399723Y-101011904D01*
X197399723Y-101011904D02*
X197209247Y-101059523D01*
X197209247Y-101059523D02*
X196875914Y-101059523D01*
X196875914Y-101059523D02*
X196685438Y-101011904D01*
X196685438Y-101011904D02*
X196590200Y-100916666D01*
X196590200Y-100916666D02*
X196542580Y-100821428D01*
X196542580Y-100821428D02*
X196542580Y-100630952D01*
X196542580Y-100630952D02*
X196590200Y-100535714D01*
X196590200Y-100535714D02*
X196685438Y-100440476D01*
X196685438Y-100440476D02*
X196875914Y-100392857D01*
X196875914Y-100392857D02*
X197209247Y-100392857D01*
X197209247Y-100392857D02*
X197399723Y-100440476D01*
X197399723Y-100440476D02*
X197494961Y-100535714D01*
X197494961Y-100535714D02*
X197542580Y-100630952D01*
X196542580Y-101488095D02*
X197542580Y-101488095D01*
X197542580Y-101488095D02*
X196542580Y-102059523D01*
X196542580Y-102059523D02*
X197542580Y-102059523D01*
X196542580Y-102535714D02*
X197542580Y-102535714D01*
X197542580Y-102535714D02*
X196542580Y-103107142D01*
X196542580Y-103107142D02*
X197542580Y-103107142D01*
X197542580Y-103488095D02*
X197542580Y-104107142D01*
X197542580Y-104107142D02*
X197161628Y-103773809D01*
X197161628Y-103773809D02*
X197161628Y-103916666D01*
X197161628Y-103916666D02*
X197114009Y-104011904D01*
X197114009Y-104011904D02*
X197066390Y-104059523D01*
X197066390Y-104059523D02*
X196971152Y-104107142D01*
X196971152Y-104107142D02*
X196733057Y-104107142D01*
X196733057Y-104107142D02*
X196637819Y-104059523D01*
X196637819Y-104059523D02*
X196590200Y-104011904D01*
X196590200Y-104011904D02*
X196542580Y-103916666D01*
X196542580Y-103916666D02*
X196542580Y-103630952D01*
X196542580Y-103630952D02*
X196590200Y-103535714D01*
X196590200Y-103535714D02*
X196637819Y-103488095D01*
X194124687Y-62587580D02*
X194458020Y-63063771D01*
X194696115Y-62587580D02*
X194696115Y-63587580D01*
X194696115Y-63587580D02*
X194315163Y-63587580D01*
X194315163Y-63587580D02*
X194219925Y-63539961D01*
X194219925Y-63539961D02*
X194172306Y-63492342D01*
X194172306Y-63492342D02*
X194124687Y-63397104D01*
X194124687Y-63397104D02*
X194124687Y-63254247D01*
X194124687Y-63254247D02*
X194172306Y-63159009D01*
X194172306Y-63159009D02*
X194219925Y-63111390D01*
X194219925Y-63111390D02*
X194315163Y-63063771D01*
X194315163Y-63063771D02*
X194696115Y-63063771D01*
X193791353Y-63587580D02*
X193124687Y-62587580D01*
X193124687Y-63587580D02*
X193791353Y-62587580D01*
X192791353Y-63492342D02*
X192743734Y-63539961D01*
X192743734Y-63539961D02*
X192648496Y-63587580D01*
X192648496Y-63587580D02*
X192410401Y-63587580D01*
X192410401Y-63587580D02*
X192315163Y-63539961D01*
X192315163Y-63539961D02*
X192267544Y-63492342D01*
X192267544Y-63492342D02*
X192219925Y-63397104D01*
X192219925Y-63397104D02*
X192219925Y-63301866D01*
X192219925Y-63301866D02*
X192267544Y-63159009D01*
X192267544Y-63159009D02*
X192838972Y-62587580D01*
X192838972Y-62587580D02*
X192219925Y-62587580D01*
X242920038Y-93672306D02*
X242872419Y-93767544D01*
X242872419Y-93767544D02*
X242872419Y-93910401D01*
X242872419Y-93910401D02*
X242920038Y-94053258D01*
X242920038Y-94053258D02*
X243015276Y-94148496D01*
X243015276Y-94148496D02*
X243110514Y-94196115D01*
X243110514Y-94196115D02*
X243300990Y-94243734D01*
X243300990Y-94243734D02*
X243443847Y-94243734D01*
X243443847Y-94243734D02*
X243634323Y-94196115D01*
X243634323Y-94196115D02*
X243729561Y-94148496D01*
X243729561Y-94148496D02*
X243824800Y-94053258D01*
X243824800Y-94053258D02*
X243872419Y-93910401D01*
X243872419Y-93910401D02*
X243872419Y-93815163D01*
X243872419Y-93815163D02*
X243824800Y-93672306D01*
X243824800Y-93672306D02*
X243777180Y-93624687D01*
X243777180Y-93624687D02*
X243443847Y-93624687D01*
X243443847Y-93624687D02*
X243443847Y-93815163D01*
X243872419Y-93196115D02*
X242872419Y-93196115D01*
X242872419Y-93196115D02*
X243872419Y-92624687D01*
X243872419Y-92624687D02*
X242872419Y-92624687D01*
X243872419Y-92148496D02*
X242872419Y-92148496D01*
X242872419Y-92148496D02*
X242872419Y-91910401D01*
X242872419Y-91910401D02*
X242920038Y-91767544D01*
X242920038Y-91767544D02*
X243015276Y-91672306D01*
X243015276Y-91672306D02*
X243110514Y-91624687D01*
X243110514Y-91624687D02*
X243300990Y-91577068D01*
X243300990Y-91577068D02*
X243443847Y-91577068D01*
X243443847Y-91577068D02*
X243634323Y-91624687D01*
X243634323Y-91624687D02*
X243729561Y-91672306D01*
X243729561Y-91672306D02*
X243824800Y-91767544D01*
X243824800Y-91767544D02*
X243872419Y-91910401D01*
X243872419Y-91910401D02*
X243872419Y-92148496D01*
X194696115Y-67587580D02*
X194696115Y-68587580D01*
X194696115Y-68587580D02*
X194458020Y-68587580D01*
X194458020Y-68587580D02*
X194315163Y-68539961D01*
X194315163Y-68539961D02*
X194219925Y-68444723D01*
X194219925Y-68444723D02*
X194172306Y-68349485D01*
X194172306Y-68349485D02*
X194124687Y-68159009D01*
X194124687Y-68159009D02*
X194124687Y-68016152D01*
X194124687Y-68016152D02*
X194172306Y-67825676D01*
X194172306Y-67825676D02*
X194219925Y-67730438D01*
X194219925Y-67730438D02*
X194315163Y-67635200D01*
X194315163Y-67635200D02*
X194458020Y-67587580D01*
X194458020Y-67587580D02*
X194696115Y-67587580D01*
X193219925Y-68587580D02*
X193696115Y-68587580D01*
X193696115Y-68587580D02*
X193743734Y-68111390D01*
X193743734Y-68111390D02*
X193696115Y-68159009D01*
X193696115Y-68159009D02*
X193600877Y-68206628D01*
X193600877Y-68206628D02*
X193362782Y-68206628D01*
X193362782Y-68206628D02*
X193267544Y-68159009D01*
X193267544Y-68159009D02*
X193219925Y-68111390D01*
X193219925Y-68111390D02*
X193172306Y-68016152D01*
X193172306Y-68016152D02*
X193172306Y-67778057D01*
X193172306Y-67778057D02*
X193219925Y-67682819D01*
X193219925Y-67682819D02*
X193267544Y-67635200D01*
X193267544Y-67635200D02*
X193362782Y-67587580D01*
X193362782Y-67587580D02*
X193600877Y-67587580D01*
X193600877Y-67587580D02*
X193696115Y-67635200D01*
X193696115Y-67635200D02*
X193743734Y-67682819D01*
X234857143Y-111052657D02*
X234904762Y-111005038D01*
X234904762Y-111005038D02*
X235000000Y-110957419D01*
X235000000Y-110957419D02*
X235238095Y-110957419D01*
X235238095Y-110957419D02*
X235333333Y-111005038D01*
X235333333Y-111005038D02*
X235380952Y-111052657D01*
X235380952Y-111052657D02*
X235428571Y-111147895D01*
X235428571Y-111147895D02*
X235428571Y-111243133D01*
X235428571Y-111243133D02*
X235380952Y-111385990D01*
X235380952Y-111385990D02*
X234809524Y-111957419D01*
X234809524Y-111957419D02*
X235428571Y-111957419D01*
X235809524Y-111052657D02*
X235857143Y-111005038D01*
X235857143Y-111005038D02*
X235952381Y-110957419D01*
X235952381Y-110957419D02*
X236190476Y-110957419D01*
X236190476Y-110957419D02*
X236285714Y-111005038D01*
X236285714Y-111005038D02*
X236333333Y-111052657D01*
X236333333Y-111052657D02*
X236380952Y-111147895D01*
X236380952Y-111147895D02*
X236380952Y-111243133D01*
X236380952Y-111243133D02*
X236333333Y-111385990D01*
X236333333Y-111385990D02*
X235761905Y-111957419D01*
X235761905Y-111957419D02*
X236380952Y-111957419D01*
X237238095Y-111290752D02*
X237238095Y-111957419D01*
X236809524Y-111290752D02*
X236809524Y-111814561D01*
X236809524Y-111814561D02*
X236857143Y-111909800D01*
X236857143Y-111909800D02*
X236952381Y-111957419D01*
X236952381Y-111957419D02*
X237095238Y-111957419D01*
X237095238Y-111957419D02*
X237190476Y-111909800D01*
X237190476Y-111909800D02*
X237238095Y-111862180D01*
X238047619Y-111433609D02*
X237714286Y-111433609D01*
X237714286Y-111957419D02*
X237714286Y-110957419D01*
X237714286Y-110957419D02*
X238190476Y-110957419D01*
X194791353Y-81587580D02*
X194172306Y-81587580D01*
X194172306Y-81587580D02*
X194505639Y-81206628D01*
X194505639Y-81206628D02*
X194362782Y-81206628D01*
X194362782Y-81206628D02*
X194267544Y-81159009D01*
X194267544Y-81159009D02*
X194219925Y-81111390D01*
X194219925Y-81111390D02*
X194172306Y-81016152D01*
X194172306Y-81016152D02*
X194172306Y-80778057D01*
X194172306Y-80778057D02*
X194219925Y-80682819D01*
X194219925Y-80682819D02*
X194267544Y-80635200D01*
X194267544Y-80635200D02*
X194362782Y-80587580D01*
X194362782Y-80587580D02*
X194648496Y-80587580D01*
X194648496Y-80587580D02*
X194743734Y-80635200D01*
X194743734Y-80635200D02*
X194791353Y-80682819D01*
X193743734Y-80682819D02*
X193696115Y-80635200D01*
X193696115Y-80635200D02*
X193743734Y-80587580D01*
X193743734Y-80587580D02*
X193791353Y-80635200D01*
X193791353Y-80635200D02*
X193743734Y-80682819D01*
X193743734Y-80682819D02*
X193743734Y-80587580D01*
X193362782Y-81587580D02*
X192743735Y-81587580D01*
X192743735Y-81587580D02*
X193077068Y-81206628D01*
X193077068Y-81206628D02*
X192934211Y-81206628D01*
X192934211Y-81206628D02*
X192838973Y-81159009D01*
X192838973Y-81159009D02*
X192791354Y-81111390D01*
X192791354Y-81111390D02*
X192743735Y-81016152D01*
X192743735Y-81016152D02*
X192743735Y-80778057D01*
X192743735Y-80778057D02*
X192791354Y-80682819D01*
X192791354Y-80682819D02*
X192838973Y-80635200D01*
X192838973Y-80635200D02*
X192934211Y-80587580D01*
X192934211Y-80587580D02*
X193219925Y-80587580D01*
X193219925Y-80587580D02*
X193315163Y-80635200D01*
X193315163Y-80635200D02*
X193362782Y-80682819D01*
X192458020Y-81587580D02*
X192124687Y-80587580D01*
X192124687Y-80587580D02*
X191791354Y-81587580D01*
X239540752Y-87642857D02*
X240207419Y-87642857D01*
X239159800Y-87880952D02*
X239874085Y-88119047D01*
X239874085Y-88119047D02*
X239874085Y-87500000D01*
X239207419Y-87214285D02*
X239207419Y-86547619D01*
X239207419Y-86547619D02*
X240207419Y-86976190D01*
X239207419Y-85976190D02*
X239207419Y-85880952D01*
X239207419Y-85880952D02*
X239255038Y-85785714D01*
X239255038Y-85785714D02*
X239302657Y-85738095D01*
X239302657Y-85738095D02*
X239397895Y-85690476D01*
X239397895Y-85690476D02*
X239588371Y-85642857D01*
X239588371Y-85642857D02*
X239826466Y-85642857D01*
X239826466Y-85642857D02*
X240016942Y-85690476D01*
X240016942Y-85690476D02*
X240112180Y-85738095D01*
X240112180Y-85738095D02*
X240159800Y-85785714D01*
X240159800Y-85785714D02*
X240207419Y-85880952D01*
X240207419Y-85880952D02*
X240207419Y-85976190D01*
X240207419Y-85976190D02*
X240159800Y-86071428D01*
X240159800Y-86071428D02*
X240112180Y-86119047D01*
X240112180Y-86119047D02*
X240016942Y-86166666D01*
X240016942Y-86166666D02*
X239826466Y-86214285D01*
X239826466Y-86214285D02*
X239588371Y-86214285D01*
X239588371Y-86214285D02*
X239397895Y-86166666D01*
X239397895Y-86166666D02*
X239302657Y-86119047D01*
X239302657Y-86119047D02*
X239255038Y-86071428D01*
X239255038Y-86071428D02*
X239207419Y-85976190D01*
X239540752Y-84785714D02*
X240207419Y-84785714D01*
X239540752Y-85214285D02*
X240064561Y-85214285D01*
X240064561Y-85214285D02*
X240159800Y-85166666D01*
X240159800Y-85166666D02*
X240207419Y-85071428D01*
X240207419Y-85071428D02*
X240207419Y-84928571D01*
X240207419Y-84928571D02*
X240159800Y-84833333D01*
X240159800Y-84833333D02*
X240112180Y-84785714D01*
X239683609Y-83976190D02*
X239683609Y-84309523D01*
X240207419Y-84309523D02*
X239207419Y-84309523D01*
X239207419Y-84309523D02*
X239207419Y-83833333D01*
X194696115Y-78127580D02*
X194696115Y-79127580D01*
X194696115Y-79127580D02*
X194458020Y-79127580D01*
X194458020Y-79127580D02*
X194315163Y-79079961D01*
X194315163Y-79079961D02*
X194219925Y-78984723D01*
X194219925Y-78984723D02*
X194172306Y-78889485D01*
X194172306Y-78889485D02*
X194124687Y-78699009D01*
X194124687Y-78699009D02*
X194124687Y-78556152D01*
X194124687Y-78556152D02*
X194172306Y-78365676D01*
X194172306Y-78365676D02*
X194219925Y-78270438D01*
X194219925Y-78270438D02*
X194315163Y-78175200D01*
X194315163Y-78175200D02*
X194458020Y-78127580D01*
X194458020Y-78127580D02*
X194696115Y-78127580D01*
X193743734Y-79032342D02*
X193696115Y-79079961D01*
X193696115Y-79079961D02*
X193600877Y-79127580D01*
X193600877Y-79127580D02*
X193362782Y-79127580D01*
X193362782Y-79127580D02*
X193267544Y-79079961D01*
X193267544Y-79079961D02*
X193219925Y-79032342D01*
X193219925Y-79032342D02*
X193172306Y-78937104D01*
X193172306Y-78937104D02*
X193172306Y-78841866D01*
X193172306Y-78841866D02*
X193219925Y-78699009D01*
X193219925Y-78699009D02*
X193791353Y-78127580D01*
X193791353Y-78127580D02*
X193172306Y-78127580D01*
X192838972Y-79127580D02*
X192219925Y-79127580D01*
X192219925Y-79127580D02*
X192553258Y-78746628D01*
X192553258Y-78746628D02*
X192410401Y-78746628D01*
X192410401Y-78746628D02*
X192315163Y-78699009D01*
X192315163Y-78699009D02*
X192267544Y-78651390D01*
X192267544Y-78651390D02*
X192219925Y-78556152D01*
X192219925Y-78556152D02*
X192219925Y-78318057D01*
X192219925Y-78318057D02*
X192267544Y-78222819D01*
X192267544Y-78222819D02*
X192315163Y-78175200D01*
X192315163Y-78175200D02*
X192410401Y-78127580D01*
X192410401Y-78127580D02*
X192696115Y-78127580D01*
X192696115Y-78127580D02*
X192791353Y-78175200D01*
X192791353Y-78175200D02*
X192838972Y-78222819D01*
X194696115Y-73087580D02*
X194696115Y-74087580D01*
X194696115Y-74087580D02*
X194458020Y-74087580D01*
X194458020Y-74087580D02*
X194315163Y-74039961D01*
X194315163Y-74039961D02*
X194219925Y-73944723D01*
X194219925Y-73944723D02*
X194172306Y-73849485D01*
X194172306Y-73849485D02*
X194124687Y-73659009D01*
X194124687Y-73659009D02*
X194124687Y-73516152D01*
X194124687Y-73516152D02*
X194172306Y-73325676D01*
X194172306Y-73325676D02*
X194219925Y-73230438D01*
X194219925Y-73230438D02*
X194315163Y-73135200D01*
X194315163Y-73135200D02*
X194458020Y-73087580D01*
X194458020Y-73087580D02*
X194696115Y-73087580D01*
X193172306Y-73087580D02*
X193743734Y-73087580D01*
X193458020Y-73087580D02*
X193458020Y-74087580D01*
X193458020Y-74087580D02*
X193553258Y-73944723D01*
X193553258Y-73944723D02*
X193648496Y-73849485D01*
X193648496Y-73849485D02*
X193743734Y-73801866D01*
X192600877Y-73659009D02*
X192696115Y-73706628D01*
X192696115Y-73706628D02*
X192743734Y-73754247D01*
X192743734Y-73754247D02*
X192791353Y-73849485D01*
X192791353Y-73849485D02*
X192791353Y-73897104D01*
X192791353Y-73897104D02*
X192743734Y-73992342D01*
X192743734Y-73992342D02*
X192696115Y-74039961D01*
X192696115Y-74039961D02*
X192600877Y-74087580D01*
X192600877Y-74087580D02*
X192410401Y-74087580D01*
X192410401Y-74087580D02*
X192315163Y-74039961D01*
X192315163Y-74039961D02*
X192267544Y-73992342D01*
X192267544Y-73992342D02*
X192219925Y-73897104D01*
X192219925Y-73897104D02*
X192219925Y-73849485D01*
X192219925Y-73849485D02*
X192267544Y-73754247D01*
X192267544Y-73754247D02*
X192315163Y-73706628D01*
X192315163Y-73706628D02*
X192410401Y-73659009D01*
X192410401Y-73659009D02*
X192600877Y-73659009D01*
X192600877Y-73659009D02*
X192696115Y-73611390D01*
X192696115Y-73611390D02*
X192743734Y-73563771D01*
X192743734Y-73563771D02*
X192791353Y-73468533D01*
X192791353Y-73468533D02*
X192791353Y-73278057D01*
X192791353Y-73278057D02*
X192743734Y-73182819D01*
X192743734Y-73182819D02*
X192696115Y-73135200D01*
X192696115Y-73135200D02*
X192600877Y-73087580D01*
X192600877Y-73087580D02*
X192410401Y-73087580D01*
X192410401Y-73087580D02*
X192315163Y-73135200D01*
X192315163Y-73135200D02*
X192267544Y-73182819D01*
X192267544Y-73182819D02*
X192219925Y-73278057D01*
X192219925Y-73278057D02*
X192219925Y-73468533D01*
X192219925Y-73468533D02*
X192267544Y-73563771D01*
X192267544Y-73563771D02*
X192315163Y-73611390D01*
X192315163Y-73611390D02*
X192410401Y-73659009D01*
X239790752Y-66642857D02*
X240457419Y-66642857D01*
X239409800Y-66880952D02*
X240124085Y-67119047D01*
X240124085Y-67119047D02*
X240124085Y-66500000D01*
X239457419Y-66214285D02*
X239457419Y-65547619D01*
X239457419Y-65547619D02*
X240457419Y-65976190D01*
X239457419Y-64976190D02*
X239457419Y-64880952D01*
X239457419Y-64880952D02*
X239505038Y-64785714D01*
X239505038Y-64785714D02*
X239552657Y-64738095D01*
X239552657Y-64738095D02*
X239647895Y-64690476D01*
X239647895Y-64690476D02*
X239838371Y-64642857D01*
X239838371Y-64642857D02*
X240076466Y-64642857D01*
X240076466Y-64642857D02*
X240266942Y-64690476D01*
X240266942Y-64690476D02*
X240362180Y-64738095D01*
X240362180Y-64738095D02*
X240409800Y-64785714D01*
X240409800Y-64785714D02*
X240457419Y-64880952D01*
X240457419Y-64880952D02*
X240457419Y-64976190D01*
X240457419Y-64976190D02*
X240409800Y-65071428D01*
X240409800Y-65071428D02*
X240362180Y-65119047D01*
X240362180Y-65119047D02*
X240266942Y-65166666D01*
X240266942Y-65166666D02*
X240076466Y-65214285D01*
X240076466Y-65214285D02*
X239838371Y-65214285D01*
X239838371Y-65214285D02*
X239647895Y-65166666D01*
X239647895Y-65166666D02*
X239552657Y-65119047D01*
X239552657Y-65119047D02*
X239505038Y-65071428D01*
X239505038Y-65071428D02*
X239457419Y-64976190D01*
X239790752Y-63785714D02*
X240457419Y-63785714D01*
X239790752Y-64214285D02*
X240314561Y-64214285D01*
X240314561Y-64214285D02*
X240409800Y-64166666D01*
X240409800Y-64166666D02*
X240457419Y-64071428D01*
X240457419Y-64071428D02*
X240457419Y-63928571D01*
X240457419Y-63928571D02*
X240409800Y-63833333D01*
X240409800Y-63833333D02*
X240362180Y-63785714D01*
X239933609Y-62976190D02*
X239933609Y-63309523D01*
X240457419Y-63309523D02*
X239457419Y-63309523D01*
X239457419Y-63309523D02*
X239457419Y-62833333D01*
X239790752Y-77142857D02*
X240457419Y-77142857D01*
X239409800Y-77380952D02*
X240124085Y-77619047D01*
X240124085Y-77619047D02*
X240124085Y-77000000D01*
X239457419Y-76714285D02*
X239457419Y-76047619D01*
X239457419Y-76047619D02*
X240457419Y-76476190D01*
X239457419Y-75476190D02*
X239457419Y-75380952D01*
X239457419Y-75380952D02*
X239505038Y-75285714D01*
X239505038Y-75285714D02*
X239552657Y-75238095D01*
X239552657Y-75238095D02*
X239647895Y-75190476D01*
X239647895Y-75190476D02*
X239838371Y-75142857D01*
X239838371Y-75142857D02*
X240076466Y-75142857D01*
X240076466Y-75142857D02*
X240266942Y-75190476D01*
X240266942Y-75190476D02*
X240362180Y-75238095D01*
X240362180Y-75238095D02*
X240409800Y-75285714D01*
X240409800Y-75285714D02*
X240457419Y-75380952D01*
X240457419Y-75380952D02*
X240457419Y-75476190D01*
X240457419Y-75476190D02*
X240409800Y-75571428D01*
X240409800Y-75571428D02*
X240362180Y-75619047D01*
X240362180Y-75619047D02*
X240266942Y-75666666D01*
X240266942Y-75666666D02*
X240076466Y-75714285D01*
X240076466Y-75714285D02*
X239838371Y-75714285D01*
X239838371Y-75714285D02*
X239647895Y-75666666D01*
X239647895Y-75666666D02*
X239552657Y-75619047D01*
X239552657Y-75619047D02*
X239505038Y-75571428D01*
X239505038Y-75571428D02*
X239457419Y-75476190D01*
X239790752Y-74285714D02*
X240457419Y-74285714D01*
X239790752Y-74714285D02*
X240314561Y-74714285D01*
X240314561Y-74714285D02*
X240409800Y-74666666D01*
X240409800Y-74666666D02*
X240457419Y-74571428D01*
X240457419Y-74571428D02*
X240457419Y-74428571D01*
X240457419Y-74428571D02*
X240409800Y-74333333D01*
X240409800Y-74333333D02*
X240362180Y-74285714D01*
X239933609Y-73476190D02*
X239933609Y-73809523D01*
X240457419Y-73809523D02*
X239457419Y-73809523D01*
X239457419Y-73809523D02*
X239457419Y-73333333D01*
X194838972Y-66087580D02*
X194267544Y-66087580D01*
X194553258Y-65087580D02*
X194553258Y-66087580D01*
X194029448Y-66087580D02*
X193362782Y-65087580D01*
X193362782Y-66087580D02*
X194029448Y-65087580D01*
X193029448Y-65992342D02*
X192981829Y-66039961D01*
X192981829Y-66039961D02*
X192886591Y-66087580D01*
X192886591Y-66087580D02*
X192648496Y-66087580D01*
X192648496Y-66087580D02*
X192553258Y-66039961D01*
X192553258Y-66039961D02*
X192505639Y-65992342D01*
X192505639Y-65992342D02*
X192458020Y-65897104D01*
X192458020Y-65897104D02*
X192458020Y-65801866D01*
X192458020Y-65801866D02*
X192505639Y-65659009D01*
X192505639Y-65659009D02*
X193077067Y-65087580D01*
X193077067Y-65087580D02*
X192458020Y-65087580D01*
D12*
X238359580Y-85999916D02*
X238407200Y-86047535D01*
X238407200Y-86047535D02*
X238454819Y-86190392D01*
X238454819Y-86190392D02*
X238454819Y-86285630D01*
X238454819Y-86285630D02*
X238407200Y-86428487D01*
X238407200Y-86428487D02*
X238311961Y-86523725D01*
X238311961Y-86523725D02*
X238216723Y-86571344D01*
X238216723Y-86571344D02*
X238026247Y-86618963D01*
X238026247Y-86618963D02*
X237883390Y-86618963D01*
X237883390Y-86618963D02*
X237692914Y-86571344D01*
X237692914Y-86571344D02*
X237597676Y-86523725D01*
X237597676Y-86523725D02*
X237502438Y-86428487D01*
X237502438Y-86428487D02*
X237454819Y-86285630D01*
X237454819Y-86285630D02*
X237454819Y-86190392D01*
X237454819Y-86190392D02*
X237502438Y-86047535D01*
X237502438Y-86047535D02*
X237550057Y-85999916D01*
X237454819Y-85666582D02*
X237454819Y-85047535D01*
X237454819Y-85047535D02*
X237835771Y-85380868D01*
X237835771Y-85380868D02*
X237835771Y-85238011D01*
X237835771Y-85238011D02*
X237883390Y-85142773D01*
X237883390Y-85142773D02*
X237931009Y-85095154D01*
X237931009Y-85095154D02*
X238026247Y-85047535D01*
X238026247Y-85047535D02*
X238264342Y-85047535D01*
X238264342Y-85047535D02*
X238359580Y-85095154D01*
X238359580Y-85095154D02*
X238407200Y-85142773D01*
X238407200Y-85142773D02*
X238454819Y-85238011D01*
X238454819Y-85238011D02*
X238454819Y-85523725D01*
X238454819Y-85523725D02*
X238407200Y-85618963D01*
X238407200Y-85618963D02*
X238359580Y-85666582D01*
X196666666Y-69954819D02*
X196666666Y-70669104D01*
X196666666Y-70669104D02*
X196619047Y-70811961D01*
X196619047Y-70811961D02*
X196523809Y-70907200D01*
X196523809Y-70907200D02*
X196380952Y-70954819D01*
X196380952Y-70954819D02*
X196285714Y-70954819D01*
X197047619Y-69954819D02*
X197714285Y-69954819D01*
X197714285Y-69954819D02*
X197285714Y-70954819D01*
X240954819Y-57833333D02*
X241669104Y-57833333D01*
X241669104Y-57833333D02*
X241811961Y-57880952D01*
X241811961Y-57880952D02*
X241907200Y-57976190D01*
X241907200Y-57976190D02*
X241954819Y-58119047D01*
X241954819Y-58119047D02*
X241954819Y-58214285D01*
X240954819Y-56928571D02*
X240954819Y-57119047D01*
X240954819Y-57119047D02*
X241002438Y-57214285D01*
X241002438Y-57214285D02*
X241050057Y-57261904D01*
X241050057Y-57261904D02*
X241192914Y-57357142D01*
X241192914Y-57357142D02*
X241383390Y-57404761D01*
X241383390Y-57404761D02*
X241764342Y-57404761D01*
X241764342Y-57404761D02*
X241859580Y-57357142D01*
X241859580Y-57357142D02*
X241907200Y-57309523D01*
X241907200Y-57309523D02*
X241954819Y-57214285D01*
X241954819Y-57214285D02*
X241954819Y-57023809D01*
X241954819Y-57023809D02*
X241907200Y-56928571D01*
X241907200Y-56928571D02*
X241859580Y-56880952D01*
X241859580Y-56880952D02*
X241764342Y-56833333D01*
X241764342Y-56833333D02*
X241526247Y-56833333D01*
X241526247Y-56833333D02*
X241431009Y-56880952D01*
X241431009Y-56880952D02*
X241383390Y-56928571D01*
X241383390Y-56928571D02*
X241335771Y-57023809D01*
X241335771Y-57023809D02*
X241335771Y-57214285D01*
X241335771Y-57214285D02*
X241383390Y-57309523D01*
X241383390Y-57309523D02*
X241431009Y-57357142D01*
X241431009Y-57357142D02*
X241526247Y-57404761D01*
X242954819Y-88583333D02*
X243669104Y-88583333D01*
X243669104Y-88583333D02*
X243811961Y-88630952D01*
X243811961Y-88630952D02*
X243907200Y-88726190D01*
X243907200Y-88726190D02*
X243954819Y-88869047D01*
X243954819Y-88869047D02*
X243954819Y-88964285D01*
X242954819Y-88202380D02*
X242954819Y-87583333D01*
X242954819Y-87583333D02*
X243335771Y-87916666D01*
X243335771Y-87916666D02*
X243335771Y-87773809D01*
X243335771Y-87773809D02*
X243383390Y-87678571D01*
X243383390Y-87678571D02*
X243431009Y-87630952D01*
X243431009Y-87630952D02*
X243526247Y-87583333D01*
X243526247Y-87583333D02*
X243764342Y-87583333D01*
X243764342Y-87583333D02*
X243859580Y-87630952D01*
X243859580Y-87630952D02*
X243907200Y-87678571D01*
X243907200Y-87678571D02*
X243954819Y-87773809D01*
X243954819Y-87773809D02*
X243954819Y-88059523D01*
X243954819Y-88059523D02*
X243907200Y-88154761D01*
X243907200Y-88154761D02*
X243859580Y-88202380D01*
X238359580Y-64999916D02*
X238407200Y-65047535D01*
X238407200Y-65047535D02*
X238454819Y-65190392D01*
X238454819Y-65190392D02*
X238454819Y-65285630D01*
X238454819Y-65285630D02*
X238407200Y-65428487D01*
X238407200Y-65428487D02*
X238311961Y-65523725D01*
X238311961Y-65523725D02*
X238216723Y-65571344D01*
X238216723Y-65571344D02*
X238026247Y-65618963D01*
X238026247Y-65618963D02*
X237883390Y-65618963D01*
X237883390Y-65618963D02*
X237692914Y-65571344D01*
X237692914Y-65571344D02*
X237597676Y-65523725D01*
X237597676Y-65523725D02*
X237502438Y-65428487D01*
X237502438Y-65428487D02*
X237454819Y-65285630D01*
X237454819Y-65285630D02*
X237454819Y-65190392D01*
X237454819Y-65190392D02*
X237502438Y-65047535D01*
X237502438Y-65047535D02*
X237550057Y-64999916D01*
X237788152Y-64142773D02*
X238454819Y-64142773D01*
X237407200Y-64380868D02*
X238121485Y-64618963D01*
X238121485Y-64618963D02*
X238121485Y-63999916D01*
X242954819Y-68583333D02*
X243669104Y-68583333D01*
X243669104Y-68583333D02*
X243811961Y-68630952D01*
X243811961Y-68630952D02*
X243907200Y-68726190D01*
X243907200Y-68726190D02*
X243954819Y-68869047D01*
X243954819Y-68869047D02*
X243954819Y-68964285D01*
X242954819Y-67630952D02*
X242954819Y-68107142D01*
X242954819Y-68107142D02*
X243431009Y-68154761D01*
X243431009Y-68154761D02*
X243383390Y-68107142D01*
X243383390Y-68107142D02*
X243335771Y-68011904D01*
X243335771Y-68011904D02*
X243335771Y-67773809D01*
X243335771Y-67773809D02*
X243383390Y-67678571D01*
X243383390Y-67678571D02*
X243431009Y-67630952D01*
X243431009Y-67630952D02*
X243526247Y-67583333D01*
X243526247Y-67583333D02*
X243764342Y-67583333D01*
X243764342Y-67583333D02*
X243859580Y-67630952D01*
X243859580Y-67630952D02*
X243907200Y-67678571D01*
X243907200Y-67678571D02*
X243954819Y-67773809D01*
X243954819Y-67773809D02*
X243954819Y-68011904D01*
X243954819Y-68011904D02*
X243907200Y-68107142D01*
X243907200Y-68107142D02*
X243859580Y-68154761D01*
X196666666Y-85454819D02*
X196666666Y-86169104D01*
X196666666Y-86169104D02*
X196619047Y-86311961D01*
X196619047Y-86311961D02*
X196523809Y-86407200D01*
X196523809Y-86407200D02*
X196380952Y-86454819D01*
X196380952Y-86454819D02*
X196285714Y-86454819D01*
X197285714Y-85883390D02*
X197190476Y-85835771D01*
X197190476Y-85835771D02*
X197142857Y-85788152D01*
X197142857Y-85788152D02*
X197095238Y-85692914D01*
X197095238Y-85692914D02*
X197095238Y-85645295D01*
X197095238Y-85645295D02*
X197142857Y-85550057D01*
X197142857Y-85550057D02*
X197190476Y-85502438D01*
X197190476Y-85502438D02*
X197285714Y-85454819D01*
X197285714Y-85454819D02*
X197476190Y-85454819D01*
X197476190Y-85454819D02*
X197571428Y-85502438D01*
X197571428Y-85502438D02*
X197619047Y-85550057D01*
X197619047Y-85550057D02*
X197666666Y-85645295D01*
X197666666Y-85645295D02*
X197666666Y-85692914D01*
X197666666Y-85692914D02*
X197619047Y-85788152D01*
X197619047Y-85788152D02*
X197571428Y-85835771D01*
X197571428Y-85835771D02*
X197476190Y-85883390D01*
X197476190Y-85883390D02*
X197285714Y-85883390D01*
X197285714Y-85883390D02*
X197190476Y-85931009D01*
X197190476Y-85931009D02*
X197142857Y-85978628D01*
X197142857Y-85978628D02*
X197095238Y-86073866D01*
X197095238Y-86073866D02*
X197095238Y-86264342D01*
X197095238Y-86264342D02*
X197142857Y-86359580D01*
X197142857Y-86359580D02*
X197190476Y-86407200D01*
X197190476Y-86407200D02*
X197285714Y-86454819D01*
X197285714Y-86454819D02*
X197476190Y-86454819D01*
X197476190Y-86454819D02*
X197571428Y-86407200D01*
X197571428Y-86407200D02*
X197619047Y-86359580D01*
X197619047Y-86359580D02*
X197666666Y-86264342D01*
X197666666Y-86264342D02*
X197666666Y-86073866D01*
X197666666Y-86073866D02*
X197619047Y-85978628D01*
X197619047Y-85978628D02*
X197571428Y-85931009D01*
X197571428Y-85931009D02*
X197476190Y-85883390D01*
X240488095Y-109954819D02*
X240488095Y-110764342D01*
X240488095Y-110764342D02*
X240535714Y-110859580D01*
X240535714Y-110859580D02*
X240583333Y-110907200D01*
X240583333Y-110907200D02*
X240678571Y-110954819D01*
X240678571Y-110954819D02*
X240869047Y-110954819D01*
X240869047Y-110954819D02*
X240964285Y-110907200D01*
X240964285Y-110907200D02*
X241011904Y-110859580D01*
X241011904Y-110859580D02*
X241059523Y-110764342D01*
X241059523Y-110764342D02*
X241059523Y-109954819D01*
X242059523Y-110954819D02*
X241488095Y-110954819D01*
X241773809Y-110954819D02*
X241773809Y-109954819D01*
X241773809Y-109954819D02*
X241678571Y-110097676D01*
X241678571Y-110097676D02*
X241583333Y-110192914D01*
X241583333Y-110192914D02*
X241488095Y-110240533D01*
X238359580Y-96499916D02*
X238407200Y-96547535D01*
X238407200Y-96547535D02*
X238454819Y-96690392D01*
X238454819Y-96690392D02*
X238454819Y-96785630D01*
X238454819Y-96785630D02*
X238407200Y-96928487D01*
X238407200Y-96928487D02*
X238311961Y-97023725D01*
X238311961Y-97023725D02*
X238216723Y-97071344D01*
X238216723Y-97071344D02*
X238026247Y-97118963D01*
X238026247Y-97118963D02*
X237883390Y-97118963D01*
X237883390Y-97118963D02*
X237692914Y-97071344D01*
X237692914Y-97071344D02*
X237597676Y-97023725D01*
X237597676Y-97023725D02*
X237502438Y-96928487D01*
X237502438Y-96928487D02*
X237454819Y-96785630D01*
X237454819Y-96785630D02*
X237454819Y-96690392D01*
X237454819Y-96690392D02*
X237502438Y-96547535D01*
X237502438Y-96547535D02*
X237550057Y-96499916D01*
X238454819Y-95547535D02*
X238454819Y-96118963D01*
X238454819Y-95833249D02*
X237454819Y-95833249D01*
X237454819Y-95833249D02*
X237597676Y-95928487D01*
X237597676Y-95928487D02*
X237692914Y-96023725D01*
X237692914Y-96023725D02*
X237740533Y-96118963D01*
X227833333Y-109609580D02*
X227785714Y-109657200D01*
X227785714Y-109657200D02*
X227642857Y-109704819D01*
X227642857Y-109704819D02*
X227547619Y-109704819D01*
X227547619Y-109704819D02*
X227404762Y-109657200D01*
X227404762Y-109657200D02*
X227309524Y-109561961D01*
X227309524Y-109561961D02*
X227261905Y-109466723D01*
X227261905Y-109466723D02*
X227214286Y-109276247D01*
X227214286Y-109276247D02*
X227214286Y-109133390D01*
X227214286Y-109133390D02*
X227261905Y-108942914D01*
X227261905Y-108942914D02*
X227309524Y-108847676D01*
X227309524Y-108847676D02*
X227404762Y-108752438D01*
X227404762Y-108752438D02*
X227547619Y-108704819D01*
X227547619Y-108704819D02*
X227642857Y-108704819D01*
X227642857Y-108704819D02*
X227785714Y-108752438D01*
X227785714Y-108752438D02*
X227833333Y-108800057D01*
X228690476Y-108704819D02*
X228500000Y-108704819D01*
X228500000Y-108704819D02*
X228404762Y-108752438D01*
X228404762Y-108752438D02*
X228357143Y-108800057D01*
X228357143Y-108800057D02*
X228261905Y-108942914D01*
X228261905Y-108942914D02*
X228214286Y-109133390D01*
X228214286Y-109133390D02*
X228214286Y-109514342D01*
X228214286Y-109514342D02*
X228261905Y-109609580D01*
X228261905Y-109609580D02*
X228309524Y-109657200D01*
X228309524Y-109657200D02*
X228404762Y-109704819D01*
X228404762Y-109704819D02*
X228595238Y-109704819D01*
X228595238Y-109704819D02*
X228690476Y-109657200D01*
X228690476Y-109657200D02*
X228738095Y-109609580D01*
X228738095Y-109609580D02*
X228785714Y-109514342D01*
X228785714Y-109514342D02*
X228785714Y-109276247D01*
X228785714Y-109276247D02*
X228738095Y-109181009D01*
X228738095Y-109181009D02*
X228690476Y-109133390D01*
X228690476Y-109133390D02*
X228595238Y-109085771D01*
X228595238Y-109085771D02*
X228404762Y-109085771D01*
X228404762Y-109085771D02*
X228309524Y-109133390D01*
X228309524Y-109133390D02*
X228261905Y-109181009D01*
X228261905Y-109181009D02*
X228214286Y-109276247D01*
X242954819Y-98583333D02*
X243669104Y-98583333D01*
X243669104Y-98583333D02*
X243811961Y-98630952D01*
X243811961Y-98630952D02*
X243907200Y-98726190D01*
X243907200Y-98726190D02*
X243954819Y-98869047D01*
X243954819Y-98869047D02*
X243954819Y-98964285D01*
X243050057Y-98154761D02*
X243002438Y-98107142D01*
X243002438Y-98107142D02*
X242954819Y-98011904D01*
X242954819Y-98011904D02*
X242954819Y-97773809D01*
X242954819Y-97773809D02*
X243002438Y-97678571D01*
X243002438Y-97678571D02*
X243050057Y-97630952D01*
X243050057Y-97630952D02*
X243145295Y-97583333D01*
X243145295Y-97583333D02*
X243240533Y-97583333D01*
X243240533Y-97583333D02*
X243383390Y-97630952D01*
X243383390Y-97630952D02*
X243954819Y-98202380D01*
X243954819Y-98202380D02*
X243954819Y-97583333D01*
X218633333Y-112573200D02*
X218833333Y-112639866D01*
X218833333Y-112639866D02*
X219166667Y-112639866D01*
X219166667Y-112639866D02*
X219300000Y-112573200D01*
X219300000Y-112573200D02*
X219366667Y-112506533D01*
X219366667Y-112506533D02*
X219433333Y-112373200D01*
X219433333Y-112373200D02*
X219433333Y-112239866D01*
X219433333Y-112239866D02*
X219366667Y-112106533D01*
X219366667Y-112106533D02*
X219300000Y-112039866D01*
X219300000Y-112039866D02*
X219166667Y-111973200D01*
X219166667Y-111973200D02*
X218900000Y-111906533D01*
X218900000Y-111906533D02*
X218766667Y-111839866D01*
X218766667Y-111839866D02*
X218700000Y-111773200D01*
X218700000Y-111773200D02*
X218633333Y-111639866D01*
X218633333Y-111639866D02*
X218633333Y-111506533D01*
X218633333Y-111506533D02*
X218700000Y-111373200D01*
X218700000Y-111373200D02*
X218766667Y-111306533D01*
X218766667Y-111306533D02*
X218900000Y-111239866D01*
X218900000Y-111239866D02*
X219233333Y-111239866D01*
X219233333Y-111239866D02*
X219433333Y-111306533D01*
X219900000Y-111239866D02*
X220233333Y-112639866D01*
X220233333Y-112639866D02*
X220500000Y-111639866D01*
X220500000Y-111639866D02*
X220766666Y-112639866D01*
X220766666Y-112639866D02*
X221100000Y-111239866D01*
X222366666Y-112639866D02*
X221566666Y-112639866D01*
X221966666Y-112639866D02*
X221966666Y-111239866D01*
X221966666Y-111239866D02*
X221833333Y-111439866D01*
X221833333Y-111439866D02*
X221700000Y-111573200D01*
X221700000Y-111573200D02*
X221566666Y-111639866D01*
D10*
X217491390Y-75931905D02*
X217491390Y-76265238D01*
X216967580Y-76408095D02*
X216967580Y-75931905D01*
X216967580Y-75931905D02*
X217967580Y-75931905D01*
X217967580Y-75931905D02*
X217967580Y-76408095D01*
X217015200Y-76789048D02*
X216967580Y-76931905D01*
X216967580Y-76931905D02*
X216967580Y-77170000D01*
X216967580Y-77170000D02*
X217015200Y-77265238D01*
X217015200Y-77265238D02*
X217062819Y-77312857D01*
X217062819Y-77312857D02*
X217158057Y-77360476D01*
X217158057Y-77360476D02*
X217253295Y-77360476D01*
X217253295Y-77360476D02*
X217348533Y-77312857D01*
X217348533Y-77312857D02*
X217396152Y-77265238D01*
X217396152Y-77265238D02*
X217443771Y-77170000D01*
X217443771Y-77170000D02*
X217491390Y-76979524D01*
X217491390Y-76979524D02*
X217539009Y-76884286D01*
X217539009Y-76884286D02*
X217586628Y-76836667D01*
X217586628Y-76836667D02*
X217681866Y-76789048D01*
X217681866Y-76789048D02*
X217777104Y-76789048D01*
X217777104Y-76789048D02*
X217872342Y-76836667D01*
X217872342Y-76836667D02*
X217919961Y-76884286D01*
X217919961Y-76884286D02*
X217967580Y-76979524D01*
X217967580Y-76979524D02*
X217967580Y-77217619D01*
X217967580Y-77217619D02*
X217919961Y-77360476D01*
X216967580Y-77789048D02*
X217967580Y-77789048D01*
X217967580Y-77789048D02*
X217967580Y-78170000D01*
X217967580Y-78170000D02*
X217919961Y-78265238D01*
X217919961Y-78265238D02*
X217872342Y-78312857D01*
X217872342Y-78312857D02*
X217777104Y-78360476D01*
X217777104Y-78360476D02*
X217634247Y-78360476D01*
X217634247Y-78360476D02*
X217539009Y-78312857D01*
X217539009Y-78312857D02*
X217491390Y-78265238D01*
X217491390Y-78265238D02*
X217443771Y-78170000D01*
X217443771Y-78170000D02*
X217443771Y-77789048D01*
X217967580Y-78693810D02*
X217967580Y-79312857D01*
X217967580Y-79312857D02*
X217586628Y-78979524D01*
X217586628Y-78979524D02*
X217586628Y-79122381D01*
X217586628Y-79122381D02*
X217539009Y-79217619D01*
X217539009Y-79217619D02*
X217491390Y-79265238D01*
X217491390Y-79265238D02*
X217396152Y-79312857D01*
X217396152Y-79312857D02*
X217158057Y-79312857D01*
X217158057Y-79312857D02*
X217062819Y-79265238D01*
X217062819Y-79265238D02*
X217015200Y-79217619D01*
X217015200Y-79217619D02*
X216967580Y-79122381D01*
X216967580Y-79122381D02*
X216967580Y-78836667D01*
X216967580Y-78836667D02*
X217015200Y-78741429D01*
X217015200Y-78741429D02*
X217062819Y-78693810D01*
X217872342Y-79693810D02*
X217919961Y-79741429D01*
X217919961Y-79741429D02*
X217967580Y-79836667D01*
X217967580Y-79836667D02*
X217967580Y-80074762D01*
X217967580Y-80074762D02*
X217919961Y-80170000D01*
X217919961Y-80170000D02*
X217872342Y-80217619D01*
X217872342Y-80217619D02*
X217777104Y-80265238D01*
X217777104Y-80265238D02*
X217681866Y-80265238D01*
X217681866Y-80265238D02*
X217539009Y-80217619D01*
X217539009Y-80217619D02*
X216967580Y-79646191D01*
X216967580Y-79646191D02*
X216967580Y-80265238D01*
X217348533Y-80693810D02*
X217348533Y-81455715D01*
X216967580Y-81931905D02*
X217967580Y-81931905D01*
X217967580Y-81931905D02*
X217967580Y-82170000D01*
X217967580Y-82170000D02*
X217919961Y-82312857D01*
X217919961Y-82312857D02*
X217824723Y-82408095D01*
X217824723Y-82408095D02*
X217729485Y-82455714D01*
X217729485Y-82455714D02*
X217539009Y-82503333D01*
X217539009Y-82503333D02*
X217396152Y-82503333D01*
X217396152Y-82503333D02*
X217205676Y-82455714D01*
X217205676Y-82455714D02*
X217110438Y-82408095D01*
X217110438Y-82408095D02*
X217015200Y-82312857D01*
X217015200Y-82312857D02*
X216967580Y-82170000D01*
X216967580Y-82170000D02*
X216967580Y-81931905D01*
X217491390Y-82931905D02*
X217491390Y-83265238D01*
X216967580Y-83408095D02*
X216967580Y-82931905D01*
X216967580Y-82931905D02*
X217967580Y-82931905D01*
X217967580Y-82931905D02*
X217967580Y-83408095D01*
X217967580Y-83693810D02*
X216967580Y-84027143D01*
X216967580Y-84027143D02*
X217967580Y-84360476D01*
X216967580Y-84693810D02*
X217967580Y-84693810D01*
X216967580Y-85265238D02*
X217539009Y-84836667D01*
X217967580Y-85265238D02*
X217396152Y-84693810D01*
X216967580Y-85693810D02*
X217967580Y-85693810D01*
X217967580Y-86027143D02*
X217967580Y-86598571D01*
X216967580Y-86312857D02*
X217967580Y-86312857D01*
X216967580Y-87455714D02*
X216967580Y-86884286D01*
X216967580Y-87170000D02*
X217967580Y-87170000D01*
X217967580Y-87170000D02*
X217824723Y-87074762D01*
X217824723Y-87074762D02*
X217729485Y-86979524D01*
X217729485Y-86979524D02*
X217681866Y-86884286D01*
D12*
X238209580Y-75499916D02*
X238257200Y-75547535D01*
X238257200Y-75547535D02*
X238304819Y-75690392D01*
X238304819Y-75690392D02*
X238304819Y-75785630D01*
X238304819Y-75785630D02*
X238257200Y-75928487D01*
X238257200Y-75928487D02*
X238161961Y-76023725D01*
X238161961Y-76023725D02*
X238066723Y-76071344D01*
X238066723Y-76071344D02*
X237876247Y-76118963D01*
X237876247Y-76118963D02*
X237733390Y-76118963D01*
X237733390Y-76118963D02*
X237542914Y-76071344D01*
X237542914Y-76071344D02*
X237447676Y-76023725D01*
X237447676Y-76023725D02*
X237352438Y-75928487D01*
X237352438Y-75928487D02*
X237304819Y-75785630D01*
X237304819Y-75785630D02*
X237304819Y-75690392D01*
X237304819Y-75690392D02*
X237352438Y-75547535D01*
X237352438Y-75547535D02*
X237400057Y-75499916D01*
X237400057Y-75118963D02*
X237352438Y-75071344D01*
X237352438Y-75071344D02*
X237304819Y-74976106D01*
X237304819Y-74976106D02*
X237304819Y-74738011D01*
X237304819Y-74738011D02*
X237352438Y-74642773D01*
X237352438Y-74642773D02*
X237400057Y-74595154D01*
X237400057Y-74595154D02*
X237495295Y-74547535D01*
X237495295Y-74547535D02*
X237590533Y-74547535D01*
X237590533Y-74547535D02*
X237733390Y-74595154D01*
X237733390Y-74595154D02*
X238304819Y-75166582D01*
X238304819Y-75166582D02*
X238304819Y-74547535D01*
X242954819Y-79083333D02*
X243669104Y-79083333D01*
X243669104Y-79083333D02*
X243811961Y-79130952D01*
X243811961Y-79130952D02*
X243907200Y-79226190D01*
X243907200Y-79226190D02*
X243954819Y-79369047D01*
X243954819Y-79369047D02*
X243954819Y-79464285D01*
X243288152Y-78178571D02*
X243954819Y-78178571D01*
X242907200Y-78416666D02*
X243621485Y-78654761D01*
X243621485Y-78654761D02*
X243621485Y-78035714D01*
X237640419Y-105577933D02*
X237592800Y-105530314D01*
X237592800Y-105530314D02*
X237545180Y-105387457D01*
X237545180Y-105387457D02*
X237545180Y-105292219D01*
X237545180Y-105292219D02*
X237592800Y-105149362D01*
X237592800Y-105149362D02*
X237688038Y-105054124D01*
X237688038Y-105054124D02*
X237783276Y-105006505D01*
X237783276Y-105006505D02*
X237973752Y-104958886D01*
X237973752Y-104958886D02*
X238116609Y-104958886D01*
X238116609Y-104958886D02*
X238307085Y-105006505D01*
X238307085Y-105006505D02*
X238402323Y-105054124D01*
X238402323Y-105054124D02*
X238497561Y-105149362D01*
X238497561Y-105149362D02*
X238545180Y-105292219D01*
X238545180Y-105292219D02*
X238545180Y-105387457D01*
X238545180Y-105387457D02*
X238497561Y-105530314D01*
X238497561Y-105530314D02*
X238449942Y-105577933D01*
X238545180Y-105911267D02*
X238545180Y-106577933D01*
X238545180Y-106577933D02*
X237545180Y-106149362D01*
D10*
X192907580Y-98433095D02*
X193907580Y-98433095D01*
X193907580Y-98433095D02*
X193193295Y-98766428D01*
X193193295Y-98766428D02*
X193907580Y-99099761D01*
X193907580Y-99099761D02*
X192907580Y-99099761D01*
X192907580Y-99575952D02*
X193907580Y-99575952D01*
X193907580Y-99575952D02*
X193907580Y-99956904D01*
X193907580Y-99956904D02*
X193859961Y-100052142D01*
X193859961Y-100052142D02*
X193812342Y-100099761D01*
X193812342Y-100099761D02*
X193717104Y-100147380D01*
X193717104Y-100147380D02*
X193574247Y-100147380D01*
X193574247Y-100147380D02*
X193479009Y-100099761D01*
X193479009Y-100099761D02*
X193431390Y-100052142D01*
X193431390Y-100052142D02*
X193383771Y-99956904D01*
X193383771Y-99956904D02*
X193383771Y-99575952D01*
X193907580Y-100575952D02*
X193098057Y-100575952D01*
X193098057Y-100575952D02*
X193002819Y-100623571D01*
X193002819Y-100623571D02*
X192955200Y-100671190D01*
X192955200Y-100671190D02*
X192907580Y-100766428D01*
X192907580Y-100766428D02*
X192907580Y-100956904D01*
X192907580Y-100956904D02*
X192955200Y-101052142D01*
X192955200Y-101052142D02*
X193002819Y-101099761D01*
X193002819Y-101099761D02*
X193098057Y-101147380D01*
X193098057Y-101147380D02*
X193907580Y-101147380D01*
X192907580Y-101671190D02*
X192907580Y-101861666D01*
X192907580Y-101861666D02*
X192955200Y-101956904D01*
X192955200Y-101956904D02*
X193002819Y-102004523D01*
X193002819Y-102004523D02*
X193145676Y-102099761D01*
X193145676Y-102099761D02*
X193336152Y-102147380D01*
X193336152Y-102147380D02*
X193717104Y-102147380D01*
X193717104Y-102147380D02*
X193812342Y-102099761D01*
X193812342Y-102099761D02*
X193859961Y-102052142D01*
X193859961Y-102052142D02*
X193907580Y-101956904D01*
X193907580Y-101956904D02*
X193907580Y-101766428D01*
X193907580Y-101766428D02*
X193859961Y-101671190D01*
X193859961Y-101671190D02*
X193812342Y-101623571D01*
X193812342Y-101623571D02*
X193717104Y-101575952D01*
X193717104Y-101575952D02*
X193479009Y-101575952D01*
X193479009Y-101575952D02*
X193383771Y-101623571D01*
X193383771Y-101623571D02*
X193336152Y-101671190D01*
X193336152Y-101671190D02*
X193288533Y-101766428D01*
X193288533Y-101766428D02*
X193288533Y-101956904D01*
X193288533Y-101956904D02*
X193336152Y-102052142D01*
X193336152Y-102052142D02*
X193383771Y-102099761D01*
X193383771Y-102099761D02*
X193479009Y-102147380D01*
X193812342Y-102528333D02*
X193859961Y-102575952D01*
X193859961Y-102575952D02*
X193907580Y-102671190D01*
X193907580Y-102671190D02*
X193907580Y-102909285D01*
X193907580Y-102909285D02*
X193859961Y-103004523D01*
X193859961Y-103004523D02*
X193812342Y-103052142D01*
X193812342Y-103052142D02*
X193717104Y-103099761D01*
X193717104Y-103099761D02*
X193621866Y-103099761D01*
X193621866Y-103099761D02*
X193479009Y-103052142D01*
X193479009Y-103052142D02*
X192907580Y-102480714D01*
X192907580Y-102480714D02*
X192907580Y-103099761D01*
X193907580Y-104004523D02*
X193907580Y-103528333D01*
X193907580Y-103528333D02*
X193431390Y-103480714D01*
X193431390Y-103480714D02*
X193479009Y-103528333D01*
X193479009Y-103528333D02*
X193526628Y-103623571D01*
X193526628Y-103623571D02*
X193526628Y-103861666D01*
X193526628Y-103861666D02*
X193479009Y-103956904D01*
X193479009Y-103956904D02*
X193431390Y-104004523D01*
X193431390Y-104004523D02*
X193336152Y-104052142D01*
X193336152Y-104052142D02*
X193098057Y-104052142D01*
X193098057Y-104052142D02*
X193002819Y-104004523D01*
X193002819Y-104004523D02*
X192955200Y-103956904D01*
X192955200Y-103956904D02*
X192907580Y-103861666D01*
X192907580Y-103861666D02*
X192907580Y-103623571D01*
X192907580Y-103623571D02*
X192955200Y-103528333D01*
X192955200Y-103528333D02*
X193002819Y-103480714D01*
X193907580Y-104671190D02*
X193907580Y-104766428D01*
X193907580Y-104766428D02*
X193859961Y-104861666D01*
X193859961Y-104861666D02*
X193812342Y-104909285D01*
X193812342Y-104909285D02*
X193717104Y-104956904D01*
X193717104Y-104956904D02*
X193526628Y-105004523D01*
X193526628Y-105004523D02*
X193288533Y-105004523D01*
X193288533Y-105004523D02*
X193098057Y-104956904D01*
X193098057Y-104956904D02*
X193002819Y-104909285D01*
X193002819Y-104909285D02*
X192955200Y-104861666D01*
X192955200Y-104861666D02*
X192907580Y-104766428D01*
X192907580Y-104766428D02*
X192907580Y-104671190D01*
X192907580Y-104671190D02*
X192955200Y-104575952D01*
X192955200Y-104575952D02*
X193002819Y-104528333D01*
X193002819Y-104528333D02*
X193098057Y-104480714D01*
X193098057Y-104480714D02*
X193288533Y-104433095D01*
X193288533Y-104433095D02*
X193526628Y-104433095D01*
X193526628Y-104433095D02*
X193717104Y-104480714D01*
X193717104Y-104480714D02*
X193812342Y-104528333D01*
X193812342Y-104528333D02*
X193859961Y-104575952D01*
X193859961Y-104575952D02*
X193907580Y-104671190D01*
D12*
X331916666Y-109154819D02*
X331916666Y-109869104D01*
X331916666Y-109869104D02*
X331869047Y-110011961D01*
X331869047Y-110011961D02*
X331773809Y-110107200D01*
X331773809Y-110107200D02*
X331630952Y-110154819D01*
X331630952Y-110154819D02*
X331535714Y-110154819D01*
X332916666Y-110154819D02*
X332345238Y-110154819D01*
X332630952Y-110154819D02*
X332630952Y-109154819D01*
X332630952Y-109154819D02*
X332535714Y-109297676D01*
X332535714Y-109297676D02*
X332440476Y-109392914D01*
X332440476Y-109392914D02*
X332345238Y-109440533D01*
D13*
%TO.C,C3*%
X237365000Y-90976750D02*
X238635000Y-90976750D01*
X238000000Y-91611750D02*
X238000000Y-90341750D01*
X242381500Y-85833250D02*
G75*
G02*
X233618500Y-85833250I-4381500J0D01*
G01*
X233618500Y-85833250D02*
G75*
G02*
X242381500Y-85833250I4381500J0D01*
G01*
D14*
%TO.C,J7*%
X195670000Y-66810000D02*
X195670000Y-56590000D01*
X198330000Y-56590000D02*
X195670000Y-56590000D01*
X198330000Y-66810000D02*
X195670000Y-66810000D01*
X198330000Y-66810000D02*
X198330000Y-56590000D01*
X198330000Y-68080000D02*
X198330000Y-69410000D01*
X198330000Y-69410000D02*
X197000000Y-69410000D01*
%TO.C,J6*%
X235130000Y-56170000D02*
X235130000Y-58830000D01*
X237730000Y-56170000D02*
X235130000Y-56170000D01*
X237730000Y-56170000D02*
X237730000Y-58830000D01*
X237730000Y-58830000D02*
X235130000Y-58830000D01*
X239000000Y-56170000D02*
X240330000Y-56170000D01*
X240330000Y-56170000D02*
X240330000Y-57500000D01*
%TO.C,J3*%
X244670000Y-81840000D02*
X246000000Y-81840000D01*
X244670000Y-83170000D02*
X244670000Y-81840000D01*
X244670000Y-84440000D02*
X244670000Y-89580000D01*
X244670000Y-84440000D02*
X247330000Y-84440000D01*
X244670000Y-89580000D02*
X247330000Y-89580000D01*
X247330000Y-84440000D02*
X247330000Y-89580000D01*
D13*
%TO.C,C4*%
X237365000Y-69976750D02*
X238635000Y-69976750D01*
X238000000Y-70611750D02*
X238000000Y-69341750D01*
X242381500Y-64833250D02*
G75*
G02*
X233618500Y-64833250I-4381500J0D01*
G01*
X233618500Y-64833250D02*
G75*
G02*
X242381500Y-64833250I4381500J0D01*
G01*
D14*
%TO.C,J5*%
X244670000Y-61840000D02*
X246000000Y-61840000D01*
X244670000Y-63170000D02*
X244670000Y-61840000D01*
X244670000Y-64440000D02*
X244670000Y-69580000D01*
X244670000Y-64440000D02*
X247330000Y-64440000D01*
X244670000Y-69580000D02*
X247330000Y-69580000D01*
X247330000Y-64440000D02*
X247330000Y-69580000D01*
%TO.C,J8*%
X195670000Y-82230000D02*
X195670000Y-72010000D01*
X198330000Y-72010000D02*
X195670000Y-72010000D01*
X198330000Y-82230000D02*
X195670000Y-82230000D01*
X198330000Y-82230000D02*
X198330000Y-72010000D01*
X198330000Y-83500000D02*
X198330000Y-84830000D01*
X198330000Y-84830000D02*
X197000000Y-84830000D01*
%TO.C,U1*%
X240590000Y-103090000D02*
X241850000Y-103090000D01*
X240590000Y-106850000D02*
X240590000Y-103090000D01*
X247410000Y-103090000D02*
X246150000Y-103090000D01*
X247410000Y-106850000D02*
X247410000Y-103090000D01*
X240690000Y-108130000D02*
X240360000Y-108370000D01*
X240360000Y-107890000D01*
X240690000Y-108130000D01*
G36*
X240690000Y-108130000D02*
G01*
X240360000Y-108370000D01*
X240360000Y-107890000D01*
X240690000Y-108130000D01*
G37*
D13*
%TO.C,C1*%
X237365000Y-101476750D02*
X238635000Y-101476750D01*
X238000000Y-102111750D02*
X238000000Y-100841750D01*
X242381500Y-96333250D02*
G75*
G02*
X233618500Y-96333250I-4381500J0D01*
G01*
X233618500Y-96333250D02*
G75*
G02*
X242381500Y-96333250I4381500J0D01*
G01*
%TO.C,C6*%
X230865000Y-115141600D02*
X232135000Y-115141600D01*
X231500000Y-115776600D02*
X231500000Y-114506600D01*
X234382900Y-111496700D02*
G75*
G02*
X228617100Y-111496700I-2882900J0D01*
G01*
X228617100Y-111496700D02*
G75*
G02*
X234382900Y-111496700I2882900J0D01*
G01*
D14*
%TO.C,J2*%
X244670000Y-91840000D02*
X246000000Y-91840000D01*
X244670000Y-93170000D02*
X244670000Y-91840000D01*
X244670000Y-94440000D02*
X244670000Y-99580000D01*
X244670000Y-94440000D02*
X247330000Y-94440000D01*
X244670000Y-99580000D02*
X247330000Y-99580000D01*
X247330000Y-94440000D02*
X247330000Y-99580000D01*
D15*
%TO.C,SW1*%
X215550000Y-110020000D02*
X225450000Y-110020000D01*
X215550000Y-113980000D02*
X215550000Y-110020000D01*
X225450000Y-110020000D02*
X225450000Y-113980000D01*
X225450000Y-113980000D02*
X215550000Y-113980000D01*
D16*
X214800000Y-112000000D02*
G75*
G02*
X214600000Y-112000000I-100000J0D01*
G01*
X214600000Y-112000000D02*
G75*
G02*
X214800000Y-112000000I100000J0D01*
G01*
D14*
%TO.C,ESP32-DEVKIT1*%
X203395000Y-66430000D02*
X203395000Y-102050000D01*
X203395000Y-66430000D02*
X206055000Y-66430000D01*
X203395000Y-102050000D02*
X206055000Y-102050000D01*
X204725000Y-63830000D02*
X206055000Y-63830000D01*
X206055000Y-63830000D02*
X206055000Y-65160000D01*
X206055000Y-66430000D02*
X206055000Y-102050000D01*
X228795000Y-66430000D02*
X228795000Y-102050000D01*
X228795000Y-66430000D02*
X231455000Y-66430000D01*
X228795000Y-102050000D02*
X231455000Y-102050000D01*
X230125000Y-63830000D02*
X231455000Y-63830000D01*
X231455000Y-63830000D02*
X231455000Y-65160000D01*
X231455000Y-66430000D02*
X231455000Y-102050000D01*
D16*
X203175000Y-55670000D02*
X231675000Y-55670000D01*
X231675000Y-107670000D01*
X203175000Y-107670000D01*
X203175000Y-55670000D01*
D13*
%TO.C,C2*%
X237215000Y-80476750D02*
X238485000Y-80476750D01*
X237850000Y-81111750D02*
X237850000Y-79841750D01*
X242231500Y-75333250D02*
G75*
G02*
X233468500Y-75333250I-4381500J0D01*
G01*
X233468500Y-75333250D02*
G75*
G02*
X242231500Y-75333250I4381500J0D01*
G01*
D14*
%TO.C,J4*%
X244670000Y-71840000D02*
X246000000Y-71840000D01*
X244670000Y-73170000D02*
X244670000Y-71840000D01*
X244670000Y-74440000D02*
X244670000Y-79580000D01*
X244670000Y-74440000D02*
X247330000Y-74440000D01*
X244670000Y-79580000D02*
X247330000Y-79580000D01*
X247330000Y-74440000D02*
X247330000Y-79580000D01*
D13*
%TO.C,C7*%
X236000000Y-100817000D02*
X236000000Y-102087000D01*
X236635000Y-101452000D02*
X235365000Y-101452000D01*
X239530600Y-105744600D02*
G75*
G02*
X232469400Y-105744600I-3530600J0D01*
G01*
X232469400Y-105744600D02*
G75*
G02*
X239530600Y-105744600I3530600J0D01*
G01*
D14*
%TO.C,MPU9250*%
X198445000Y-111850000D02*
X198445000Y-88930000D01*
X201105000Y-88930000D02*
X198445000Y-88930000D01*
X201105000Y-111850000D02*
X198445000Y-111850000D01*
X201105000Y-111850000D02*
X201105000Y-88930000D01*
X201105000Y-113120000D02*
X201105000Y-114450000D01*
X201105000Y-114450000D02*
X199775000Y-114450000D01*
D16*
X185615000Y-114645000D02*
X201115000Y-114645000D01*
X201115000Y-88745000D01*
X185615000Y-88745000D01*
X185615000Y-114645000D01*
D14*
%TO.C,J1*%
X205150000Y-109250000D02*
X205150000Y-110500000D01*
X205440000Y-109540000D02*
X205440000Y-115510000D01*
X205440000Y-115510000D02*
X213060000Y-115510000D01*
X205450000Y-109550000D02*
X205450000Y-110300000D01*
X205450000Y-110300000D02*
X207250000Y-110300000D01*
X205450000Y-111800000D02*
X206200000Y-111800000D01*
X206200000Y-111800000D02*
X206200000Y-114750000D01*
X206200000Y-114750000D02*
X209250000Y-114750000D01*
X206400000Y-109250000D02*
X205150000Y-109250000D01*
X207250000Y-109550000D02*
X205450000Y-109550000D01*
X207250000Y-110300000D02*
X207250000Y-109550000D01*
X208750000Y-109550000D02*
X208750000Y-110300000D01*
X208750000Y-110300000D02*
X209750000Y-110300000D01*
X209750000Y-109550000D02*
X208750000Y-109550000D01*
X209750000Y-110300000D02*
X209750000Y-109550000D01*
X211250000Y-109550000D02*
X211250000Y-110300000D01*
X211250000Y-110300000D02*
X213050000Y-110300000D01*
X212300000Y-111800000D02*
X212300000Y-114750000D01*
X212300000Y-114750000D02*
X209250000Y-114750000D01*
X213050000Y-109550000D02*
X211250000Y-109550000D01*
X213050000Y-110300000D02*
X213050000Y-109550000D01*
X213050000Y-111800000D02*
X212300000Y-111800000D01*
X213060000Y-109540000D02*
X205440000Y-109540000D01*
X213060000Y-115510000D02*
X213060000Y-109540000D01*
%TD*%
M02*
