M48
METRIC
T1C0.300
T2C0.813
T3C0.864
T4C1.000
%
G90
G05
T1
X237.0Y-112.5
T2
X231.5Y-110.493
X231.5Y-112.5
X236.0Y-104.5
X236.0Y-106.989
T3
X237.85Y-73.583
X237.85Y-77.083
X238.0Y-63.083
X238.0Y-66.583
X238.0Y-84.083
X238.0Y-87.583
X238.0Y-94.583
X238.0Y-98.083
T4
X197.0Y-57.92
X197.0Y-60.46
X197.0Y-63.0
X197.0Y-65.54
X197.0Y-68.08
X197.0Y-73.34
X197.0Y-75.88
X197.0Y-78.42
X197.0Y-80.96
X197.0Y-83.5
X199.775Y-90.26
X199.775Y-92.8
X199.775Y-95.34
X199.775Y-97.88
X199.775Y-100.42
X199.775Y-102.96
X199.775Y-105.5
X199.775Y-108.04
X199.775Y-110.58
X199.775Y-113.12
X204.725Y-65.16
X204.725Y-67.7
X204.725Y-70.24
X204.725Y-72.78
X204.725Y-75.32
X204.725Y-77.86
X204.725Y-80.4
X204.725Y-82.94
X204.725Y-85.48
X204.725Y-88.02
X204.725Y-90.56
X204.725Y-93.1
X204.725Y-95.64
X204.725Y-98.18
X204.725Y-100.72
X208.0Y-112.0
X210.5Y-112.0
X216.69Y-112.0
X224.31Y-112.0
X230.125Y-65.16
X230.125Y-67.7
X230.125Y-70.24
X230.125Y-72.78
X230.125Y-75.32
X230.125Y-77.86
X230.125Y-80.4
X230.125Y-82.94
X230.125Y-85.48
X230.125Y-88.02
X230.125Y-90.56
X230.125Y-93.1
X230.125Y-95.64
X230.125Y-98.18
X230.125Y-100.72
X236.46Y-57.5
X239.0Y-57.5
X246.0Y-63.17
X246.0Y-65.71
X246.0Y-68.25
X246.0Y-73.17
X246.0Y-75.71
X246.0Y-78.25
X246.0Y-83.17
X246.0Y-85.71
X246.0Y-88.25
X246.0Y-93.17
X246.0Y-95.71
X246.0Y-98.25
M30
