%TF.GenerationSoftware,KiCad,Pcbnew,9.0.0*%
%TF.CreationDate,2025-04-27T01:10:23+09:00*%
%TF.ProjectId,PCB,5043422e-6b69-4636-9164-5f7063625858,rev?*%
%TF.SameCoordinates,Original*%
%TF.FileFunction,Copper,L1,Top*%
%TF.FilePolarity,Positive*%
%FSLAX46Y46*%
G04 Gerber Fmt 4.6, Leading zero omitted, Abs format (unit mm)*
G04 Created by KiCad (PCBNEW 9.0.0) date 2025-04-27 01:10:23*
%MOMM*%
%LPD*%
G01*
G04 APERTURE LIST*
G04 Aperture macros list*
%AMRoundRect*
0 Rectangle with rounded corners*
0 $1 Rounding radius*
0 $2 $3 $4 $5 $6 $7 $8 $9 X,Y pos of 4 corners*
0 Add a 4 corners polygon primitive as box body*
4,1,4,$2,$3,$4,$5,$6,$7,$8,$9,$2,$3,0*
0 Add four circle primitives for the rounded corners*
1,1,$1+$1,$2,$3*
1,1,$1+$1,$4,$5*
1,1,$1+$1,$6,$7*
1,1,$1+$1,$8,$9*
0 Add four rect primitives between the rounded corners*
20,1,$1+$1,$2,$3,$4,$5,0*
20,1,$1+$1,$4,$5,$6,$7,0*
20,1,$1+$1,$6,$7,$8,$9,0*
20,1,$1+$1,$8,$9,$2,$3,0*%
G04 Aperture macros list end*
%TA.AperFunction,ComponentPad*%
%ADD10C,1.371600*%
%TD*%
%TA.AperFunction,ComponentPad*%
%ADD11R,1.700000X1.700000*%
%TD*%
%TA.AperFunction,ComponentPad*%
%ADD12O,1.700000X1.700000*%
%TD*%
%TA.AperFunction,SMDPad,CuDef*%
%ADD13RoundRect,0.375000X0.375000X-0.625000X0.375000X0.625000X-0.375000X0.625000X-0.375000X-0.625000X0*%
%TD*%
%TA.AperFunction,SMDPad,CuDef*%
%ADD14RoundRect,0.500000X1.400000X-0.500000X1.400000X0.500000X-1.400000X0.500000X-1.400000X-0.500000X0*%
%TD*%
%TA.AperFunction,ComponentPad*%
%ADD15R,1.320800X1.320800*%
%TD*%
%TA.AperFunction,ComponentPad*%
%ADD16C,1.320800*%
%TD*%
%TA.AperFunction,ComponentPad*%
%ADD17R,1.580000X1.580000*%
%TD*%
%TA.AperFunction,ComponentPad*%
%ADD18C,1.580000*%
%TD*%
%TA.AperFunction,ComponentPad*%
%ADD19RoundRect,0.250000X-0.600000X-0.750000X0.600000X-0.750000X0.600000X0.750000X-0.600000X0.750000X0*%
%TD*%
%TA.AperFunction,ComponentPad*%
%ADD20O,1.700000X2.000000*%
%TD*%
%TA.AperFunction,ViaPad*%
%ADD21C,0.600000*%
%TD*%
%TA.AperFunction,Conductor*%
%ADD22C,0.127000*%
%TD*%
%TA.AperFunction,Conductor*%
%ADD23C,0.800000*%
%TD*%
G04 APERTURE END LIST*
D10*
%TO.P,C3,1*%
%TO.N,/+5V*%
X238000000Y-87583250D03*
%TO.P,C3,2*%
%TO.N,/GND*%
X238000000Y-84083249D03*
%TD*%
D11*
%TO.P,J7,1,Pin_1*%
%TO.N,Net-(ESP32-DEVKIT1-D5)*%
X197000000Y-68080000D03*
D12*
%TO.P,J7,2,Pin_2*%
%TO.N,Net-(ESP32-DEVKIT1-TX2)*%
X197000000Y-65540000D03*
%TO.P,J7,3,Pin_3*%
%TO.N,Net-(ESP32-DEVKIT1-RX2)*%
X197000000Y-63000000D03*
%TO.P,J7,4,Pin_4*%
%TO.N,Net-(ESP32-DEVKIT1-D4)*%
X197000000Y-60460000D03*
%TO.P,J7,5,Pin_5*%
%TO.N,Net-(ESP32-DEVKIT1-D2)*%
X197000000Y-57920000D03*
%TD*%
D11*
%TO.P,J6,1,Pin_1*%
%TO.N,/GND*%
X239000000Y-57500000D03*
D12*
%TO.P,J6,2,Pin_2*%
%TO.N,Net-(ESP32-DEVKIT1-D33)*%
X236460000Y-57500000D03*
%TD*%
D11*
%TO.P,J3,1,Pin_1*%
%TO.N,/GND*%
X246000000Y-83170000D03*
D12*
%TO.P,J3,2,Pin_2*%
%TO.N,/+5V*%
X246000000Y-85710000D03*
%TO.P,J3,3,Pin_3*%
%TO.N,Net-(ESP32-DEVKIT1-D26)*%
X246000000Y-88250000D03*
%TD*%
D10*
%TO.P,C4,1*%
%TO.N,/+5V*%
X238000000Y-66583250D03*
%TO.P,C4,2*%
%TO.N,/GND*%
X238000000Y-63083249D03*
%TD*%
D11*
%TO.P,J5,1,Pin_1*%
%TO.N,/GND*%
X246000000Y-63170000D03*
D12*
%TO.P,J5,2,Pin_2*%
%TO.N,/+5V*%
X246000000Y-65710000D03*
%TO.P,J5,3,Pin_3*%
%TO.N,Net-(ESP32-DEVKIT1-D14)*%
X246000000Y-68250000D03*
%TD*%
D11*
%TO.P,J8,1,Pin_1*%
%TO.N,/GND*%
X197000000Y-83500000D03*
D12*
%TO.P,J8,2,Pin_2*%
%TO.N,/+3.3V*%
X197000000Y-80960000D03*
%TO.P,J8,3,Pin_3*%
%TO.N,Net-(ESP32-DEVKIT1-D23)*%
X197000000Y-78420000D03*
%TO.P,J8,4,Pin_4*%
%TO.N,Net-(ESP32-DEVKIT1-D19)*%
X197000000Y-75880000D03*
%TO.P,J8,5,Pin_5*%
%TO.N,Net-(ESP32-DEVKIT1-D18)*%
X197000000Y-73340000D03*
%TD*%
D13*
%TO.P,U1,1,GND*%
%TO.N,/GND*%
X241700000Y-108150000D03*
%TO.P,U1,2,VO*%
%TO.N,/+5V*%
X244000000Y-108150000D03*
D14*
X244000000Y-101850000D03*
D13*
%TO.P,U1,3,VI*%
%TO.N,/+9V*%
X246300000Y-108150000D03*
%TD*%
D10*
%TO.P,C1,1*%
%TO.N,/+5V*%
X238000000Y-98083250D03*
%TO.P,C1,2*%
%TO.N,/GND*%
X238000000Y-94583249D03*
%TD*%
D15*
%TO.P,C6,1*%
%TO.N,/+9V*%
X231500000Y-112500000D03*
D16*
%TO.P,C6,2*%
%TO.N,/GND*%
X231500000Y-110493400D03*
%TD*%
D11*
%TO.P,J2,1,Pin_1*%
%TO.N,/GND*%
X246000000Y-93170000D03*
D12*
%TO.P,J2,2,Pin_2*%
%TO.N,/+5V*%
X246000000Y-95710000D03*
%TO.P,J2,3,Pin_3*%
%TO.N,Net-(ESP32-DEVKIT1-D25)*%
X246000000Y-98250000D03*
%TD*%
D17*
%TO.P,SW1,1A*%
%TO.N,/+9V*%
X216690000Y-112000000D03*
D18*
%TO.P,SW1,1B*%
X224310000Y-112000000D03*
%TD*%
D11*
%TO.P,ESP32-DEVKIT1,1,3v3*%
%TO.N,/+3.3V*%
X204725000Y-65160000D03*
D12*
%TO.P,ESP32-DEVKIT1,2,GND*%
%TO.N,/GND*%
X204725000Y-67700000D03*
%TO.P,ESP32-DEVKIT1,3,D15*%
%TO.N,unconnected-(ESP32-DEVKIT1-D15-Pad3)*%
X204725000Y-70240000D03*
%TO.P,ESP32-DEVKIT1,4,D2*%
%TO.N,Net-(ESP32-DEVKIT1-D2)*%
X204725000Y-72780000D03*
%TO.P,ESP32-DEVKIT1,5,D4*%
%TO.N,Net-(ESP32-DEVKIT1-D4)*%
X204725000Y-75320000D03*
%TO.P,ESP32-DEVKIT1,6,RX2*%
%TO.N,Net-(ESP32-DEVKIT1-RX2)*%
X204725000Y-77860000D03*
%TO.P,ESP32-DEVKIT1,7,TX2*%
%TO.N,Net-(ESP32-DEVKIT1-TX2)*%
X204725000Y-80400000D03*
%TO.P,ESP32-DEVKIT1,8,D5*%
%TO.N,Net-(ESP32-DEVKIT1-D5)*%
X204725000Y-82940000D03*
%TO.P,ESP32-DEVKIT1,9,D18*%
%TO.N,Net-(ESP32-DEVKIT1-D18)*%
X204725000Y-85480000D03*
%TO.P,ESP32-DEVKIT1,10,D19*%
%TO.N,Net-(ESP32-DEVKIT1-D19)*%
X204725000Y-88020000D03*
%TO.P,ESP32-DEVKIT1,11,D21*%
%TO.N,Net-(ESP32-DEVKIT1-D21)*%
X204725000Y-90560000D03*
%TO.P,ESP32-DEVKIT1,12,RX0*%
%TO.N,unconnected-(ESP32-DEVKIT1-RX0-Pad12)*%
X204725000Y-93100000D03*
%TO.P,ESP32-DEVKIT1,13,TX0*%
%TO.N,unconnected-(ESP32-DEVKIT1-TX0-Pad13)*%
X204725000Y-95640000D03*
%TO.P,ESP32-DEVKIT1,14,D22*%
%TO.N,Net-(ESP32-DEVKIT1-D22)*%
X204725000Y-98180000D03*
%TO.P,ESP32-DEVKIT1,15,D23*%
%TO.N,Net-(ESP32-DEVKIT1-D23)*%
X204725000Y-100720000D03*
D11*
%TO.P,ESP32-DEVKIT1,16,VIN*%
%TO.N,/+5V*%
X230125000Y-65160000D03*
D12*
%TO.P,ESP32-DEVKIT1,17,GND*%
%TO.N,/GND*%
X230125000Y-67700000D03*
%TO.P,ESP32-DEVKIT1,18,D13*%
%TO.N,unconnected-(ESP32-DEVKIT1-D13-Pad18)*%
X230125000Y-70240000D03*
%TO.P,ESP32-DEVKIT1,19,D12*%
%TO.N,unconnected-(ESP32-DEVKIT1-D12-Pad19)*%
X230125000Y-72780000D03*
%TO.P,ESP32-DEVKIT1,20,D14*%
%TO.N,Net-(ESP32-DEVKIT1-D14)*%
X230125000Y-75320000D03*
%TO.P,ESP32-DEVKIT1,21,D27*%
%TO.N,Net-(ESP32-DEVKIT1-D27)*%
X230125000Y-77860000D03*
%TO.P,ESP32-DEVKIT1,22,D26*%
%TO.N,Net-(ESP32-DEVKIT1-D26)*%
X230125000Y-80400000D03*
%TO.P,ESP32-DEVKIT1,23,D25*%
%TO.N,Net-(ESP32-DEVKIT1-D25)*%
X230125000Y-82940000D03*
%TO.P,ESP32-DEVKIT1,24,D33*%
%TO.N,Net-(ESP32-DEVKIT1-D33)*%
X230125000Y-85480000D03*
%TO.P,ESP32-DEVKIT1,25,D32*%
%TO.N,unconnected-(ESP32-DEVKIT1-D32-Pad25)*%
X230125000Y-88020000D03*
%TO.P,ESP32-DEVKIT1,26,D35*%
%TO.N,unconnected-(ESP32-DEVKIT1-D35-Pad26)*%
X230125000Y-90560000D03*
%TO.P,ESP32-DEVKIT1,27,D34*%
%TO.N,unconnected-(ESP32-DEVKIT1-D34-Pad27)*%
X230125000Y-93100000D03*
%TO.P,ESP32-DEVKIT1,28,VN*%
%TO.N,unconnected-(ESP32-DEVKIT1-VN-Pad28)*%
X230125000Y-95640000D03*
%TO.P,ESP32-DEVKIT1,29,VP*%
%TO.N,unconnected-(ESP32-DEVKIT1-VP-Pad29)*%
X230125000Y-98180000D03*
%TO.P,ESP32-DEVKIT1,30,EN*%
%TO.N,unconnected-(ESP32-DEVKIT1-EN-Pad30)*%
X230125000Y-100720000D03*
%TD*%
D10*
%TO.P,C2,1*%
%TO.N,/+5V*%
X237850000Y-77083250D03*
%TO.P,C2,2*%
%TO.N,/GND*%
X237850000Y-73583249D03*
%TD*%
D11*
%TO.P,J4,1,Pin_1*%
%TO.N,/GND*%
X246000000Y-73170000D03*
D12*
%TO.P,J4,2,Pin_2*%
%TO.N,/+5V*%
X246000000Y-75710000D03*
%TO.P,J4,3,Pin_3*%
%TO.N,Net-(ESP32-DEVKIT1-D27)*%
X246000000Y-78250000D03*
%TD*%
D15*
%TO.P,C7,1*%
%TO.N,/+5V*%
X236000000Y-104500000D03*
D16*
%TO.P,C7,2*%
%TO.N,/GND*%
X236000000Y-106989200D03*
%TD*%
D11*
%TO.P,MPU9250,1,VCC*%
%TO.N,/+3.3V*%
X199775000Y-113120000D03*
D12*
%TO.P,MPU9250,2,GND*%
%TO.N,/GND*%
X199775000Y-110580000D03*
%TO.P,MPU9250,3,SCL*%
%TO.N,Net-(ESP32-DEVKIT1-D22)*%
X199775000Y-108040000D03*
%TO.P,MPU9250,4,SDA*%
%TO.N,Net-(ESP32-DEVKIT1-D21)*%
X199775000Y-105500000D03*
%TO.P,MPU9250,5,EDA*%
%TO.N,unconnected-(MPU9250-EDA-Pad5)*%
X199775000Y-102960000D03*
%TO.P,MPU9250,6,ECL*%
%TO.N,unconnected-(MPU9250-ECL-Pad6)*%
X199775000Y-100420000D03*
%TO.P,MPU9250,7,ADO*%
%TO.N,unconnected-(MPU9250-ADO-Pad7)*%
X199775000Y-97880000D03*
%TO.P,MPU9250,8,INT*%
%TO.N,unconnected-(MPU9250-INT-Pad8)*%
X199775000Y-95340000D03*
%TO.P,MPU9250,9,NCS*%
%TO.N,unconnected-(MPU9250-NCS-Pad9)*%
X199775000Y-92800000D03*
%TO.P,MPU9250,10,FSYNC*%
%TO.N,/GND*%
X199775000Y-90260000D03*
%TD*%
D19*
%TO.P,J1,1,1*%
%TO.N,/GND*%
X208000000Y-112000000D03*
D20*
%TO.P,J1,2,2*%
%TO.N,/+9V*%
X210500000Y-112000000D03*
%TD*%
D21*
%TO.N,/+9V*%
X237000000Y-112500000D03*
%TD*%
D22*
%TO.N,/GND*%
X199775000Y-111225000D02*
X200000000Y-111000000D01*
X199775000Y-111385000D02*
X199775000Y-111225000D01*
%TO.N,Net-(ESP32-DEVKIT1-D21)*%
X202000000Y-103275000D02*
X202000000Y-93285000D01*
X199775000Y-105500000D02*
X202000000Y-103275000D01*
X202000000Y-93285000D02*
X204725000Y-90560000D01*
%TO.N,Net-(ESP32-DEVKIT1-D33)*%
X230020000Y-85480000D02*
X230000000Y-85500000D01*
X230125000Y-85480000D02*
X230020000Y-85480000D01*
%TO.N,Net-(ESP32-DEVKIT1-D22)*%
X199775000Y-108040000D02*
X202500000Y-105315000D01*
X202500000Y-105315000D02*
X202500000Y-100405000D01*
X202500000Y-100405000D02*
X204725000Y-98180000D01*
D23*
%TO.N,/+5V*%
X244000000Y-101850000D02*
X243500000Y-101850000D01*
X241500000Y-90000000D02*
X241500000Y-82000000D01*
X244000000Y-101850000D02*
X238650000Y-101850000D01*
X237850000Y-77083250D02*
X241500000Y-80733250D01*
X244000000Y-101850000D02*
X241766750Y-101850000D01*
D22*
X236500000Y-104500000D02*
X238650000Y-102350000D01*
D23*
X244000000Y-101850000D02*
X241500000Y-99350000D01*
X244000000Y-97710000D02*
X244000000Y-101850000D01*
X241500000Y-99350000D02*
X241500000Y-91083250D01*
X241500000Y-80210000D02*
X241500000Y-80733250D01*
X241500000Y-80733250D02*
X241500000Y-82000000D01*
X246000000Y-95710000D02*
X244000000Y-97710000D01*
X238000000Y-66583250D02*
X241500000Y-70083250D01*
D22*
X236000000Y-104500000D02*
X236500000Y-104500000D01*
D23*
X238000000Y-98083250D02*
X238000000Y-98000000D01*
X244000000Y-101850000D02*
X244000000Y-108150000D01*
X241500000Y-91083250D02*
X238000000Y-87583250D01*
X241500000Y-71000000D02*
X241500000Y-73000000D01*
D22*
X243325000Y-101675000D02*
X243000000Y-101350000D01*
D23*
X246000000Y-85710000D02*
X241500000Y-90210000D01*
X246000000Y-65710000D02*
X241500000Y-70210000D01*
X241500000Y-91083250D02*
X241500000Y-90000000D01*
X241500000Y-90210000D02*
X241500000Y-91083250D01*
X241500000Y-82000000D02*
X241500000Y-78500000D01*
X241500000Y-70210000D02*
X241500000Y-71000000D01*
X241766750Y-101850000D02*
X238000000Y-98083250D01*
X241500000Y-78500000D02*
X241500000Y-73000000D01*
X238650000Y-101850000D02*
X236000000Y-104500000D01*
D22*
X242266750Y-102350000D02*
X244000000Y-102350000D01*
D23*
X246000000Y-75710000D02*
X241500000Y-80210000D01*
X238659999Y-65160000D02*
X241500000Y-68000001D01*
X230125000Y-65160000D02*
X238659999Y-65160000D01*
X241500000Y-73000000D02*
X241500000Y-68000001D01*
X241500000Y-70083250D02*
X241500000Y-71000000D01*
X241500000Y-89000001D02*
X241500000Y-90000000D01*
D22*
X244000000Y-102350000D02*
X243325000Y-101675000D01*
D23*
%TO.N,/+9V*%
X237000000Y-112500000D02*
X242171694Y-112500000D01*
X242171694Y-112500000D02*
X246300000Y-108371694D01*
X246300000Y-108700000D02*
X246300000Y-108650000D01*
X246300000Y-108371694D02*
X246300000Y-108150000D01*
D22*
%TO.N,/+3.3V*%
X204725000Y-65160000D02*
X205660000Y-65160000D01*
X203340000Y-65160000D02*
X201000000Y-67500000D01*
X205660000Y-65160000D02*
X207500000Y-67000000D01*
X201000000Y-76960000D02*
X197000000Y-80960000D01*
X207500000Y-105395000D02*
X199775000Y-113120000D01*
X201000000Y-67500000D02*
X201000000Y-76960000D01*
X204725000Y-65160000D02*
X203340000Y-65160000D01*
X207500000Y-67000000D02*
X207500000Y-105395000D01*
%TD*%
%TA.AperFunction,Conductor*%
%TO.N,/GND*%
G36*
X206058834Y-66363554D02*
G01*
X206087090Y-66384706D01*
X206899681Y-67197297D01*
X206933166Y-67258620D01*
X206936000Y-67284978D01*
X206936000Y-105110021D01*
X206916315Y-105177060D01*
X206899681Y-105197702D01*
X201273160Y-110824221D01*
X201211837Y-110857706D01*
X201142145Y-110852722D01*
X201109669Y-110830000D01*
X200208012Y-110830000D01*
X200240925Y-110772993D01*
X200275000Y-110645826D01*
X200275000Y-110514174D01*
X200240925Y-110387007D01*
X200208012Y-110330000D01*
X201102231Y-110330000D01*
X201091757Y-110263873D01*
X201091757Y-110263870D01*
X201026095Y-110061782D01*
X200929620Y-109872442D01*
X200804727Y-109700540D01*
X200804723Y-109700535D01*
X200654464Y-109550276D01*
X200654459Y-109550272D01*
X200482555Y-109425377D01*
X200473500Y-109420763D01*
X200422706Y-109372788D01*
X200405912Y-109304966D01*
X200428451Y-109238832D01*
X200473508Y-109199793D01*
X200482816Y-109195051D01*
X200637030Y-109083009D01*
X200654786Y-109070109D01*
X200654788Y-109070106D01*
X200654792Y-109070104D01*
X200805104Y-108919792D01*
X200805106Y-108919788D01*
X200805109Y-108919786D01*
X200930048Y-108747820D01*
X200930047Y-108747820D01*
X200930051Y-108747816D01*
X201026557Y-108558412D01*
X201092246Y-108356243D01*
X201125500Y-108146287D01*
X201125500Y-107933713D01*
X201092246Y-107723757D01*
X201065847Y-107642513D01*
X201063853Y-107572675D01*
X201096096Y-107516518D01*
X202836094Y-105776521D01*
X202836099Y-105776517D01*
X202846302Y-105766313D01*
X202846304Y-105766313D01*
X202951313Y-105661304D01*
X203025565Y-105532696D01*
X203029517Y-105517946D01*
X203064000Y-105389253D01*
X203064000Y-105240747D01*
X203064000Y-100689977D01*
X203072644Y-100660536D01*
X203079168Y-100630550D01*
X203082922Y-100625534D01*
X203083685Y-100622938D01*
X203100315Y-100602300D01*
X203162820Y-100539795D01*
X203224142Y-100506311D01*
X203293834Y-100511295D01*
X203349767Y-100553167D01*
X203374184Y-100618631D01*
X203374500Y-100627477D01*
X203374500Y-100826286D01*
X203404871Y-101018045D01*
X203407754Y-101036243D01*
X203452053Y-101172582D01*
X203473444Y-101238414D01*
X203569951Y-101427820D01*
X203694890Y-101599786D01*
X203845213Y-101750109D01*
X204017179Y-101875048D01*
X204017181Y-101875049D01*
X204017184Y-101875051D01*
X204206588Y-101971557D01*
X204408757Y-102037246D01*
X204618713Y-102070500D01*
X204618714Y-102070500D01*
X204831286Y-102070500D01*
X204831287Y-102070500D01*
X205041243Y-102037246D01*
X205243412Y-101971557D01*
X205432816Y-101875051D01*
X205535447Y-101800486D01*
X205604786Y-101750109D01*
X205604788Y-101750106D01*
X205604792Y-101750104D01*
X205755104Y-101599792D01*
X205755106Y-101599788D01*
X205755109Y-101599786D01*
X205880048Y-101427820D01*
X205880047Y-101427820D01*
X205880051Y-101427816D01*
X205976557Y-101238412D01*
X206042246Y-101036243D01*
X206075500Y-100826287D01*
X206075500Y-100613713D01*
X206042246Y-100403757D01*
X205976557Y-100201588D01*
X205880051Y-100012184D01*
X205880049Y-100012181D01*
X205880048Y-100012179D01*
X205755109Y-99840213D01*
X205604786Y-99689890D01*
X205432820Y-99564951D01*
X205432115Y-99564591D01*
X205424054Y-99560485D01*
X205373259Y-99512512D01*
X205356463Y-99444692D01*
X205378999Y-99378556D01*
X205424054Y-99339515D01*
X205432816Y-99335051D01*
X205455828Y-99318332D01*
X205604786Y-99210109D01*
X205604788Y-99210106D01*
X205604792Y-99210104D01*
X205755104Y-99059792D01*
X205755106Y-99059788D01*
X205755109Y-99059786D01*
X205880048Y-98887820D01*
X205880047Y-98887820D01*
X205880051Y-98887816D01*
X205976557Y-98698412D01*
X206042246Y-98496243D01*
X206075500Y-98286287D01*
X206075500Y-98073713D01*
X206042246Y-97863757D01*
X205976557Y-97661588D01*
X205880051Y-97472184D01*
X205880049Y-97472181D01*
X205880048Y-97472179D01*
X205755109Y-97300213D01*
X205604786Y-97149890D01*
X205432820Y-97024951D01*
X205432115Y-97024591D01*
X205424054Y-97020485D01*
X205373259Y-96972512D01*
X205356463Y-96904692D01*
X205378999Y-96838556D01*
X205424054Y-96799515D01*
X205432816Y-96795051D01*
X205535447Y-96720486D01*
X205604786Y-96670109D01*
X205604788Y-96670106D01*
X205604792Y-96670104D01*
X205755104Y-96519792D01*
X205755106Y-96519788D01*
X205755109Y-96519786D01*
X205880048Y-96347820D01*
X205880047Y-96347820D01*
X205880051Y-96347816D01*
X205976557Y-96158412D01*
X206042246Y-95956243D01*
X206075500Y-95746287D01*
X206075500Y-95533713D01*
X206042246Y-95323757D01*
X205976557Y-95121588D01*
X205880051Y-94932184D01*
X205880049Y-94932181D01*
X205880048Y-94932179D01*
X205755109Y-94760213D01*
X205604786Y-94609890D01*
X205432820Y-94484951D01*
X205432115Y-94484591D01*
X205424054Y-94480485D01*
X205373259Y-94432512D01*
X205356463Y-94364692D01*
X205378999Y-94298556D01*
X205424054Y-94259515D01*
X205432816Y-94255051D01*
X205529304Y-94184949D01*
X205604786Y-94130109D01*
X205604788Y-94130106D01*
X205604792Y-94130104D01*
X205755104Y-93979792D01*
X205755106Y-93979788D01*
X205755109Y-93979786D01*
X205880048Y-93807820D01*
X205880047Y-93807820D01*
X205880051Y-93807816D01*
X205976557Y-93618412D01*
X206042246Y-93416243D01*
X206075500Y-93206287D01*
X206075500Y-92993713D01*
X206042246Y-92783757D01*
X205976557Y-92581588D01*
X205880051Y-92392184D01*
X205880049Y-92392181D01*
X205880048Y-92392179D01*
X205755109Y-92220213D01*
X205604786Y-92069890D01*
X205432820Y-91944951D01*
X205432115Y-91944591D01*
X205424054Y-91940485D01*
X205373259Y-91892512D01*
X205356463Y-91824692D01*
X205378999Y-91758556D01*
X205424054Y-91719515D01*
X205432816Y-91715051D01*
X205535838Y-91640202D01*
X205604786Y-91590109D01*
X205604788Y-91590106D01*
X205604792Y-91590104D01*
X205755104Y-91439792D01*
X205755106Y-91439788D01*
X205755109Y-91439786D01*
X205880048Y-91267820D01*
X205880047Y-91267820D01*
X205880051Y-91267816D01*
X205976557Y-91078412D01*
X206042246Y-90876243D01*
X206075500Y-90666287D01*
X206075500Y-90453713D01*
X206042246Y-90243757D01*
X205976557Y-90041588D01*
X205880051Y-89852184D01*
X205880049Y-89852181D01*
X205880048Y-89852179D01*
X205755109Y-89680213D01*
X205604786Y-89529890D01*
X205432820Y-89404951D01*
X205432115Y-89404591D01*
X205424054Y-89400485D01*
X205373259Y-89352512D01*
X205356463Y-89284692D01*
X205378999Y-89218556D01*
X205424054Y-89179515D01*
X205432816Y-89175051D01*
X205495110Y-89129792D01*
X205604786Y-89050109D01*
X205604788Y-89050106D01*
X205604792Y-89050104D01*
X205755104Y-88899792D01*
X205755106Y-88899788D01*
X205755109Y-88899786D01*
X205880048Y-88727820D01*
X205880047Y-88727820D01*
X205880051Y-88727816D01*
X205976557Y-88538412D01*
X206042246Y-88336243D01*
X206075500Y-88126287D01*
X206075500Y-87913713D01*
X206042246Y-87703757D01*
X205976557Y-87501588D01*
X205880051Y-87312184D01*
X205880049Y-87312181D01*
X205880048Y-87312179D01*
X205755109Y-87140213D01*
X205604786Y-86989890D01*
X205432820Y-86864951D01*
X205432115Y-86864591D01*
X205424054Y-86860485D01*
X205373259Y-86812512D01*
X205356463Y-86744692D01*
X205378999Y-86678556D01*
X205424054Y-86639515D01*
X205432816Y-86635051D01*
X205495110Y-86589792D01*
X205604786Y-86510109D01*
X205604788Y-86510106D01*
X205604792Y-86510104D01*
X205755104Y-86359792D01*
X205755106Y-86359788D01*
X205755109Y-86359786D01*
X205880048Y-86187820D01*
X205880047Y-86187820D01*
X205880051Y-86187816D01*
X205976557Y-85998412D01*
X206042246Y-85796243D01*
X206075500Y-85586287D01*
X206075500Y-85373713D01*
X206042246Y-85163757D01*
X205976557Y-84961588D01*
X205880051Y-84772184D01*
X205880049Y-84772181D01*
X205880048Y-84772179D01*
X205755109Y-84600213D01*
X205604786Y-84449890D01*
X205432820Y-84324951D01*
X205432115Y-84324591D01*
X205424054Y-84320485D01*
X205373259Y-84272512D01*
X205356463Y-84204692D01*
X205378999Y-84138556D01*
X205424054Y-84099515D01*
X205432816Y-84095051D01*
X205454789Y-84079086D01*
X205604786Y-83970109D01*
X205604788Y-83970106D01*
X205604792Y-83970104D01*
X205755104Y-83819792D01*
X205755106Y-83819788D01*
X205755109Y-83819786D01*
X205880048Y-83647820D01*
X205880047Y-83647820D01*
X205880051Y-83647816D01*
X205976557Y-83458412D01*
X206042246Y-83256243D01*
X206075500Y-83046287D01*
X206075500Y-82833713D01*
X206042246Y-82623757D01*
X205976557Y-82421588D01*
X205880051Y-82232184D01*
X205880049Y-82232181D01*
X205880048Y-82232179D01*
X205755109Y-82060213D01*
X205604786Y-81909890D01*
X205432820Y-81784951D01*
X205432115Y-81784591D01*
X205424054Y-81780485D01*
X205373259Y-81732512D01*
X205356463Y-81664692D01*
X205378999Y-81598556D01*
X205424054Y-81559515D01*
X205432816Y-81555051D01*
X205538299Y-81478414D01*
X205604786Y-81430109D01*
X205604788Y-81430106D01*
X205604792Y-81430104D01*
X205755104Y-81279792D01*
X205755106Y-81279788D01*
X205755109Y-81279786D01*
X205880048Y-81107820D01*
X205880047Y-81107820D01*
X205880051Y-81107816D01*
X205976557Y-80918412D01*
X206042246Y-80716243D01*
X206075500Y-80506287D01*
X206075500Y-80293713D01*
X206042246Y-80083757D01*
X205976557Y-79881588D01*
X205880051Y-79692184D01*
X205880049Y-79692181D01*
X205880048Y-79692179D01*
X205755109Y-79520213D01*
X205604786Y-79369890D01*
X205432820Y-79244951D01*
X205432115Y-79244591D01*
X205424054Y-79240485D01*
X205373259Y-79192512D01*
X205356463Y-79124692D01*
X205378999Y-79058556D01*
X205424054Y-79019515D01*
X205432816Y-79015051D01*
X205454789Y-78999086D01*
X205604786Y-78890109D01*
X205604788Y-78890106D01*
X205604792Y-78890104D01*
X205755104Y-78739792D01*
X205755106Y-78739788D01*
X205755109Y-78739786D01*
X205880048Y-78567820D01*
X205880047Y-78567820D01*
X205880051Y-78567816D01*
X205976557Y-78378412D01*
X206042246Y-78176243D01*
X206075500Y-77966287D01*
X206075500Y-77753713D01*
X206042246Y-77543757D01*
X205976557Y-77341588D01*
X205880051Y-77152184D01*
X205880049Y-77152181D01*
X205880048Y-77152179D01*
X205755109Y-76980213D01*
X205604786Y-76829890D01*
X205432820Y-76704951D01*
X205432115Y-76704591D01*
X205424054Y-76700485D01*
X205373259Y-76652512D01*
X205356463Y-76584692D01*
X205378999Y-76518556D01*
X205424054Y-76479515D01*
X205432816Y-76475051D01*
X205454789Y-76459086D01*
X205604786Y-76350109D01*
X205604788Y-76350106D01*
X205604792Y-76350104D01*
X205755104Y-76199792D01*
X205755106Y-76199788D01*
X205755109Y-76199786D01*
X205880048Y-76027820D01*
X205880047Y-76027820D01*
X205880051Y-76027816D01*
X205976557Y-75838412D01*
X206042246Y-75636243D01*
X206075500Y-75426287D01*
X206075500Y-75213713D01*
X206042246Y-75003757D01*
X205976557Y-74801588D01*
X205880051Y-74612184D01*
X205880049Y-74612181D01*
X205880048Y-74612179D01*
X205755109Y-74440213D01*
X205604786Y-74289890D01*
X205432820Y-74164951D01*
X205432115Y-74164591D01*
X205424054Y-74160485D01*
X205373259Y-74112512D01*
X205356463Y-74044692D01*
X205378999Y-73978556D01*
X205424054Y-73939515D01*
X205432816Y-73935051D01*
X205538299Y-73858414D01*
X205604786Y-73810109D01*
X205604788Y-73810106D01*
X205604792Y-73810104D01*
X205755104Y-73659792D01*
X205755106Y-73659788D01*
X205755109Y-73659786D01*
X205880048Y-73487820D01*
X205880049Y-73487819D01*
X205880051Y-73487816D01*
X205976557Y-73298412D01*
X206042246Y-73096243D01*
X206075500Y-72886287D01*
X206075500Y-72673713D01*
X206042246Y-72463757D01*
X205976557Y-72261588D01*
X205880051Y-72072184D01*
X205880049Y-72072181D01*
X205880048Y-72072179D01*
X205755109Y-71900213D01*
X205604786Y-71749890D01*
X205432820Y-71624951D01*
X205432115Y-71624591D01*
X205424054Y-71620485D01*
X205373259Y-71572512D01*
X205356463Y-71504692D01*
X205378999Y-71438556D01*
X205424054Y-71399515D01*
X205432816Y-71395051D01*
X205454789Y-71379086D01*
X205604786Y-71270109D01*
X205604788Y-71270106D01*
X205604792Y-71270104D01*
X205755104Y-71119792D01*
X205755106Y-71119788D01*
X205755109Y-71119786D01*
X205880048Y-70947820D01*
X205880047Y-70947820D01*
X205880051Y-70947816D01*
X205976557Y-70758412D01*
X206042246Y-70556243D01*
X206075500Y-70346287D01*
X206075500Y-70133713D01*
X206042246Y-69923757D01*
X205976557Y-69721588D01*
X205880051Y-69532184D01*
X205880049Y-69532181D01*
X205880048Y-69532179D01*
X205755109Y-69360213D01*
X205604786Y-69209890D01*
X205432817Y-69084949D01*
X205423504Y-69080204D01*
X205372707Y-69032230D01*
X205355912Y-68964409D01*
X205378449Y-68898274D01*
X205423507Y-68859232D01*
X205432558Y-68854620D01*
X205604459Y-68729727D01*
X205604464Y-68729723D01*
X205754723Y-68579464D01*
X205754727Y-68579459D01*
X205879620Y-68407557D01*
X205976095Y-68218217D01*
X206041757Y-68016129D01*
X206041757Y-68016126D01*
X206052231Y-67950000D01*
X205158012Y-67950000D01*
X205190925Y-67892993D01*
X205225000Y-67765826D01*
X205225000Y-67634174D01*
X205190925Y-67507007D01*
X205158012Y-67450000D01*
X206052231Y-67450000D01*
X206041757Y-67383873D01*
X206041757Y-67383870D01*
X205976095Y-67181782D01*
X205879620Y-66992442D01*
X205754727Y-66820540D01*
X205754723Y-66820535D01*
X205641053Y-66706865D01*
X205607568Y-66645542D01*
X205612552Y-66575850D01*
X205654424Y-66519917D01*
X205685400Y-66503002D01*
X205817331Y-66453796D01*
X205925100Y-66373119D01*
X205990561Y-66348703D01*
X206058834Y-66363554D01*
G37*
%TD.AperFunction*%
%TA.AperFunction,Conductor*%
G36*
X235988813Y-56020185D02*
G01*
X236034568Y-56072989D01*
X236044512Y-56142147D01*
X236015487Y-56205703D01*
X235960093Y-56242430D01*
X235941588Y-56248443D01*
X235941585Y-56248444D01*
X235752179Y-56344951D01*
X235580213Y-56469890D01*
X235429890Y-56620213D01*
X235304951Y-56792179D01*
X235208444Y-56981585D01*
X235208443Y-56981587D01*
X235208443Y-56981588D01*
X235175598Y-57082672D01*
X235142753Y-57183760D01*
X235123240Y-57306961D01*
X235109500Y-57393713D01*
X235109500Y-57606287D01*
X235119534Y-57669644D01*
X235142753Y-57816239D01*
X235208444Y-58018414D01*
X235304951Y-58207820D01*
X235429890Y-58379786D01*
X235580213Y-58530109D01*
X235752179Y-58655048D01*
X235752181Y-58655049D01*
X235752184Y-58655051D01*
X235941588Y-58751557D01*
X236143757Y-58817246D01*
X236353713Y-58850500D01*
X236353714Y-58850500D01*
X236566286Y-58850500D01*
X236566287Y-58850500D01*
X236776243Y-58817246D01*
X236978412Y-58751557D01*
X237167816Y-58655051D01*
X237254478Y-58592088D01*
X237339784Y-58530110D01*
X237339784Y-58530109D01*
X237339792Y-58530104D01*
X237453717Y-58416178D01*
X237515036Y-58382696D01*
X237584728Y-58387680D01*
X237640662Y-58429551D01*
X237657577Y-58460528D01*
X237706646Y-58592088D01*
X237706649Y-58592093D01*
X237792809Y-58707187D01*
X237792812Y-58707190D01*
X237907906Y-58793350D01*
X237907913Y-58793354D01*
X238042620Y-58843596D01*
X238042627Y-58843598D01*
X238102155Y-58849999D01*
X238102172Y-58850000D01*
X238750000Y-58850000D01*
X238750000Y-57933012D01*
X238807007Y-57965925D01*
X238934174Y-58000000D01*
X239065826Y-58000000D01*
X239192993Y-57965925D01*
X239250000Y-57933012D01*
X239250000Y-58850000D01*
X239897828Y-58850000D01*
X239897844Y-58849999D01*
X239957372Y-58843598D01*
X239957379Y-58843596D01*
X240092086Y-58793354D01*
X240092093Y-58793350D01*
X240207187Y-58707190D01*
X240207190Y-58707187D01*
X240293350Y-58592093D01*
X240293354Y-58592086D01*
X240343596Y-58457379D01*
X240343598Y-58457372D01*
X240349999Y-58397844D01*
X240350000Y-58397827D01*
X240350000Y-57893713D01*
X244149500Y-57893713D01*
X244149500Y-58106286D01*
X244170082Y-58236239D01*
X244182754Y-58316243D01*
X244229635Y-58460528D01*
X244248444Y-58518414D01*
X244344951Y-58707820D01*
X244469890Y-58879786D01*
X244620213Y-59030109D01*
X244792179Y-59155048D01*
X244792181Y-59155049D01*
X244792184Y-59155051D01*
X244981588Y-59251557D01*
X245183757Y-59317246D01*
X245393713Y-59350500D01*
X245393714Y-59350500D01*
X245606286Y-59350500D01*
X245606287Y-59350500D01*
X245816243Y-59317246D01*
X246018412Y-59251557D01*
X246207816Y-59155051D01*
X246245749Y-59127491D01*
X246379786Y-59030109D01*
X246379788Y-59030106D01*
X246379792Y-59030104D01*
X246530104Y-58879792D01*
X246530106Y-58879788D01*
X246530109Y-58879786D01*
X246655048Y-58707820D01*
X246655047Y-58707820D01*
X246655051Y-58707816D01*
X246751557Y-58518412D01*
X246817246Y-58316243D01*
X246850500Y-58106287D01*
X246850500Y-57893713D01*
X246817246Y-57683757D01*
X246751557Y-57481588D01*
X246655051Y-57292184D01*
X246655049Y-57292181D01*
X246655048Y-57292179D01*
X246530109Y-57120213D01*
X246379786Y-56969890D01*
X246207820Y-56844951D01*
X246018414Y-56748444D01*
X246018413Y-56748443D01*
X246018412Y-56748443D01*
X245816243Y-56682754D01*
X245816241Y-56682753D01*
X245816240Y-56682753D01*
X245654957Y-56657208D01*
X245606287Y-56649500D01*
X245393713Y-56649500D01*
X245345042Y-56657208D01*
X245183760Y-56682753D01*
X244981585Y-56748444D01*
X244792179Y-56844951D01*
X244620213Y-56969890D01*
X244469890Y-57120213D01*
X244344951Y-57292179D01*
X244248444Y-57481585D01*
X244248443Y-57481587D01*
X244248443Y-57481588D01*
X244223953Y-57556961D01*
X244182753Y-57683760D01*
X244149500Y-57893713D01*
X240350000Y-57893713D01*
X240350000Y-57750000D01*
X239433012Y-57750000D01*
X239465925Y-57692993D01*
X239500000Y-57565826D01*
X239500000Y-57434174D01*
X239465925Y-57307007D01*
X239433012Y-57250000D01*
X240350000Y-57250000D01*
X240350000Y-56602172D01*
X240349999Y-56602155D01*
X240343598Y-56542627D01*
X240343596Y-56542620D01*
X240293354Y-56407913D01*
X240293350Y-56407906D01*
X240207190Y-56292812D01*
X240207187Y-56292809D01*
X240114958Y-56223766D01*
X240073087Y-56167832D01*
X240068103Y-56098141D01*
X240101589Y-56036818D01*
X240162912Y-56003334D01*
X240189269Y-56000500D01*
X247375500Y-56000500D01*
X247442539Y-56020185D01*
X247488294Y-56072989D01*
X247499500Y-56124500D01*
X247499500Y-61980730D01*
X247479815Y-62047769D01*
X247427011Y-62093524D01*
X247357853Y-62103468D01*
X247294297Y-62074443D01*
X247276234Y-62055042D01*
X247207187Y-61962809D01*
X247092093Y-61876649D01*
X247092086Y-61876645D01*
X246957379Y-61826403D01*
X246957372Y-61826401D01*
X246897844Y-61820000D01*
X246250000Y-61820000D01*
X246250000Y-62736988D01*
X246192993Y-62704075D01*
X246065826Y-62670000D01*
X245934174Y-62670000D01*
X245807007Y-62704075D01*
X245750000Y-62736988D01*
X245750000Y-61820000D01*
X245102155Y-61820000D01*
X245042627Y-61826401D01*
X245042620Y-61826403D01*
X244907913Y-61876645D01*
X244907906Y-61876649D01*
X244792812Y-61962809D01*
X244792809Y-61962812D01*
X244706649Y-62077906D01*
X244706645Y-62077913D01*
X244656403Y-62212620D01*
X244656401Y-62212627D01*
X244650000Y-62272155D01*
X244650000Y-62920000D01*
X245566988Y-62920000D01*
X245534075Y-62977007D01*
X245500000Y-63104174D01*
X245500000Y-63235826D01*
X245534075Y-63362993D01*
X245566988Y-63420000D01*
X244650000Y-63420000D01*
X244650000Y-64067844D01*
X244656401Y-64127372D01*
X244656403Y-64127379D01*
X244706645Y-64262086D01*
X244706649Y-64262093D01*
X244792809Y-64377187D01*
X244792812Y-64377190D01*
X244907906Y-64463350D01*
X244907913Y-64463354D01*
X245039470Y-64512422D01*
X245095404Y-64554293D01*
X245119821Y-64619758D01*
X245104969Y-64688031D01*
X245083819Y-64716285D01*
X244969889Y-64830215D01*
X244844951Y-65002179D01*
X244748444Y-65191585D01*
X244682753Y-65393760D01*
X244649500Y-65603713D01*
X244649500Y-65735638D01*
X244629815Y-65802677D01*
X244613181Y-65823319D01*
X242585227Y-67851272D01*
X242584136Y-67851867D01*
X242583520Y-67852947D01*
X242553548Y-67868570D01*
X242523904Y-67884757D01*
X242522664Y-67884668D01*
X242521562Y-67885243D01*
X242487926Y-67882184D01*
X242454212Y-67879773D01*
X242453216Y-67879027D01*
X242451980Y-67878915D01*
X242425336Y-67858156D01*
X242398279Y-67837901D01*
X242397525Y-67836488D01*
X242396864Y-67835973D01*
X242395172Y-67832079D01*
X242380550Y-67804676D01*
X242377643Y-67796398D01*
X242365895Y-67737335D01*
X242308124Y-67597865D01*
X242298013Y-67573454D01*
X242235383Y-67479722D01*
X242199464Y-67425965D01*
X242199462Y-67425963D01*
X242199460Y-67425960D01*
X239234034Y-64460535D01*
X239234029Y-64460531D01*
X239180244Y-64424594D01*
X239180237Y-64424590D01*
X239174958Y-64421063D01*
X239086546Y-64361987D01*
X238978531Y-64317246D01*
X238973143Y-64315014D01*
X238973141Y-64315013D01*
X238922665Y-64294105D01*
X238922657Y-64294103D01*
X238742716Y-64258311D01*
X238743127Y-64256239D01*
X238687222Y-64233653D01*
X238646873Y-64176611D01*
X238640563Y-64126696D01*
X238644162Y-64080964D01*
X238073724Y-63510526D01*
X238166669Y-63485623D01*
X238265131Y-63428775D01*
X238345526Y-63348380D01*
X238402374Y-63249918D01*
X238427278Y-63156973D01*
X238997716Y-63727411D01*
X238997717Y-63727411D01*
X239014186Y-63704745D01*
X239098922Y-63538440D01*
X239156602Y-63360921D01*
X239185800Y-63176579D01*
X239185800Y-62989918D01*
X239156602Y-62805576D01*
X239098922Y-62628057D01*
X239014186Y-62461753D01*
X238997716Y-62439085D01*
X238997716Y-62439084D01*
X238427277Y-63009523D01*
X238402374Y-62916580D01*
X238345526Y-62818118D01*
X238265131Y-62737723D01*
X238166669Y-62680875D01*
X238073724Y-62655971D01*
X238548524Y-62181170D01*
X238644162Y-62085531D01*
X238621491Y-62069060D01*
X238455191Y-61984326D01*
X238277672Y-61926646D01*
X238093330Y-61897449D01*
X237906670Y-61897449D01*
X237722327Y-61926646D01*
X237544808Y-61984326D01*
X237378502Y-62069063D01*
X237355836Y-62085531D01*
X237355835Y-62085531D01*
X237926275Y-62655970D01*
X237833331Y-62680875D01*
X237734869Y-62737723D01*
X237654474Y-62818118D01*
X237597626Y-62916580D01*
X237572722Y-63009524D01*
X237002282Y-62439084D01*
X237002282Y-62439085D01*
X236985814Y-62461751D01*
X236901077Y-62628057D01*
X236843397Y-62805576D01*
X236814200Y-62989918D01*
X236814200Y-63176579D01*
X236843397Y-63360921D01*
X236901077Y-63538440D01*
X236985811Y-63704740D01*
X237002282Y-63727411D01*
X237572721Y-63156972D01*
X237597626Y-63249918D01*
X237654474Y-63348380D01*
X237734869Y-63428775D01*
X237833331Y-63485623D01*
X237926275Y-63510527D01*
X237355835Y-64080965D01*
X237359362Y-64125772D01*
X237344998Y-64194149D01*
X237295946Y-64243905D01*
X237235744Y-64259500D01*
X231576440Y-64259500D01*
X231509401Y-64239815D01*
X231463646Y-64187011D01*
X231460258Y-64178833D01*
X231418797Y-64067671D01*
X231418793Y-64067664D01*
X231332547Y-63952455D01*
X231332544Y-63952452D01*
X231217335Y-63866206D01*
X231217328Y-63866202D01*
X231082482Y-63815908D01*
X231082483Y-63815908D01*
X231022883Y-63809501D01*
X231022881Y-63809500D01*
X231022873Y-63809500D01*
X231022864Y-63809500D01*
X229227129Y-63809500D01*
X229227123Y-63809501D01*
X229167516Y-63815908D01*
X229032671Y-63866202D01*
X229032664Y-63866206D01*
X228917455Y-63952452D01*
X228917452Y-63952455D01*
X228831206Y-64067664D01*
X228831202Y-64067671D01*
X228780908Y-64202517D01*
X228774501Y-64262116D01*
X228774501Y-64262123D01*
X228774500Y-64262135D01*
X228774500Y-66057870D01*
X228774501Y-66057876D01*
X228780908Y-66117483D01*
X228831202Y-66252328D01*
X228831206Y-66252335D01*
X228917452Y-66367544D01*
X228917455Y-66367547D01*
X229032664Y-66453793D01*
X229032671Y-66453797D01*
X229032674Y-66453798D01*
X229164598Y-66503002D01*
X229220531Y-66544873D01*
X229244949Y-66610337D01*
X229230098Y-66678610D01*
X229208947Y-66706865D01*
X229095271Y-66820541D01*
X228970379Y-66992442D01*
X228873904Y-67181782D01*
X228808242Y-67383870D01*
X228808242Y-67383873D01*
X228797769Y-67450000D01*
X229691988Y-67450000D01*
X229659075Y-67507007D01*
X229625000Y-67634174D01*
X229625000Y-67765826D01*
X229659075Y-67892993D01*
X229691988Y-67950000D01*
X228797769Y-67950000D01*
X228808242Y-68016126D01*
X228808242Y-68016129D01*
X228873904Y-68218217D01*
X228970379Y-68407557D01*
X229095272Y-68579459D01*
X229095276Y-68579464D01*
X229245535Y-68729723D01*
X229245540Y-68729727D01*
X229417444Y-68854622D01*
X229426495Y-68859234D01*
X229477292Y-68907208D01*
X229494087Y-68975029D01*
X229471550Y-69041164D01*
X229426499Y-69080202D01*
X229417182Y-69084949D01*
X229245213Y-69209890D01*
X229094890Y-69360213D01*
X228969951Y-69532179D01*
X228873444Y-69721585D01*
X228807753Y-69923760D01*
X228774500Y-70133713D01*
X228774500Y-70346286D01*
X228807753Y-70556239D01*
X228873444Y-70758414D01*
X228969951Y-70947820D01*
X229094890Y-71119786D01*
X229245213Y-71270109D01*
X229417182Y-71395050D01*
X229425946Y-71399516D01*
X229476742Y-71447491D01*
X229493536Y-71515312D01*
X229470998Y-71581447D01*
X229425946Y-71620484D01*
X229417182Y-71624949D01*
X229245213Y-71749890D01*
X229094890Y-71900213D01*
X228969951Y-72072179D01*
X228873444Y-72261585D01*
X228807753Y-72463760D01*
X228777910Y-72652183D01*
X228774500Y-72673713D01*
X228774500Y-72886287D01*
X228807754Y-73096243D01*
X228872659Y-73296000D01*
X228873444Y-73298414D01*
X228969951Y-73487820D01*
X229094890Y-73659786D01*
X229245213Y-73810109D01*
X229417182Y-73935050D01*
X229425946Y-73939516D01*
X229476742Y-73987491D01*
X229493536Y-74055312D01*
X229470998Y-74121447D01*
X229425946Y-74160484D01*
X229417182Y-74164949D01*
X229245213Y-74289890D01*
X229094890Y-74440213D01*
X228969951Y-74612179D01*
X228873444Y-74801585D01*
X228807753Y-75003760D01*
X228774500Y-75213713D01*
X228774500Y-75426286D01*
X228807753Y-75636239D01*
X228873444Y-75838414D01*
X228969951Y-76027820D01*
X229094890Y-76199786D01*
X229245213Y-76350109D01*
X229417182Y-76475050D01*
X229425946Y-76479516D01*
X229476742Y-76527491D01*
X229493536Y-76595312D01*
X229470998Y-76661447D01*
X229425946Y-76700484D01*
X229417182Y-76704949D01*
X229245213Y-76829890D01*
X229094890Y-76980213D01*
X228969951Y-77152179D01*
X228873444Y-77341585D01*
X228807753Y-77543760D01*
X228774500Y-77753713D01*
X228774500Y-77966286D01*
X228802601Y-78143713D01*
X228807754Y-78176243D01*
X228871581Y-78372682D01*
X228873444Y-78378414D01*
X228969951Y-78567820D01*
X229094890Y-78739786D01*
X229245213Y-78890109D01*
X229417182Y-79015050D01*
X229425946Y-79019516D01*
X229476742Y-79067491D01*
X229493536Y-79135312D01*
X229470998Y-79201447D01*
X229425946Y-79240484D01*
X229417182Y-79244949D01*
X229245213Y-79369890D01*
X229094890Y-79520213D01*
X228969951Y-79692179D01*
X228873444Y-79881585D01*
X228807753Y-80083760D01*
X228774500Y-80293713D01*
X228774500Y-80506286D01*
X228807753Y-80716239D01*
X228873444Y-80918414D01*
X228969951Y-81107820D01*
X229094890Y-81279786D01*
X229245213Y-81430109D01*
X229417182Y-81555050D01*
X229425946Y-81559516D01*
X229476742Y-81607491D01*
X229493536Y-81675312D01*
X229470998Y-81741447D01*
X229425946Y-81780484D01*
X229417182Y-81784949D01*
X229245213Y-81909890D01*
X229094890Y-82060213D01*
X228969951Y-82232179D01*
X228873444Y-82421585D01*
X228807753Y-82623760D01*
X228784607Y-82769901D01*
X228774500Y-82833713D01*
X228774500Y-83046287D01*
X228807754Y-83256243D01*
X228867163Y-83439085D01*
X228873444Y-83458414D01*
X228969951Y-83647820D01*
X229094890Y-83819786D01*
X229245213Y-83970109D01*
X229417182Y-84095050D01*
X229425946Y-84099516D01*
X229476742Y-84147491D01*
X229493536Y-84215312D01*
X229470998Y-84281447D01*
X229425946Y-84320484D01*
X229417182Y-84324949D01*
X229245213Y-84449890D01*
X229094890Y-84600213D01*
X228969951Y-84772179D01*
X228873444Y-84961585D01*
X228873443Y-84961587D01*
X228873443Y-84961588D01*
X228840598Y-85062672D01*
X228807753Y-85163760D01*
X228774500Y-85373713D01*
X228774500Y-85586286D01*
X228807753Y-85796239D01*
X228873444Y-85998414D01*
X228969951Y-86187820D01*
X229094890Y-86359786D01*
X229245213Y-86510109D01*
X229417182Y-86635050D01*
X229425946Y-86639516D01*
X229476742Y-86687491D01*
X229493536Y-86755312D01*
X229470998Y-86821447D01*
X229425946Y-86860484D01*
X229417182Y-86864949D01*
X229245213Y-86989890D01*
X229094890Y-87140213D01*
X228969951Y-87312179D01*
X228873444Y-87501585D01*
X228873443Y-87501587D01*
X228873443Y-87501588D01*
X228840598Y-87602672D01*
X228807753Y-87703760D01*
X228774500Y-87913713D01*
X228774500Y-88126286D01*
X228807398Y-88334000D01*
X228807754Y-88336243D01*
X228870880Y-88530525D01*
X228873444Y-88538414D01*
X228969951Y-88727820D01*
X229094890Y-88899786D01*
X229245213Y-89050109D01*
X229417182Y-89175050D01*
X229425946Y-89179516D01*
X229476742Y-89227491D01*
X229493536Y-89295312D01*
X229470998Y-89361447D01*
X229425946Y-89400484D01*
X229417182Y-89404949D01*
X229245213Y-89529890D01*
X229094890Y-89680213D01*
X228969951Y-89852179D01*
X228873444Y-90041585D01*
X228807753Y-90243760D01*
X228774500Y-90453713D01*
X228774500Y-90666286D01*
X228807753Y-90876239D01*
X228807753Y-90876241D01*
X228807754Y-90876243D01*
X228846197Y-90994559D01*
X228873444Y-91078414D01*
X228969951Y-91267820D01*
X229094890Y-91439786D01*
X229245213Y-91590109D01*
X229417182Y-91715050D01*
X229425946Y-91719516D01*
X229476742Y-91767491D01*
X229493536Y-91835312D01*
X229470998Y-91901447D01*
X229425946Y-91940484D01*
X229417182Y-91944949D01*
X229245213Y-92069890D01*
X229094890Y-92220213D01*
X228969951Y-92392179D01*
X228873444Y-92581585D01*
X228807753Y-92783760D01*
X228783214Y-92938693D01*
X228774500Y-92993713D01*
X228774500Y-93206287D01*
X228807754Y-93416243D01*
X228865664Y-93594472D01*
X228873444Y-93618414D01*
X228969951Y-93807820D01*
X229094890Y-93979786D01*
X229245213Y-94130109D01*
X229417182Y-94255050D01*
X229425946Y-94259516D01*
X229476742Y-94307491D01*
X229493536Y-94375312D01*
X229470998Y-94441447D01*
X229425946Y-94480484D01*
X229417182Y-94484949D01*
X229245213Y-94609890D01*
X229094890Y-94760213D01*
X228969951Y-94932179D01*
X228873444Y-95121585D01*
X228807753Y-95323760D01*
X228788347Y-95446286D01*
X228774500Y-95533713D01*
X228774500Y-95746287D01*
X228807754Y-95956243D01*
X228866469Y-96136949D01*
X228873444Y-96158414D01*
X228969951Y-96347820D01*
X229094890Y-96519786D01*
X229245213Y-96670109D01*
X229417182Y-96795050D01*
X229425946Y-96799516D01*
X229476742Y-96847491D01*
X229493536Y-96915312D01*
X229470998Y-96981447D01*
X229425946Y-97020484D01*
X229417182Y-97024949D01*
X229245213Y-97149890D01*
X229094890Y-97300213D01*
X228969951Y-97472179D01*
X228873444Y-97661585D01*
X228807753Y-97863760D01*
X228774500Y-98073713D01*
X228774500Y-98286286D01*
X228807753Y-98496239D01*
X228807753Y-98496241D01*
X228807754Y-98496243D01*
X228866469Y-98676949D01*
X228873444Y-98698414D01*
X228969951Y-98887820D01*
X229094890Y-99059786D01*
X229245213Y-99210109D01*
X229417182Y-99335050D01*
X229425946Y-99339516D01*
X229476742Y-99387491D01*
X229493536Y-99455312D01*
X229470998Y-99521447D01*
X229425946Y-99560484D01*
X229417182Y-99564949D01*
X229245213Y-99689890D01*
X229094890Y-99840213D01*
X228969951Y-100012179D01*
X228873444Y-100201585D01*
X228873443Y-100201587D01*
X228873443Y-100201588D01*
X228860166Y-100242449D01*
X228807753Y-100403760D01*
X228774500Y-100613713D01*
X228774500Y-100826286D01*
X228804871Y-101018045D01*
X228807754Y-101036243D01*
X228852053Y-101172582D01*
X228873444Y-101238414D01*
X228969951Y-101427820D01*
X229094890Y-101599786D01*
X229245213Y-101750109D01*
X229417179Y-101875048D01*
X229417181Y-101875049D01*
X229417184Y-101875051D01*
X229606588Y-101971557D01*
X229808757Y-102037246D01*
X230018713Y-102070500D01*
X230018714Y-102070500D01*
X230231286Y-102070500D01*
X230231287Y-102070500D01*
X230441243Y-102037246D01*
X230643412Y-101971557D01*
X230832816Y-101875051D01*
X230935447Y-101800486D01*
X231004786Y-101750109D01*
X231004788Y-101750106D01*
X231004792Y-101750104D01*
X231155104Y-101599792D01*
X231155106Y-101599788D01*
X231155109Y-101599786D01*
X231280048Y-101427820D01*
X231280047Y-101427820D01*
X231280051Y-101427816D01*
X231376557Y-101238412D01*
X231442246Y-101036243D01*
X231475500Y-100826287D01*
X231475500Y-100613713D01*
X231442246Y-100403757D01*
X231376557Y-100201588D01*
X231280051Y-100012184D01*
X231280049Y-100012181D01*
X231280048Y-100012179D01*
X231155109Y-99840213D01*
X231004786Y-99689890D01*
X230832820Y-99564951D01*
X230832115Y-99564591D01*
X230824054Y-99560485D01*
X230773259Y-99512512D01*
X230756463Y-99444692D01*
X230778999Y-99378556D01*
X230824054Y-99339515D01*
X230832816Y-99335051D01*
X230855828Y-99318332D01*
X231004786Y-99210109D01*
X231004788Y-99210106D01*
X231004792Y-99210104D01*
X231155104Y-99059792D01*
X231155106Y-99059788D01*
X231155109Y-99059786D01*
X231280048Y-98887820D01*
X231280047Y-98887820D01*
X231280051Y-98887816D01*
X231376557Y-98698412D01*
X231442246Y-98496243D01*
X231475500Y-98286287D01*
X231475500Y-98073713D01*
X231442246Y-97863757D01*
X231376557Y-97661588D01*
X231280051Y-97472184D01*
X231280049Y-97472181D01*
X231280048Y-97472179D01*
X231155109Y-97300213D01*
X231004786Y-97149890D01*
X230832820Y-97024951D01*
X230832115Y-97024591D01*
X230824054Y-97020485D01*
X230773259Y-96972512D01*
X230756463Y-96904692D01*
X230778999Y-96838556D01*
X230824054Y-96799515D01*
X230832816Y-96795051D01*
X230935447Y-96720486D01*
X231004786Y-96670109D01*
X231004788Y-96670106D01*
X231004792Y-96670104D01*
X231155104Y-96519792D01*
X231155106Y-96519788D01*
X231155109Y-96519786D01*
X231280048Y-96347820D01*
X231280047Y-96347820D01*
X231280051Y-96347816D01*
X231376557Y-96158412D01*
X231442246Y-95956243D01*
X231475500Y-95746287D01*
X231475500Y-95533713D01*
X231442246Y-95323757D01*
X231376557Y-95121588D01*
X231280051Y-94932184D01*
X231280049Y-94932181D01*
X231280048Y-94932179D01*
X231155109Y-94760213D01*
X231004790Y-94609894D01*
X231004785Y-94609890D01*
X230971838Y-94585952D01*
X230971765Y-94585900D01*
X230839655Y-94489918D01*
X236814200Y-94489918D01*
X236814200Y-94676579D01*
X236843397Y-94860921D01*
X236901077Y-95038440D01*
X236985811Y-95204740D01*
X237002282Y-95227411D01*
X237572721Y-94656972D01*
X237597626Y-94749918D01*
X237654474Y-94848380D01*
X237734869Y-94928775D01*
X237833331Y-94985623D01*
X237926275Y-95010527D01*
X237355835Y-95580965D01*
X237378504Y-95597435D01*
X237544808Y-95682171D01*
X237722327Y-95739851D01*
X237906670Y-95769049D01*
X238093330Y-95769049D01*
X238277672Y-95739851D01*
X238455191Y-95682171D01*
X238621496Y-95597435D01*
X238644162Y-95580966D01*
X238644162Y-95580965D01*
X238073724Y-95010526D01*
X238166669Y-94985623D01*
X238265131Y-94928775D01*
X238345526Y-94848380D01*
X238402374Y-94749918D01*
X238427278Y-94656973D01*
X238997716Y-95227411D01*
X238997717Y-95227411D01*
X239014186Y-95204745D01*
X239098922Y-95038440D01*
X239156602Y-94860921D01*
X239185800Y-94676579D01*
X239185800Y-94489918D01*
X239156602Y-94305576D01*
X239098922Y-94128057D01*
X239014186Y-93961753D01*
X238997716Y-93939085D01*
X238997716Y-93939084D01*
X238427277Y-94509523D01*
X238402374Y-94416580D01*
X238345526Y-94318118D01*
X238265131Y-94237723D01*
X238166669Y-94180875D01*
X238073724Y-94155971D01*
X238644162Y-93585531D01*
X238621491Y-93569060D01*
X238455191Y-93484326D01*
X238277672Y-93426646D01*
X238093330Y-93397449D01*
X237906670Y-93397449D01*
X237722327Y-93426646D01*
X237544808Y-93484326D01*
X237378502Y-93569063D01*
X237355836Y-93585531D01*
X237355835Y-93585531D01*
X237926275Y-94155970D01*
X237833331Y-94180875D01*
X237734869Y-94237723D01*
X237654474Y-94318118D01*
X237597626Y-94416580D01*
X237572722Y-94509524D01*
X237002282Y-93939084D01*
X237002282Y-93939085D01*
X236985814Y-93961751D01*
X236901077Y-94128057D01*
X236843397Y-94305576D01*
X236814200Y-94489918D01*
X230839655Y-94489918D01*
X230832816Y-94484949D01*
X230816207Y-94476486D01*
X230809010Y-94471424D01*
X230792514Y-94450697D01*
X230773259Y-94432512D01*
X230771098Y-94423788D01*
X230765501Y-94416755D01*
X230762829Y-94390399D01*
X230756463Y-94364692D01*
X230759361Y-94356185D01*
X230758455Y-94347241D01*
X230770456Y-94323625D01*
X230778999Y-94298556D01*
X230786500Y-94292056D01*
X230790110Y-94284953D01*
X230804237Y-94276686D01*
X230824054Y-94259515D01*
X230832816Y-94255051D01*
X230929304Y-94184949D01*
X231004786Y-94130109D01*
X231004788Y-94130106D01*
X231004792Y-94130104D01*
X231155104Y-93979792D01*
X231155106Y-93979788D01*
X231155109Y-93979786D01*
X231280048Y-93807820D01*
X231280047Y-93807820D01*
X231280051Y-93807816D01*
X231376557Y-93618412D01*
X231442246Y-93416243D01*
X231475500Y-93206287D01*
X231475500Y-92993713D01*
X231442246Y-92783757D01*
X231376557Y-92581588D01*
X231280051Y-92392184D01*
X231280049Y-92392181D01*
X231280048Y-92392179D01*
X231155109Y-92220213D01*
X231004786Y-92069890D01*
X230832820Y-91944951D01*
X230832115Y-91944591D01*
X230824054Y-91940485D01*
X230773259Y-91892512D01*
X230756463Y-91824692D01*
X230778999Y-91758556D01*
X230824054Y-91719515D01*
X230832816Y-91715051D01*
X230935838Y-91640202D01*
X231004786Y-91590109D01*
X231004788Y-91590106D01*
X231004792Y-91590104D01*
X231155104Y-91439792D01*
X231155106Y-91439788D01*
X231155109Y-91439786D01*
X231280048Y-91267820D01*
X231280047Y-91267820D01*
X231280051Y-91267816D01*
X231376557Y-91078412D01*
X231442246Y-90876243D01*
X231475500Y-90666287D01*
X231475500Y-90453713D01*
X231442246Y-90243757D01*
X231376557Y-90041588D01*
X231280051Y-89852184D01*
X231280049Y-89852181D01*
X231280048Y-89852179D01*
X231155109Y-89680213D01*
X231004786Y-89529890D01*
X230832820Y-89404951D01*
X230832115Y-89404591D01*
X230824054Y-89400485D01*
X230773259Y-89352512D01*
X230756463Y-89284692D01*
X230778999Y-89218556D01*
X230824054Y-89179515D01*
X230832816Y-89175051D01*
X230895110Y-89129792D01*
X231004786Y-89050109D01*
X231004788Y-89050106D01*
X231004792Y-89050104D01*
X231155104Y-88899792D01*
X231155106Y-88899788D01*
X231155109Y-88899786D01*
X231280048Y-88727820D01*
X231280047Y-88727820D01*
X231280051Y-88727816D01*
X231376557Y-88538412D01*
X231442246Y-88336243D01*
X231475500Y-88126287D01*
X231475500Y-87913713D01*
X231442246Y-87703757D01*
X231376557Y-87501588D01*
X231280051Y-87312184D01*
X231280049Y-87312181D01*
X231280048Y-87312179D01*
X231155109Y-87140213D01*
X231004786Y-86989890D01*
X230832820Y-86864951D01*
X230832115Y-86864591D01*
X230824054Y-86860485D01*
X230773259Y-86812512D01*
X230756463Y-86744692D01*
X230778999Y-86678556D01*
X230824054Y-86639515D01*
X230832816Y-86635051D01*
X230895110Y-86589792D01*
X231004786Y-86510109D01*
X231004788Y-86510106D01*
X231004792Y-86510104D01*
X231155104Y-86359792D01*
X231155106Y-86359788D01*
X231155109Y-86359786D01*
X231280048Y-86187820D01*
X231280047Y-86187820D01*
X231280051Y-86187816D01*
X231376557Y-85998412D01*
X231442246Y-85796243D01*
X231475500Y-85586287D01*
X231475500Y-85373713D01*
X231442246Y-85163757D01*
X231376557Y-84961588D01*
X231376555Y-84961585D01*
X231376555Y-84961583D01*
X231309616Y-84830208D01*
X231280051Y-84772184D01*
X231280049Y-84772181D01*
X231280048Y-84772179D01*
X231155109Y-84600213D01*
X231004786Y-84449890D01*
X230832820Y-84324951D01*
X230832115Y-84324591D01*
X230824054Y-84320485D01*
X230773259Y-84272512D01*
X230756463Y-84204692D01*
X230778999Y-84138556D01*
X230824054Y-84099515D01*
X230832816Y-84095051D01*
X230854789Y-84079086D01*
X230977521Y-83989918D01*
X236814200Y-83989918D01*
X236814200Y-84176579D01*
X236843397Y-84360921D01*
X236901077Y-84538440D01*
X236985811Y-84704740D01*
X237002282Y-84727411D01*
X237572721Y-84156972D01*
X237597626Y-84249918D01*
X237654474Y-84348380D01*
X237734869Y-84428775D01*
X237833331Y-84485623D01*
X237926275Y-84510527D01*
X237355835Y-85080965D01*
X237378504Y-85097435D01*
X237544808Y-85182171D01*
X237722327Y-85239851D01*
X237906670Y-85269049D01*
X238093330Y-85269049D01*
X238277672Y-85239851D01*
X238455191Y-85182171D01*
X238621496Y-85097435D01*
X238644162Y-85080966D01*
X238644162Y-85080965D01*
X238073724Y-84510526D01*
X238166669Y-84485623D01*
X238265131Y-84428775D01*
X238345526Y-84348380D01*
X238402374Y-84249918D01*
X238427278Y-84156973D01*
X238997716Y-84727411D01*
X238997717Y-84727411D01*
X239014186Y-84704745D01*
X239098922Y-84538440D01*
X239156602Y-84360921D01*
X239185800Y-84176579D01*
X239185800Y-83989918D01*
X239156602Y-83805576D01*
X239098922Y-83628057D01*
X239014186Y-83461753D01*
X238997716Y-83439085D01*
X238997716Y-83439084D01*
X238427277Y-84009523D01*
X238402374Y-83916580D01*
X238345526Y-83818118D01*
X238265131Y-83737723D01*
X238166669Y-83680875D01*
X238073724Y-83655971D01*
X238644162Y-83085531D01*
X238621491Y-83069060D01*
X238455191Y-82984326D01*
X238277672Y-82926646D01*
X238093330Y-82897449D01*
X237906670Y-82897449D01*
X237722327Y-82926646D01*
X237544808Y-82984326D01*
X237378502Y-83069063D01*
X237355836Y-83085531D01*
X237355835Y-83085531D01*
X237926275Y-83655970D01*
X237833331Y-83680875D01*
X237734869Y-83737723D01*
X237654474Y-83818118D01*
X237597626Y-83916580D01*
X237572722Y-84009524D01*
X237002282Y-83439084D01*
X237002282Y-83439085D01*
X236985814Y-83461751D01*
X236901077Y-83628057D01*
X236843397Y-83805576D01*
X236814200Y-83989918D01*
X230977521Y-83989918D01*
X231004786Y-83970109D01*
X231004788Y-83970106D01*
X231004792Y-83970104D01*
X231155104Y-83819792D01*
X231155106Y-83819788D01*
X231155109Y-83819786D01*
X231280048Y-83647820D01*
X231280047Y-83647820D01*
X231280051Y-83647816D01*
X231376557Y-83458412D01*
X231442246Y-83256243D01*
X231475500Y-83046287D01*
X231475500Y-82833713D01*
X231442246Y-82623757D01*
X231376557Y-82421588D01*
X231280051Y-82232184D01*
X231280049Y-82232181D01*
X231280048Y-82232179D01*
X231155109Y-82060213D01*
X231004786Y-81909890D01*
X230832820Y-81784951D01*
X230832115Y-81784591D01*
X230824054Y-81780485D01*
X230773259Y-81732512D01*
X230756463Y-81664692D01*
X230778999Y-81598556D01*
X230824054Y-81559515D01*
X230832816Y-81555051D01*
X230938299Y-81478414D01*
X231004786Y-81430109D01*
X231004788Y-81430106D01*
X231004792Y-81430104D01*
X231155104Y-81279792D01*
X231155106Y-81279788D01*
X231155109Y-81279786D01*
X231280048Y-81107820D01*
X231280047Y-81107820D01*
X231280051Y-81107816D01*
X231376557Y-80918412D01*
X231442246Y-80716243D01*
X231475500Y-80506287D01*
X231475500Y-80293713D01*
X231442246Y-80083757D01*
X231376557Y-79881588D01*
X231280051Y-79692184D01*
X231280049Y-79692181D01*
X231280048Y-79692179D01*
X231155109Y-79520213D01*
X231004786Y-79369890D01*
X230832820Y-79244951D01*
X230832115Y-79244591D01*
X230824054Y-79240485D01*
X230773259Y-79192512D01*
X230756463Y-79124692D01*
X230778999Y-79058556D01*
X230824054Y-79019515D01*
X230832816Y-79015051D01*
X230854789Y-78999086D01*
X231004786Y-78890109D01*
X231004788Y-78890106D01*
X231004792Y-78890104D01*
X231155104Y-78739792D01*
X231155106Y-78739788D01*
X231155109Y-78739786D01*
X231280048Y-78567820D01*
X231280047Y-78567820D01*
X231280051Y-78567816D01*
X231376557Y-78378412D01*
X231442246Y-78176243D01*
X231475500Y-77966287D01*
X231475500Y-77753713D01*
X231442246Y-77543757D01*
X231376557Y-77341588D01*
X231280051Y-77152184D01*
X231280049Y-77152181D01*
X231280048Y-77152179D01*
X231155109Y-76980213D01*
X231004786Y-76829890D01*
X230832820Y-76704951D01*
X230832115Y-76704591D01*
X230824054Y-76700485D01*
X230773259Y-76652512D01*
X230756463Y-76584692D01*
X230778999Y-76518556D01*
X230824054Y-76479515D01*
X230832816Y-76475051D01*
X230854789Y-76459086D01*
X231004786Y-76350109D01*
X231004788Y-76350106D01*
X231004792Y-76350104D01*
X231155104Y-76199792D01*
X231155106Y-76199788D01*
X231155109Y-76199786D01*
X231280048Y-76027820D01*
X231280047Y-76027820D01*
X231280051Y-76027816D01*
X231376557Y-75838412D01*
X231442246Y-75636243D01*
X231475500Y-75426287D01*
X231475500Y-75213713D01*
X231442246Y-75003757D01*
X231376557Y-74801588D01*
X231280051Y-74612184D01*
X231280049Y-74612181D01*
X231280048Y-74612179D01*
X231275989Y-74606592D01*
X231275988Y-74606591D01*
X231155109Y-74440213D01*
X231004786Y-74289890D01*
X230832820Y-74164951D01*
X230832115Y-74164591D01*
X230824054Y-74160485D01*
X230773259Y-74112512D01*
X230756463Y-74044692D01*
X230778999Y-73978556D01*
X230824054Y-73939515D01*
X230832816Y-73935051D01*
X230938299Y-73858414D01*
X231004786Y-73810109D01*
X231004788Y-73810106D01*
X231004792Y-73810104D01*
X231155104Y-73659792D01*
X231155106Y-73659788D01*
X231155109Y-73659786D01*
X231220269Y-73570099D01*
X231278524Y-73489918D01*
X236664200Y-73489918D01*
X236664200Y-73676579D01*
X236693397Y-73860921D01*
X236751077Y-74038440D01*
X236835811Y-74204740D01*
X236852282Y-74227411D01*
X237422721Y-73656972D01*
X237447626Y-73749918D01*
X237504474Y-73848380D01*
X237584869Y-73928775D01*
X237683331Y-73985623D01*
X237776275Y-74010527D01*
X237205835Y-74580965D01*
X237228504Y-74597435D01*
X237394808Y-74682171D01*
X237572327Y-74739851D01*
X237756670Y-74769049D01*
X237943330Y-74769049D01*
X238127672Y-74739851D01*
X238305191Y-74682171D01*
X238471496Y-74597435D01*
X238494162Y-74580966D01*
X238494162Y-74580965D01*
X237923724Y-74010526D01*
X238016669Y-73985623D01*
X238115131Y-73928775D01*
X238195526Y-73848380D01*
X238252374Y-73749918D01*
X238277278Y-73656973D01*
X238847716Y-74227411D01*
X238847717Y-74227411D01*
X238864186Y-74204745D01*
X238948922Y-74038440D01*
X239006602Y-73860921D01*
X239035800Y-73676579D01*
X239035800Y-73489918D01*
X239006602Y-73305576D01*
X238948922Y-73128057D01*
X238864186Y-72961753D01*
X238847716Y-72939085D01*
X238847716Y-72939084D01*
X238277277Y-73509523D01*
X238252374Y-73416580D01*
X238195526Y-73318118D01*
X238115131Y-73237723D01*
X238016669Y-73180875D01*
X237923724Y-73155971D01*
X238494162Y-72585531D01*
X238471491Y-72569060D01*
X238305191Y-72484326D01*
X238127672Y-72426646D01*
X237943330Y-72397449D01*
X237756670Y-72397449D01*
X237572327Y-72426646D01*
X237394808Y-72484326D01*
X237228502Y-72569063D01*
X237205836Y-72585531D01*
X237205835Y-72585531D01*
X237776275Y-73155970D01*
X237683331Y-73180875D01*
X237584869Y-73237723D01*
X237504474Y-73318118D01*
X237447626Y-73416580D01*
X237422722Y-73509524D01*
X236852282Y-72939084D01*
X236852282Y-72939085D01*
X236835814Y-72961751D01*
X236751077Y-73128057D01*
X236693397Y-73305576D01*
X236664200Y-73489918D01*
X231278524Y-73489918D01*
X231280051Y-73487816D01*
X231376557Y-73298412D01*
X231442246Y-73096243D01*
X231475500Y-72886287D01*
X231475500Y-72673713D01*
X231442246Y-72463757D01*
X231376557Y-72261588D01*
X231280051Y-72072184D01*
X231280049Y-72072181D01*
X231280048Y-72072179D01*
X231155109Y-71900213D01*
X231004786Y-71749890D01*
X230832820Y-71624951D01*
X230832115Y-71624591D01*
X230824054Y-71620485D01*
X230773259Y-71572512D01*
X230756463Y-71504692D01*
X230778999Y-71438556D01*
X230824054Y-71399515D01*
X230832816Y-71395051D01*
X230854789Y-71379086D01*
X231004786Y-71270109D01*
X231004788Y-71270106D01*
X231004792Y-71270104D01*
X231155104Y-71119792D01*
X231155106Y-71119788D01*
X231155109Y-71119786D01*
X231280048Y-70947820D01*
X231280047Y-70947820D01*
X231280051Y-70947816D01*
X231376557Y-70758412D01*
X231442246Y-70556243D01*
X231475500Y-70346287D01*
X231475500Y-70133713D01*
X231442246Y-69923757D01*
X231376557Y-69721588D01*
X231280051Y-69532184D01*
X231280049Y-69532181D01*
X231280048Y-69532179D01*
X231155109Y-69360213D01*
X231004786Y-69209890D01*
X230832817Y-69084949D01*
X230823504Y-69080204D01*
X230772707Y-69032230D01*
X230755912Y-68964409D01*
X230778449Y-68898274D01*
X230823507Y-68859232D01*
X230832558Y-68854620D01*
X231004459Y-68729727D01*
X231004464Y-68729723D01*
X231154723Y-68579464D01*
X231154727Y-68579459D01*
X231279620Y-68407557D01*
X231376095Y-68218217D01*
X231441757Y-68016129D01*
X231441757Y-68016126D01*
X231452231Y-67950000D01*
X230558012Y-67950000D01*
X230590925Y-67892993D01*
X230625000Y-67765826D01*
X230625000Y-67634174D01*
X230590925Y-67507007D01*
X230558012Y-67450000D01*
X231452231Y-67450000D01*
X231441757Y-67383873D01*
X231441757Y-67383870D01*
X231376095Y-67181782D01*
X231279620Y-66992442D01*
X231154727Y-66820540D01*
X231154723Y-66820535D01*
X231041053Y-66706865D01*
X231007568Y-66645542D01*
X231012552Y-66575850D01*
X231054424Y-66519917D01*
X231085400Y-66503002D01*
X231217331Y-66453796D01*
X231332546Y-66367546D01*
X231418796Y-66252331D01*
X231434619Y-66209908D01*
X231460258Y-66141167D01*
X231502129Y-66085233D01*
X231567593Y-66060816D01*
X231576440Y-66060500D01*
X236751831Y-66060500D01*
X236818870Y-66080185D01*
X236864625Y-66132989D01*
X236874569Y-66202147D01*
X236869762Y-66222818D01*
X236842910Y-66305459D01*
X236842910Y-66305460D01*
X236832194Y-66373121D01*
X236813700Y-66489886D01*
X236813700Y-66676614D01*
X236818491Y-66706865D01*
X236831057Y-66786204D01*
X236842911Y-66861043D01*
X236900613Y-67038631D01*
X236985385Y-67205007D01*
X237095141Y-67356072D01*
X237227178Y-67488109D01*
X237378243Y-67597865D01*
X237544619Y-67682637D01*
X237722207Y-67740339D01*
X237874166Y-67764407D01*
X237937301Y-67794336D01*
X237942449Y-67799199D01*
X240563181Y-70419930D01*
X240596666Y-70481253D01*
X240599500Y-70507611D01*
X240599500Y-78259888D01*
X240579815Y-78326927D01*
X240527011Y-78372682D01*
X240457853Y-78382626D01*
X240394297Y-78353601D01*
X240387819Y-78347569D01*
X239065949Y-77025699D01*
X239032464Y-76964376D01*
X239031157Y-76957416D01*
X239023664Y-76910109D01*
X239007089Y-76805457D01*
X238949387Y-76627869D01*
X238864615Y-76461493D01*
X238754859Y-76310428D01*
X238622822Y-76178391D01*
X238471757Y-76068635D01*
X238305381Y-75983863D01*
X238127793Y-75926161D01*
X238127791Y-75926160D01*
X238127789Y-75926160D01*
X237999018Y-75905764D01*
X237943364Y-75896950D01*
X237756636Y-75896950D01*
X237713883Y-75903721D01*
X237572210Y-75926160D01*
X237394616Y-75983864D01*
X237228242Y-76068635D01*
X237077176Y-76178392D01*
X236945142Y-76310426D01*
X236835385Y-76461492D01*
X236750614Y-76627866D01*
X236692910Y-76805460D01*
X236665266Y-76980000D01*
X236663700Y-76989886D01*
X236663700Y-77176614D01*
X236663872Y-77177699D01*
X236689829Y-77341588D01*
X236692911Y-77361043D01*
X236712560Y-77421517D01*
X236750614Y-77538633D01*
X236751419Y-77540213D01*
X236835385Y-77705007D01*
X236945141Y-77856072D01*
X237077178Y-77988109D01*
X237228243Y-78097865D01*
X237394619Y-78182637D01*
X237572207Y-78240339D01*
X237724166Y-78264407D01*
X237787301Y-78294336D01*
X237792449Y-78299199D01*
X239178083Y-79684833D01*
X240563181Y-81069930D01*
X240596666Y-81131253D01*
X240599500Y-81157611D01*
X240599500Y-88609888D01*
X240579815Y-88676927D01*
X240527011Y-88722682D01*
X240457853Y-88732626D01*
X240394297Y-88703601D01*
X240387819Y-88697569D01*
X239215949Y-87525699D01*
X239182464Y-87464376D01*
X239181157Y-87457416D01*
X239167345Y-87370213D01*
X239157089Y-87305457D01*
X239099387Y-87127869D01*
X239014615Y-86961493D01*
X238904859Y-86810428D01*
X238772822Y-86678391D01*
X238621757Y-86568635D01*
X238455381Y-86483863D01*
X238277793Y-86426161D01*
X238277791Y-86426160D01*
X238277789Y-86426160D01*
X238149018Y-86405764D01*
X238093364Y-86396950D01*
X237906636Y-86396950D01*
X237863883Y-86403721D01*
X237722210Y-86426160D01*
X237544616Y-86483864D01*
X237378242Y-86568635D01*
X237227176Y-86678392D01*
X237095142Y-86810426D01*
X236985385Y-86961492D01*
X236900614Y-87127866D01*
X236842910Y-87305460D01*
X236813700Y-87489886D01*
X236813700Y-87676613D01*
X236841608Y-87852820D01*
X236842911Y-87861043D01*
X236900613Y-88038631D01*
X236985385Y-88205007D01*
X237095141Y-88356072D01*
X237227178Y-88488109D01*
X237378243Y-88597865D01*
X237544619Y-88682637D01*
X237722207Y-88740339D01*
X237874166Y-88764407D01*
X237937301Y-88794336D01*
X237942449Y-88799199D01*
X240563181Y-91419930D01*
X240596666Y-91481253D01*
X240599500Y-91507611D01*
X240599500Y-99109888D01*
X240579815Y-99176927D01*
X240527011Y-99222682D01*
X240457853Y-99232626D01*
X240394297Y-99203601D01*
X240387819Y-99197569D01*
X239215949Y-98025699D01*
X239182464Y-97964376D01*
X239181157Y-97957416D01*
X239166323Y-97863757D01*
X239157089Y-97805457D01*
X239099387Y-97627869D01*
X239014615Y-97461493D01*
X238904859Y-97310428D01*
X238772822Y-97178391D01*
X238621757Y-97068635D01*
X238455381Y-96983863D01*
X238277793Y-96926161D01*
X238277791Y-96926160D01*
X238277789Y-96926160D01*
X238149018Y-96905764D01*
X238093364Y-96896950D01*
X237906636Y-96896950D01*
X237863883Y-96903721D01*
X237722210Y-96926160D01*
X237544616Y-96983864D01*
X237378242Y-97068635D01*
X237227176Y-97178392D01*
X237095142Y-97310426D01*
X236985385Y-97461492D01*
X236900614Y-97627866D01*
X236842910Y-97805460D01*
X236813700Y-97989886D01*
X236813700Y-98176613D01*
X236842157Y-98356287D01*
X236842911Y-98361043D01*
X236900613Y-98538631D01*
X236985385Y-98705007D01*
X237095141Y-98856072D01*
X237227178Y-98988109D01*
X237378243Y-99097865D01*
X237544619Y-99182637D01*
X237722207Y-99240339D01*
X237874166Y-99264407D01*
X237937301Y-99294336D01*
X237942449Y-99299199D01*
X239381069Y-100737819D01*
X239414554Y-100799142D01*
X239409570Y-100868834D01*
X239367698Y-100924767D01*
X239302234Y-100949184D01*
X239293388Y-100949500D01*
X238561303Y-100949500D01*
X238387341Y-100984103D01*
X238387329Y-100984106D01*
X238305392Y-101018045D01*
X238305393Y-101018046D01*
X238223456Y-101051985D01*
X238223447Y-101051990D01*
X238135134Y-101111000D01*
X238135133Y-101111001D01*
X238075961Y-101150537D01*
X235923717Y-103302781D01*
X235862394Y-103336266D01*
X235836036Y-103339100D01*
X235291729Y-103339100D01*
X235291723Y-103339101D01*
X235232116Y-103345508D01*
X235097271Y-103395802D01*
X235097264Y-103395806D01*
X234982055Y-103482052D01*
X234982052Y-103482055D01*
X234895806Y-103597264D01*
X234895802Y-103597271D01*
X234845508Y-103732117D01*
X234839101Y-103791716D01*
X234839100Y-103791735D01*
X234839100Y-105208270D01*
X234839101Y-105208276D01*
X234845508Y-105267883D01*
X234895802Y-105402728D01*
X234895806Y-105402735D01*
X234982052Y-105517944D01*
X234982054Y-105517946D01*
X235097264Y-105604193D01*
X235097271Y-105604197D01*
X235232117Y-105654491D01*
X235232116Y-105654491D01*
X235239044Y-105655235D01*
X235291727Y-105660900D01*
X235550051Y-105660899D01*
X235617088Y-105680583D01*
X235662843Y-105733387D01*
X235672787Y-105802546D01*
X235643762Y-105866101D01*
X235588370Y-105902829D01*
X235554559Y-105913815D01*
X235391813Y-105996739D01*
X235391808Y-105996743D01*
X235374020Y-106009665D01*
X235374020Y-106009668D01*
X235947154Y-106582800D01*
X235946496Y-106582800D01*
X235843135Y-106610495D01*
X235750464Y-106663999D01*
X235674799Y-106739664D01*
X235621295Y-106832335D01*
X235593600Y-106935696D01*
X235593600Y-106936352D01*
X235020468Y-106363220D01*
X235020465Y-106363220D01*
X235007543Y-106381008D01*
X235007539Y-106381013D01*
X234924616Y-106543756D01*
X234868172Y-106717471D01*
X234839600Y-106897869D01*
X234839600Y-107080530D01*
X234868172Y-107260928D01*
X234924616Y-107434643D01*
X235007535Y-107597378D01*
X235020467Y-107615178D01*
X235593600Y-107042045D01*
X235593600Y-107042704D01*
X235621295Y-107146065D01*
X235674799Y-107238736D01*
X235750464Y-107314401D01*
X235843135Y-107367905D01*
X235946496Y-107395600D01*
X235947153Y-107395600D01*
X235374019Y-107968731D01*
X235391817Y-107981662D01*
X235554556Y-108064583D01*
X235728271Y-108121027D01*
X235908670Y-108149600D01*
X236091330Y-108149600D01*
X236271728Y-108121027D01*
X236445443Y-108064583D01*
X236608178Y-107981665D01*
X236625979Y-107968731D01*
X236052848Y-107395600D01*
X236053504Y-107395600D01*
X236156865Y-107367905D01*
X236249536Y-107314401D01*
X236325201Y-107238736D01*
X236378705Y-107146065D01*
X236406400Y-107042704D01*
X236406400Y-107042047D01*
X236979531Y-107615178D01*
X236992465Y-107597378D01*
X237068117Y-107448903D01*
X240450000Y-107448903D01*
X240450000Y-107900000D01*
X241450000Y-107900000D01*
X241450000Y-106650000D01*
X241248903Y-106650000D01*
X241206175Y-106652897D01*
X241021476Y-106698831D01*
X240850977Y-106783390D01*
X240850974Y-106783392D01*
X240702633Y-106902632D01*
X240702632Y-106902633D01*
X240583392Y-107050974D01*
X240583390Y-107050977D01*
X240498831Y-107221476D01*
X240452897Y-107406175D01*
X240450000Y-107448903D01*
X237068117Y-107448903D01*
X237075383Y-107434643D01*
X237083883Y-107408484D01*
X237083883Y-107408483D01*
X237131826Y-107260932D01*
X237131826Y-107260929D01*
X237160400Y-107080530D01*
X237160400Y-106897869D01*
X237131827Y-106717471D01*
X237075383Y-106543756D01*
X236992462Y-106381017D01*
X236979531Y-106363220D01*
X236979531Y-106363219D01*
X236406400Y-106936351D01*
X236406400Y-106935696D01*
X236378705Y-106832335D01*
X236325201Y-106739664D01*
X236249536Y-106663999D01*
X236156865Y-106610495D01*
X236053504Y-106582800D01*
X236052847Y-106582800D01*
X236625978Y-106009667D01*
X236608178Y-105996735D01*
X236445441Y-105913816D01*
X236411630Y-105902830D01*
X236353954Y-105863392D01*
X236326756Y-105799034D01*
X236338671Y-105730187D01*
X236385915Y-105678712D01*
X236449947Y-105660899D01*
X236708272Y-105660899D01*
X236767883Y-105654491D01*
X236902731Y-105604196D01*
X237017946Y-105517946D01*
X237104196Y-105402731D01*
X237154491Y-105267883D01*
X237160900Y-105208273D01*
X237160899Y-104688076D01*
X237180583Y-104621038D01*
X237197213Y-104600401D01*
X239010797Y-102786819D01*
X239072120Y-102753334D01*
X239098478Y-102750500D01*
X241605304Y-102750500D01*
X241672343Y-102770185D01*
X241715212Y-102817088D01*
X241760300Y-102903404D01*
X241760302Y-102903407D01*
X241760304Y-102903409D01*
X241888890Y-103061109D01*
X241969493Y-103126831D01*
X242046593Y-103189698D01*
X242226951Y-103283909D01*
X242422582Y-103339886D01*
X242541963Y-103350500D01*
X242975500Y-103350499D01*
X243042539Y-103370183D01*
X243088294Y-103422987D01*
X243099500Y-103474499D01*
X243099500Y-106764707D01*
X243091096Y-106793324D01*
X243085175Y-106822564D01*
X243081038Y-106827580D01*
X243079815Y-106831746D01*
X243064432Y-106851119D01*
X243059116Y-106856589D01*
X243002278Y-106902278D01*
X242942679Y-106976421D01*
X242938611Y-106980609D01*
X242913064Y-106995038D01*
X242888982Y-107011803D01*
X242882993Y-107012024D01*
X242877775Y-107014972D01*
X242848483Y-107013299D01*
X242819160Y-107014383D01*
X242814001Y-107011330D01*
X242808019Y-107010989D01*
X242784284Y-106993748D01*
X242759027Y-106978804D01*
X242753031Y-106971884D01*
X242697364Y-106902630D01*
X242549025Y-106783392D01*
X242549022Y-106783390D01*
X242378523Y-106698831D01*
X242193824Y-106652897D01*
X242151097Y-106650000D01*
X241950000Y-106650000D01*
X241950000Y-109650000D01*
X242151097Y-109650000D01*
X242193824Y-109647102D01*
X242378523Y-109601168D01*
X242549022Y-109516609D01*
X242549025Y-109516607D01*
X242697366Y-109397367D01*
X242697367Y-109397366D01*
X242753033Y-109328115D01*
X242810376Y-109288196D01*
X242880198Y-109285616D01*
X242940331Y-109321194D01*
X242946305Y-109328089D01*
X242996473Y-109390500D01*
X243002280Y-109397724D01*
X243150704Y-109517030D01*
X243150707Y-109517032D01*
X243321302Y-109601639D01*
X243321303Y-109601639D01*
X243321307Y-109601641D01*
X243489062Y-109643360D01*
X243549369Y-109678643D01*
X243581027Y-109740928D01*
X243573986Y-109810442D01*
X243546816Y-109851376D01*
X241835013Y-111563181D01*
X241773690Y-111596666D01*
X241747332Y-111599500D01*
X236911306Y-111599500D01*
X236737341Y-111634103D01*
X236737332Y-111634106D01*
X236573459Y-111701983D01*
X236573446Y-111701990D01*
X236425965Y-111800535D01*
X236425961Y-111800538D01*
X236300538Y-111925961D01*
X236300535Y-111925965D01*
X236201990Y-112073446D01*
X236201983Y-112073459D01*
X236134106Y-112237332D01*
X236134103Y-112237341D01*
X236099500Y-112411304D01*
X236099500Y-112588695D01*
X236134103Y-112762658D01*
X236134106Y-112762667D01*
X236201983Y-112926540D01*
X236201990Y-112926553D01*
X236300535Y-113074034D01*
X236300538Y-113074038D01*
X236425961Y-113199461D01*
X236425965Y-113199464D01*
X236573446Y-113298009D01*
X236573459Y-113298016D01*
X236696363Y-113348923D01*
X236737334Y-113365894D01*
X236737336Y-113365894D01*
X236737341Y-113365896D01*
X236911304Y-113400499D01*
X236911307Y-113400500D01*
X236911309Y-113400500D01*
X242260387Y-113400500D01*
X242260388Y-113400499D01*
X242434360Y-113365895D01*
X242516300Y-113331953D01*
X242598241Y-113298013D01*
X242694348Y-113233796D01*
X242745730Y-113199464D01*
X242939626Y-113005568D01*
X243051482Y-112893713D01*
X244149500Y-112893713D01*
X244149500Y-113106286D01*
X244179866Y-113298013D01*
X244182754Y-113316243D01*
X244242460Y-113499999D01*
X244248444Y-113518414D01*
X244344951Y-113707820D01*
X244469890Y-113879786D01*
X244620213Y-114030109D01*
X244792179Y-114155048D01*
X244792181Y-114155049D01*
X244792184Y-114155051D01*
X244981588Y-114251557D01*
X245183757Y-114317246D01*
X245393713Y-114350500D01*
X245393714Y-114350500D01*
X245606286Y-114350500D01*
X245606287Y-114350500D01*
X245816243Y-114317246D01*
X246018412Y-114251557D01*
X246207816Y-114155051D01*
X246314580Y-114077483D01*
X246379786Y-114030109D01*
X246379788Y-114030106D01*
X246379792Y-114030104D01*
X246530104Y-113879792D01*
X246530106Y-113879788D01*
X246530109Y-113879786D01*
X246655048Y-113707820D01*
X246655047Y-113707820D01*
X246655051Y-113707816D01*
X246751557Y-113518412D01*
X246817246Y-113316243D01*
X246850500Y-113106287D01*
X246850500Y-112893713D01*
X246817246Y-112683757D01*
X246751557Y-112481588D01*
X246655051Y-112292184D01*
X246655049Y-112292181D01*
X246655048Y-112292179D01*
X246530109Y-112120213D01*
X246379786Y-111969890D01*
X246207820Y-111844951D01*
X246018414Y-111748444D01*
X246018413Y-111748443D01*
X246018412Y-111748443D01*
X245816243Y-111682754D01*
X245816241Y-111682753D01*
X245816240Y-111682753D01*
X245654957Y-111657208D01*
X245606287Y-111649500D01*
X245393713Y-111649500D01*
X245345042Y-111657208D01*
X245183760Y-111682753D01*
X244981585Y-111748444D01*
X244792179Y-111844951D01*
X244620213Y-111969890D01*
X244469890Y-112120213D01*
X244344951Y-112292179D01*
X244248444Y-112481585D01*
X244182753Y-112683760D01*
X244149500Y-112893713D01*
X243051482Y-112893713D01*
X243144035Y-112801160D01*
X246258374Y-109686818D01*
X246319697Y-109653333D01*
X246346055Y-109650499D01*
X246751123Y-109650499D01*
X246751123Y-109650498D01*
X246793889Y-109647600D01*
X246978693Y-109601641D01*
X247149296Y-109517030D01*
X247297722Y-109397722D01*
X247297723Y-109397719D01*
X247297813Y-109397648D01*
X247362396Y-109370989D01*
X247431141Y-109383479D01*
X247482219Y-109431153D01*
X247499500Y-109494295D01*
X247499500Y-114875500D01*
X247479815Y-114942539D01*
X247427011Y-114988294D01*
X247375500Y-114999500D01*
X188624500Y-114999500D01*
X188557461Y-114979815D01*
X188511706Y-114927011D01*
X188500500Y-114875500D01*
X188500500Y-112893713D01*
X189149500Y-112893713D01*
X189149500Y-113106286D01*
X189179866Y-113298013D01*
X189182754Y-113316243D01*
X189242460Y-113499999D01*
X189248444Y-113518414D01*
X189344951Y-113707820D01*
X189469890Y-113879786D01*
X189620213Y-114030109D01*
X189792179Y-114155048D01*
X189792181Y-114155049D01*
X189792184Y-114155051D01*
X189981588Y-114251557D01*
X190183757Y-114317246D01*
X190393713Y-114350500D01*
X190393714Y-114350500D01*
X190606286Y-114350500D01*
X190606287Y-114350500D01*
X190816243Y-114317246D01*
X191018412Y-114251557D01*
X191207816Y-114155051D01*
X191314580Y-114077483D01*
X191379786Y-114030109D01*
X191379788Y-114030106D01*
X191379792Y-114030104D01*
X191530104Y-113879792D01*
X191530106Y-113879788D01*
X191530109Y-113879786D01*
X191655048Y-113707820D01*
X191655047Y-113707820D01*
X191655051Y-113707816D01*
X191751557Y-113518412D01*
X191817246Y-113316243D01*
X191850500Y-113106287D01*
X191850500Y-112893713D01*
X191817246Y-112683757D01*
X191751557Y-112481588D01*
X191655051Y-112292184D01*
X191655049Y-112292181D01*
X191655048Y-112292179D01*
X191530109Y-112120213D01*
X191379786Y-111969890D01*
X191207820Y-111844951D01*
X191018414Y-111748444D01*
X191018413Y-111748443D01*
X191018412Y-111748443D01*
X190816243Y-111682754D01*
X190816241Y-111682753D01*
X190816240Y-111682753D01*
X190654957Y-111657208D01*
X190606287Y-111649500D01*
X190393713Y-111649500D01*
X190345042Y-111657208D01*
X190183760Y-111682753D01*
X189981585Y-111748444D01*
X189792179Y-111844951D01*
X189620213Y-111969890D01*
X189469890Y-112120213D01*
X189344951Y-112292179D01*
X189248444Y-112481585D01*
X189182753Y-112683760D01*
X189149500Y-112893713D01*
X188500500Y-112893713D01*
X188500500Y-73233713D01*
X195649500Y-73233713D01*
X195649500Y-73446286D01*
X195680196Y-73640097D01*
X195682754Y-73656243D01*
X195745183Y-73848380D01*
X195748444Y-73858414D01*
X195844951Y-74047820D01*
X195969890Y-74219786D01*
X196120213Y-74370109D01*
X196292182Y-74495050D01*
X196300946Y-74499516D01*
X196351742Y-74547491D01*
X196368536Y-74615312D01*
X196345998Y-74681447D01*
X196300946Y-74720484D01*
X196292182Y-74724949D01*
X196120213Y-74849890D01*
X195969890Y-75000213D01*
X195844951Y-75172179D01*
X195748444Y-75361585D01*
X195682753Y-75563760D01*
X195649500Y-75773713D01*
X195649500Y-75986287D01*
X195656078Y-76027816D01*
X195679926Y-76178392D01*
X195682754Y-76196243D01*
X195732748Y-76350109D01*
X195748444Y-76398414D01*
X195844951Y-76587820D01*
X195969890Y-76759786D01*
X196120213Y-76910109D01*
X196292182Y-77035050D01*
X196300946Y-77039516D01*
X196351742Y-77087491D01*
X196368536Y-77155312D01*
X196345998Y-77221447D01*
X196300946Y-77260484D01*
X196292182Y-77264949D01*
X196120213Y-77389890D01*
X195969890Y-77540213D01*
X195844951Y-77712179D01*
X195748444Y-77901585D01*
X195682753Y-78103760D01*
X195661121Y-78240339D01*
X195649500Y-78313713D01*
X195649500Y-78526287D01*
X195656078Y-78567816D01*
X195673362Y-78676949D01*
X195682754Y-78736243D01*
X195732748Y-78890109D01*
X195748444Y-78938414D01*
X195844951Y-79127820D01*
X195969890Y-79299786D01*
X196120213Y-79450109D01*
X196292182Y-79575050D01*
X196300946Y-79579516D01*
X196351742Y-79627491D01*
X196368536Y-79695312D01*
X196345998Y-79761447D01*
X196300946Y-79800484D01*
X196292182Y-79804949D01*
X196120213Y-79929890D01*
X195969890Y-80080213D01*
X195844951Y-80252179D01*
X195748444Y-80441585D01*
X195682753Y-80643760D01*
X195682753Y-80643762D01*
X195649500Y-80853713D01*
X195649500Y-81066287D01*
X195682754Y-81276243D01*
X195732748Y-81430109D01*
X195748444Y-81478414D01*
X195844951Y-81667820D01*
X195969890Y-81839786D01*
X196083818Y-81953714D01*
X196117303Y-82015037D01*
X196112319Y-82084729D01*
X196070447Y-82140662D01*
X196039471Y-82157577D01*
X195907912Y-82206646D01*
X195907906Y-82206649D01*
X195792812Y-82292809D01*
X195792809Y-82292812D01*
X195706649Y-82407906D01*
X195706645Y-82407913D01*
X195656403Y-82542620D01*
X195656401Y-82542627D01*
X195650000Y-82602155D01*
X195650000Y-83250000D01*
X196566988Y-83250000D01*
X196534075Y-83307007D01*
X196500000Y-83434174D01*
X196500000Y-83565826D01*
X196534075Y-83692993D01*
X196566988Y-83750000D01*
X195650000Y-83750000D01*
X195650000Y-84397844D01*
X195656401Y-84457372D01*
X195656403Y-84457379D01*
X195706645Y-84592086D01*
X195706649Y-84592093D01*
X195792809Y-84707187D01*
X195792812Y-84707190D01*
X195907906Y-84793350D01*
X195907913Y-84793354D01*
X196042620Y-84843596D01*
X196042627Y-84843598D01*
X196102155Y-84849999D01*
X196102172Y-84850000D01*
X196750000Y-84850000D01*
X196750000Y-83933012D01*
X196807007Y-83965925D01*
X196934174Y-84000000D01*
X197065826Y-84000000D01*
X197192993Y-83965925D01*
X197250000Y-83933012D01*
X197250000Y-84850000D01*
X197897828Y-84850000D01*
X197897844Y-84849999D01*
X197957372Y-84843598D01*
X197957379Y-84843596D01*
X198092086Y-84793354D01*
X198092093Y-84793350D01*
X198207187Y-84707190D01*
X198207190Y-84707187D01*
X198293350Y-84592093D01*
X198293354Y-84592086D01*
X198343596Y-84457379D01*
X198343598Y-84457372D01*
X198349999Y-84397844D01*
X198350000Y-84397827D01*
X198350000Y-83750000D01*
X197433012Y-83750000D01*
X197465925Y-83692993D01*
X197500000Y-83565826D01*
X197500000Y-83434174D01*
X197465925Y-83307007D01*
X197433012Y-83250000D01*
X198350000Y-83250000D01*
X198350000Y-82602172D01*
X198349999Y-82602155D01*
X198343598Y-82542627D01*
X198343596Y-82542620D01*
X198293354Y-82407913D01*
X198293350Y-82407906D01*
X198207190Y-82292812D01*
X198207187Y-82292809D01*
X198092093Y-82206649D01*
X198092088Y-82206646D01*
X197960528Y-82157577D01*
X197904595Y-82115705D01*
X197880178Y-82050241D01*
X197895030Y-81981968D01*
X197916175Y-81953720D01*
X198030104Y-81839792D01*
X198069950Y-81784949D01*
X198155048Y-81667820D01*
X198155047Y-81667820D01*
X198155051Y-81667816D01*
X198251557Y-81478412D01*
X198317246Y-81276243D01*
X198350500Y-81066287D01*
X198350500Y-80853713D01*
X198317246Y-80643757D01*
X198290847Y-80562513D01*
X198288853Y-80492675D01*
X198321096Y-80436518D01*
X201336094Y-77421521D01*
X201336099Y-77421517D01*
X201346302Y-77411313D01*
X201346304Y-77411313D01*
X201451313Y-77306304D01*
X201525565Y-77177696D01*
X201547737Y-77094949D01*
X201564000Y-77034253D01*
X201564000Y-76885748D01*
X201564000Y-67784977D01*
X201583685Y-67717938D01*
X201600314Y-67697301D01*
X203189933Y-66107681D01*
X203251254Y-66074198D01*
X203320946Y-66079182D01*
X203376879Y-66121054D01*
X203393794Y-66152031D01*
X203431202Y-66252328D01*
X203431206Y-66252335D01*
X203517452Y-66367544D01*
X203517455Y-66367547D01*
X203632664Y-66453793D01*
X203632671Y-66453797D01*
X203632674Y-66453798D01*
X203764598Y-66503002D01*
X203820531Y-66544873D01*
X203844949Y-66610337D01*
X203830098Y-66678610D01*
X203808947Y-66706865D01*
X203695271Y-66820541D01*
X203570379Y-66992442D01*
X203473904Y-67181782D01*
X203408242Y-67383870D01*
X203408242Y-67383873D01*
X203397769Y-67450000D01*
X204291988Y-67450000D01*
X204259075Y-67507007D01*
X204225000Y-67634174D01*
X204225000Y-67765826D01*
X204259075Y-67892993D01*
X204291988Y-67950000D01*
X203397769Y-67950000D01*
X203408242Y-68016126D01*
X203408242Y-68016129D01*
X203473904Y-68218217D01*
X203570379Y-68407557D01*
X203695272Y-68579459D01*
X203695276Y-68579464D01*
X203845535Y-68729723D01*
X203845540Y-68729727D01*
X204017444Y-68854622D01*
X204026495Y-68859234D01*
X204077292Y-68907208D01*
X204094087Y-68975029D01*
X204071550Y-69041164D01*
X204026499Y-69080202D01*
X204017182Y-69084949D01*
X203845213Y-69209890D01*
X203694890Y-69360213D01*
X203569951Y-69532179D01*
X203473444Y-69721585D01*
X203407753Y-69923760D01*
X203374500Y-70133713D01*
X203374500Y-70346286D01*
X203407753Y-70556239D01*
X203473444Y-70758414D01*
X203569951Y-70947820D01*
X203694890Y-71119786D01*
X203845213Y-71270109D01*
X204017182Y-71395050D01*
X204025946Y-71399516D01*
X204076742Y-71447491D01*
X204093536Y-71515312D01*
X204070998Y-71581447D01*
X204025946Y-71620484D01*
X204017182Y-71624949D01*
X203845213Y-71749890D01*
X203694890Y-71900213D01*
X203569951Y-72072179D01*
X203473444Y-72261585D01*
X203407753Y-72463760D01*
X203377910Y-72652183D01*
X203374500Y-72673713D01*
X203374500Y-72886287D01*
X203407754Y-73096243D01*
X203472659Y-73296000D01*
X203473444Y-73298414D01*
X203569951Y-73487820D01*
X203694890Y-73659786D01*
X203845213Y-73810109D01*
X204017182Y-73935050D01*
X204025946Y-73939516D01*
X204076742Y-73987491D01*
X204093536Y-74055312D01*
X204070998Y-74121447D01*
X204025946Y-74160484D01*
X204017182Y-74164949D01*
X203845213Y-74289890D01*
X203694890Y-74440213D01*
X203569951Y-74612179D01*
X203473444Y-74801585D01*
X203407753Y-75003760D01*
X203374500Y-75213713D01*
X203374500Y-75426286D01*
X203407753Y-75636239D01*
X203473444Y-75838414D01*
X203569951Y-76027820D01*
X203694890Y-76199786D01*
X203845213Y-76350109D01*
X204017182Y-76475050D01*
X204025946Y-76479516D01*
X204076742Y-76527491D01*
X204093536Y-76595312D01*
X204070998Y-76661447D01*
X204025946Y-76700484D01*
X204017182Y-76704949D01*
X203845213Y-76829890D01*
X203694890Y-76980213D01*
X203569951Y-77152179D01*
X203473444Y-77341585D01*
X203407753Y-77543760D01*
X203374500Y-77753713D01*
X203374500Y-77966286D01*
X203402601Y-78143713D01*
X203407754Y-78176243D01*
X203471581Y-78372682D01*
X203473444Y-78378414D01*
X203569951Y-78567820D01*
X203694890Y-78739786D01*
X203845213Y-78890109D01*
X204017182Y-79015050D01*
X204025946Y-79019516D01*
X204076742Y-79067491D01*
X204093536Y-79135312D01*
X204070998Y-79201447D01*
X204025946Y-79240484D01*
X204017182Y-79244949D01*
X203845213Y-79369890D01*
X203694890Y-79520213D01*
X203569951Y-79692179D01*
X203473444Y-79881585D01*
X203407753Y-80083760D01*
X203374500Y-80293713D01*
X203374500Y-80506286D01*
X203407753Y-80716239D01*
X203473444Y-80918414D01*
X203569951Y-81107820D01*
X203694890Y-81279786D01*
X203845213Y-81430109D01*
X204017182Y-81555050D01*
X204025946Y-81559516D01*
X204076742Y-81607491D01*
X204093536Y-81675312D01*
X204070998Y-81741447D01*
X204025946Y-81780484D01*
X204017182Y-81784949D01*
X203845213Y-81909890D01*
X203694890Y-82060213D01*
X203569951Y-82232179D01*
X203473444Y-82421585D01*
X203407753Y-82623760D01*
X203384607Y-82769901D01*
X203374500Y-82833713D01*
X203374500Y-83046287D01*
X203407754Y-83256243D01*
X203467163Y-83439085D01*
X203473444Y-83458414D01*
X203569951Y-83647820D01*
X203694890Y-83819786D01*
X203845213Y-83970109D01*
X204017182Y-84095050D01*
X204025946Y-84099516D01*
X204076742Y-84147491D01*
X204093536Y-84215312D01*
X204070998Y-84281447D01*
X204025946Y-84320484D01*
X204017182Y-84324949D01*
X203845213Y-84449890D01*
X203694890Y-84600213D01*
X203569951Y-84772179D01*
X203473444Y-84961585D01*
X203473443Y-84961587D01*
X203473443Y-84961588D01*
X203440598Y-85062672D01*
X203407753Y-85163760D01*
X203374500Y-85373713D01*
X203374500Y-85586286D01*
X203407753Y-85796239D01*
X203473444Y-85998414D01*
X203569951Y-86187820D01*
X203694890Y-86359786D01*
X203845213Y-86510109D01*
X204017182Y-86635050D01*
X204025946Y-86639516D01*
X204076742Y-86687491D01*
X204093536Y-86755312D01*
X204070998Y-86821447D01*
X204025946Y-86860484D01*
X204017182Y-86864949D01*
X203845213Y-86989890D01*
X203694890Y-87140213D01*
X203569951Y-87312179D01*
X203473444Y-87501585D01*
X203473443Y-87501587D01*
X203473443Y-87501588D01*
X203440598Y-87602672D01*
X203407753Y-87703760D01*
X203374500Y-87913713D01*
X203374500Y-88126286D01*
X203407398Y-88334000D01*
X203407754Y-88336243D01*
X203470880Y-88530525D01*
X203473444Y-88538414D01*
X203569951Y-88727820D01*
X203694890Y-88899786D01*
X203845213Y-89050109D01*
X204017182Y-89175050D01*
X204025946Y-89179516D01*
X204076742Y-89227491D01*
X204093536Y-89295312D01*
X204070998Y-89361447D01*
X204025946Y-89400484D01*
X204017182Y-89404949D01*
X203845213Y-89529890D01*
X203694890Y-89680213D01*
X203569951Y-89852179D01*
X203473444Y-90041585D01*
X203407753Y-90243760D01*
X203374500Y-90453713D01*
X203374500Y-90666286D01*
X203407753Y-90876240D01*
X203407754Y-90876244D01*
X203434150Y-90957484D01*
X203436145Y-91027325D01*
X203403900Y-91083482D01*
X201653698Y-92833685D01*
X201548689Y-92938693D01*
X201548685Y-92938699D01*
X201474436Y-93067301D01*
X201474435Y-93067304D01*
X201436000Y-93210748D01*
X201436000Y-102990021D01*
X201427355Y-103019461D01*
X201420832Y-103049448D01*
X201417077Y-103054463D01*
X201416315Y-103057060D01*
X201399681Y-103077702D01*
X201337181Y-103140202D01*
X201275858Y-103173687D01*
X201206166Y-103168703D01*
X201150233Y-103126831D01*
X201125816Y-103061367D01*
X201125500Y-103052521D01*
X201125500Y-102853713D01*
X201109601Y-102753334D01*
X201092246Y-102643757D01*
X201026557Y-102441588D01*
X200930051Y-102252184D01*
X200930049Y-102252181D01*
X200930048Y-102252179D01*
X200805109Y-102080213D01*
X200654786Y-101929890D01*
X200482820Y-101804951D01*
X200482115Y-101804591D01*
X200474054Y-101800485D01*
X200423259Y-101752512D01*
X200406463Y-101684692D01*
X200428999Y-101618556D01*
X200474054Y-101579515D01*
X200482816Y-101575051D01*
X200504789Y-101559086D01*
X200654786Y-101450109D01*
X200654788Y-101450106D01*
X200654792Y-101450104D01*
X200805104Y-101299792D01*
X200805106Y-101299788D01*
X200805109Y-101299786D01*
X200930048Y-101127820D01*
X200930047Y-101127820D01*
X200930051Y-101127816D01*
X201026557Y-100938412D01*
X201092246Y-100736243D01*
X201125500Y-100526287D01*
X201125500Y-100313713D01*
X201092246Y-100103757D01*
X201026557Y-99901588D01*
X200930051Y-99712184D01*
X200930049Y-99712181D01*
X200930048Y-99712179D01*
X200805109Y-99540213D01*
X200654786Y-99389890D01*
X200482820Y-99264951D01*
X200481752Y-99264407D01*
X200474054Y-99260485D01*
X200423259Y-99212512D01*
X200406463Y-99144692D01*
X200428999Y-99078556D01*
X200474054Y-99039515D01*
X200482816Y-99035051D01*
X200547427Y-98988109D01*
X200654786Y-98910109D01*
X200654788Y-98910106D01*
X200654792Y-98910104D01*
X200805104Y-98759792D01*
X200805106Y-98759788D01*
X200805109Y-98759786D01*
X200930048Y-98587820D01*
X200930047Y-98587820D01*
X200930051Y-98587816D01*
X201026557Y-98398412D01*
X201092246Y-98196243D01*
X201125500Y-97986287D01*
X201125500Y-97773713D01*
X201092246Y-97563757D01*
X201026557Y-97361588D01*
X200930051Y-97172184D01*
X200930049Y-97172181D01*
X200930048Y-97172179D01*
X200805109Y-97000213D01*
X200654786Y-96849890D01*
X200482820Y-96724951D01*
X200482115Y-96724591D01*
X200474054Y-96720485D01*
X200423259Y-96672512D01*
X200406463Y-96604692D01*
X200428999Y-96538556D01*
X200474054Y-96499515D01*
X200482816Y-96495051D01*
X200504789Y-96479086D01*
X200654786Y-96370109D01*
X200654788Y-96370106D01*
X200654792Y-96370104D01*
X200805104Y-96219792D01*
X200805106Y-96219788D01*
X200805109Y-96219786D01*
X200930048Y-96047820D01*
X200930047Y-96047820D01*
X200930051Y-96047816D01*
X201026557Y-95858412D01*
X201092246Y-95656243D01*
X201125500Y-95446287D01*
X201125500Y-95233713D01*
X201092246Y-95023757D01*
X201026557Y-94821588D01*
X200930051Y-94632184D01*
X200930049Y-94632181D01*
X200930048Y-94632179D01*
X200805109Y-94460213D01*
X200654786Y-94309890D01*
X200482820Y-94184951D01*
X200474820Y-94180875D01*
X200474054Y-94180485D01*
X200423259Y-94132512D01*
X200406463Y-94064692D01*
X200428999Y-93998556D01*
X200474054Y-93959515D01*
X200482816Y-93955051D01*
X200504793Y-93939084D01*
X200654786Y-93830109D01*
X200654788Y-93830106D01*
X200654792Y-93830104D01*
X200805104Y-93679792D01*
X200805106Y-93679788D01*
X200805109Y-93679786D01*
X200930048Y-93507820D01*
X200930047Y-93507820D01*
X200930051Y-93507816D01*
X201026557Y-93318412D01*
X201092246Y-93116243D01*
X201125500Y-92906287D01*
X201125500Y-92693713D01*
X201092246Y-92483757D01*
X201026557Y-92281588D01*
X200930051Y-92092184D01*
X200930049Y-92092181D01*
X200930048Y-92092179D01*
X200805109Y-91920213D01*
X200654786Y-91769890D01*
X200482817Y-91644949D01*
X200473504Y-91640204D01*
X200422707Y-91592230D01*
X200405912Y-91524409D01*
X200428449Y-91458274D01*
X200473507Y-91419232D01*
X200482558Y-91414620D01*
X200654459Y-91289727D01*
X200654464Y-91289723D01*
X200804723Y-91139464D01*
X200804727Y-91139459D01*
X200929620Y-90967557D01*
X201026095Y-90778217D01*
X201091757Y-90576129D01*
X201091757Y-90576126D01*
X201102231Y-90510000D01*
X200208012Y-90510000D01*
X200240925Y-90452993D01*
X200275000Y-90325826D01*
X200275000Y-90194174D01*
X200240925Y-90067007D01*
X200208012Y-90010000D01*
X201102231Y-90010000D01*
X201091757Y-89943873D01*
X201091757Y-89943870D01*
X201026095Y-89741782D01*
X200929620Y-89552442D01*
X200804727Y-89380540D01*
X200804723Y-89380535D01*
X200654464Y-89230276D01*
X200654459Y-89230272D01*
X200482557Y-89105379D01*
X200293215Y-89008903D01*
X200091124Y-88943241D01*
X200025000Y-88932768D01*
X200025000Y-89826988D01*
X199967993Y-89794075D01*
X199840826Y-89760000D01*
X199709174Y-89760000D01*
X199582007Y-89794075D01*
X199525000Y-89826988D01*
X199525000Y-88932768D01*
X199524999Y-88932768D01*
X199458875Y-88943241D01*
X199256784Y-89008903D01*
X199067442Y-89105379D01*
X198895540Y-89230272D01*
X198895535Y-89230276D01*
X198745276Y-89380535D01*
X198745272Y-89380540D01*
X198620379Y-89552442D01*
X198523904Y-89741782D01*
X198458242Y-89943870D01*
X198458242Y-89943873D01*
X198447769Y-90010000D01*
X199341988Y-90010000D01*
X199309075Y-90067007D01*
X199275000Y-90194174D01*
X199275000Y-90325826D01*
X199309075Y-90452993D01*
X199341988Y-90510000D01*
X198447769Y-90510000D01*
X198458242Y-90576126D01*
X198458242Y-90576129D01*
X198523904Y-90778217D01*
X198620379Y-90967557D01*
X198745272Y-91139459D01*
X198745276Y-91139464D01*
X198895535Y-91289723D01*
X198895540Y-91289727D01*
X199067444Y-91414622D01*
X199076495Y-91419234D01*
X199127292Y-91467208D01*
X199144087Y-91535029D01*
X199121550Y-91601164D01*
X199076499Y-91640202D01*
X199067182Y-91644949D01*
X198895213Y-91769890D01*
X198744890Y-91920213D01*
X198619951Y-92092179D01*
X198523444Y-92281585D01*
X198457753Y-92483760D01*
X198424500Y-92693713D01*
X198424500Y-92906286D01*
X198457246Y-93113039D01*
X198457754Y-93116243D01*
X198487011Y-93206287D01*
X198523444Y-93318414D01*
X198619951Y-93507820D01*
X198744890Y-93679786D01*
X198895213Y-93830109D01*
X199067182Y-93955050D01*
X199075946Y-93959516D01*
X199126742Y-94007491D01*
X199143536Y-94075312D01*
X199120998Y-94141447D01*
X199075946Y-94180484D01*
X199067182Y-94184949D01*
X198895213Y-94309890D01*
X198744890Y-94460213D01*
X198619951Y-94632179D01*
X198523444Y-94821585D01*
X198457753Y-95023760D01*
X198424500Y-95233713D01*
X198424500Y-95446286D01*
X198448439Y-95597435D01*
X198457754Y-95656243D01*
X198512040Y-95823318D01*
X198523444Y-95858414D01*
X198619951Y-96047820D01*
X198744890Y-96219786D01*
X198895213Y-96370109D01*
X199067182Y-96495050D01*
X199075946Y-96499516D01*
X199126742Y-96547491D01*
X199143536Y-96615312D01*
X199120998Y-96681447D01*
X199075946Y-96720484D01*
X199067182Y-96724949D01*
X198895213Y-96849890D01*
X198744890Y-97000213D01*
X198619951Y-97172179D01*
X198523444Y-97361585D01*
X198457753Y-97563760D01*
X198442259Y-97661585D01*
X198424500Y-97773713D01*
X198424500Y-97986287D01*
X198457754Y-98196243D01*
X198487011Y-98286287D01*
X198523444Y-98398414D01*
X198619951Y-98587820D01*
X198744890Y-98759786D01*
X198895213Y-98910109D01*
X199067182Y-99035050D01*
X199075946Y-99039516D01*
X199126742Y-99087491D01*
X199143536Y-99155312D01*
X199120998Y-99221447D01*
X199075946Y-99260484D01*
X199067182Y-99264949D01*
X198895213Y-99389890D01*
X198744890Y-99540213D01*
X198619951Y-99712179D01*
X198523444Y-99901585D01*
X198457753Y-100103760D01*
X198435787Y-100242449D01*
X198424500Y-100313713D01*
X198424500Y-100526287D01*
X198457754Y-100736243D01*
X198519009Y-100924767D01*
X198523444Y-100938414D01*
X198619951Y-101127820D01*
X198744890Y-101299786D01*
X198895213Y-101450109D01*
X199067182Y-101575050D01*
X199075946Y-101579516D01*
X199126742Y-101627491D01*
X199143536Y-101695312D01*
X199120998Y-101761447D01*
X199075946Y-101800484D01*
X199067182Y-101804949D01*
X198895213Y-101929890D01*
X198744890Y-102080213D01*
X198619951Y-102252179D01*
X198523444Y-102441585D01*
X198457753Y-102643760D01*
X198424500Y-102853713D01*
X198424500Y-103066286D01*
X198444046Y-103189698D01*
X198457754Y-103276243D01*
X198505434Y-103422987D01*
X198523444Y-103478414D01*
X198619951Y-103667820D01*
X198744890Y-103839786D01*
X198895213Y-103990109D01*
X199067182Y-104115050D01*
X199075946Y-104119516D01*
X199126742Y-104167491D01*
X199143536Y-104235312D01*
X199120998Y-104301447D01*
X199075946Y-104340484D01*
X199067182Y-104344949D01*
X198895213Y-104469890D01*
X198744890Y-104620213D01*
X198619951Y-104792179D01*
X198523444Y-104981585D01*
X198457753Y-105183760D01*
X198444429Y-105267886D01*
X198424500Y-105393713D01*
X198424500Y-105606287D01*
X198432135Y-105654491D01*
X198455584Y-105802546D01*
X198457754Y-105816243D01*
X198516402Y-105996743D01*
X198523444Y-106018414D01*
X198619951Y-106207820D01*
X198744890Y-106379786D01*
X198895213Y-106530109D01*
X199067182Y-106655050D01*
X199075946Y-106659516D01*
X199126742Y-106707491D01*
X199143536Y-106775312D01*
X199120998Y-106841447D01*
X199075946Y-106880484D01*
X199067182Y-106884949D01*
X198895213Y-107009890D01*
X198744890Y-107160213D01*
X198619951Y-107332179D01*
X198523444Y-107521585D01*
X198457753Y-107723760D01*
X198424500Y-107933713D01*
X198424500Y-108146286D01*
X198457753Y-108356239D01*
X198523444Y-108558414D01*
X198619951Y-108747820D01*
X198744890Y-108919786D01*
X198895213Y-109070109D01*
X199067179Y-109195048D01*
X199067181Y-109195049D01*
X199067184Y-109195051D01*
X199076493Y-109199794D01*
X199127290Y-109247766D01*
X199144087Y-109315587D01*
X199121552Y-109381722D01*
X199076502Y-109420762D01*
X199067443Y-109425378D01*
X198895540Y-109550272D01*
X198895535Y-109550276D01*
X198745276Y-109700535D01*
X198745272Y-109700540D01*
X198620379Y-109872442D01*
X198523904Y-110061782D01*
X198458242Y-110263870D01*
X198458242Y-110263873D01*
X198447769Y-110330000D01*
X199341988Y-110330000D01*
X199309075Y-110387007D01*
X199275000Y-110514174D01*
X199275000Y-110645826D01*
X199309075Y-110772993D01*
X199341988Y-110830000D01*
X198447769Y-110830000D01*
X198458242Y-110896126D01*
X198458242Y-110896129D01*
X198523904Y-111098217D01*
X198620379Y-111287557D01*
X198745272Y-111459459D01*
X198745276Y-111459464D01*
X198858946Y-111573134D01*
X198892431Y-111634457D01*
X198887447Y-111704149D01*
X198845575Y-111760082D01*
X198814598Y-111776997D01*
X198682671Y-111826202D01*
X198682664Y-111826206D01*
X198567455Y-111912452D01*
X198567452Y-111912455D01*
X198481206Y-112027664D01*
X198481202Y-112027671D01*
X198430908Y-112162517D01*
X198424501Y-112222116D01*
X198424500Y-112222135D01*
X198424500Y-114017870D01*
X198424501Y-114017876D01*
X198430908Y-114077483D01*
X198481202Y-114212328D01*
X198481206Y-114212335D01*
X198567452Y-114327544D01*
X198567455Y-114327547D01*
X198682664Y-114413793D01*
X198682671Y-114413797D01*
X198817517Y-114464091D01*
X198817516Y-114464091D01*
X198824444Y-114464835D01*
X198877127Y-114470500D01*
X200672872Y-114470499D01*
X200732483Y-114464091D01*
X200867331Y-114413796D01*
X200982546Y-114327546D01*
X201068796Y-114212331D01*
X201119091Y-114077483D01*
X201125500Y-114017873D01*
X201125499Y-112618476D01*
X201145184Y-112551438D01*
X201161813Y-112530801D01*
X202492601Y-111200013D01*
X206650000Y-111200013D01*
X206650000Y-111750000D01*
X207566988Y-111750000D01*
X207534075Y-111807007D01*
X207500000Y-111934174D01*
X207500000Y-112065826D01*
X207534075Y-112192993D01*
X207566988Y-112250000D01*
X206650001Y-112250000D01*
X206650001Y-112799986D01*
X206660494Y-112902697D01*
X206715641Y-113069119D01*
X206715643Y-113069124D01*
X206807684Y-113218345D01*
X206931654Y-113342315D01*
X207080875Y-113434356D01*
X207080880Y-113434358D01*
X207247302Y-113489505D01*
X207247309Y-113489506D01*
X207350019Y-113499999D01*
X207749999Y-113499999D01*
X207750000Y-113499998D01*
X207750000Y-112433012D01*
X207807007Y-112465925D01*
X207934174Y-112500000D01*
X208065826Y-112500000D01*
X208192993Y-112465925D01*
X208250000Y-112433012D01*
X208250000Y-113499999D01*
X208649972Y-113499999D01*
X208649986Y-113499998D01*
X208752697Y-113489505D01*
X208919119Y-113434358D01*
X208919124Y-113434356D01*
X209068345Y-113342315D01*
X209192317Y-113218343D01*
X209287815Y-113063516D01*
X209339763Y-113016791D01*
X209408725Y-113005568D01*
X209472808Y-113033412D01*
X209481035Y-113040931D01*
X209620213Y-113180109D01*
X209792179Y-113305048D01*
X209792181Y-113305049D01*
X209792184Y-113305051D01*
X209981588Y-113401557D01*
X210183757Y-113467246D01*
X210393713Y-113500500D01*
X210393714Y-113500500D01*
X210606286Y-113500500D01*
X210606287Y-113500500D01*
X210816243Y-113467246D01*
X211018412Y-113401557D01*
X211207816Y-113305051D01*
X211258975Y-113267882D01*
X211379786Y-113180109D01*
X211379788Y-113180106D01*
X211379792Y-113180104D01*
X211530104Y-113029792D01*
X211530106Y-113029788D01*
X211530109Y-113029786D01*
X211655048Y-112857820D01*
X211655047Y-112857820D01*
X211655051Y-112857816D01*
X211751557Y-112668412D01*
X211817246Y-112466243D01*
X211850500Y-112256287D01*
X211850500Y-111743713D01*
X211817246Y-111533757D01*
X211751557Y-111331588D01*
X211665217Y-111162135D01*
X215399500Y-111162135D01*
X215399500Y-112837870D01*
X215399501Y-112837876D01*
X215405908Y-112897483D01*
X215456202Y-113032328D01*
X215456206Y-113032335D01*
X215542452Y-113147544D01*
X215542455Y-113147547D01*
X215657664Y-113233793D01*
X215657671Y-113233797D01*
X215792517Y-113284091D01*
X215792516Y-113284091D01*
X215799444Y-113284835D01*
X215852127Y-113290500D01*
X217527872Y-113290499D01*
X217587483Y-113284091D01*
X217722331Y-113233796D01*
X217837546Y-113147546D01*
X217923796Y-113032331D01*
X217974091Y-112897483D01*
X217980500Y-112837873D01*
X217980499Y-111898435D01*
X223019500Y-111898435D01*
X223019500Y-112101564D01*
X223051277Y-112302194D01*
X223051277Y-112302197D01*
X223114045Y-112495377D01*
X223160156Y-112585874D01*
X223176768Y-112618477D01*
X223206268Y-112676372D01*
X223325656Y-112840697D01*
X223325660Y-112840702D01*
X223469297Y-112984339D01*
X223469302Y-112984343D01*
X223585987Y-113069119D01*
X223633631Y-113103734D01*
X223783515Y-113180104D01*
X223814622Y-113195954D01*
X224007803Y-113258722D01*
X224007804Y-113258722D01*
X224007807Y-113258723D01*
X224208435Y-113290500D01*
X224208436Y-113290500D01*
X224411564Y-113290500D01*
X224411565Y-113290500D01*
X224612193Y-113258723D01*
X224612196Y-113258722D01*
X224612197Y-113258722D01*
X224805377Y-113195954D01*
X224805377Y-113195953D01*
X224805380Y-113195953D01*
X224986369Y-113103734D01*
X225150704Y-112984338D01*
X225294338Y-112840704D01*
X225413734Y-112676369D01*
X225505953Y-112495380D01*
X225515420Y-112466243D01*
X225568722Y-112302197D01*
X225568722Y-112302196D01*
X225568723Y-112302193D01*
X225600500Y-112101565D01*
X225600500Y-111898435D01*
X225583600Y-111791735D01*
X230339100Y-111791735D01*
X230339100Y-113208270D01*
X230339101Y-113208276D01*
X230345508Y-113267883D01*
X230395802Y-113402728D01*
X230395806Y-113402735D01*
X230482052Y-113517944D01*
X230482055Y-113517947D01*
X230597264Y-113604193D01*
X230597271Y-113604197D01*
X230732117Y-113654491D01*
X230732116Y-113654491D01*
X230739044Y-113655235D01*
X230791727Y-113660900D01*
X232208272Y-113660899D01*
X232267883Y-113654491D01*
X232402731Y-113604196D01*
X232517946Y-113517946D01*
X232604196Y-113402731D01*
X232654491Y-113267883D01*
X232660900Y-113208273D01*
X232660899Y-111791728D01*
X232654491Y-111732117D01*
X232643254Y-111701990D01*
X232604197Y-111597271D01*
X232604193Y-111597264D01*
X232517947Y-111482056D01*
X232517948Y-111482056D01*
X232517946Y-111482054D01*
X232420250Y-111408918D01*
X232378380Y-111352986D01*
X232373396Y-111283294D01*
X232394244Y-111236767D01*
X232492462Y-111101582D01*
X232575383Y-110938843D01*
X232631827Y-110765128D01*
X232660400Y-110584730D01*
X232660400Y-110402069D01*
X232631827Y-110221671D01*
X232575383Y-110047956D01*
X232492462Y-109885217D01*
X232479531Y-109867420D01*
X232479531Y-109867419D01*
X231906400Y-110440551D01*
X231906400Y-110439896D01*
X231878705Y-110336535D01*
X231825201Y-110243864D01*
X231749536Y-110168199D01*
X231656865Y-110114695D01*
X231553504Y-110087000D01*
X231552847Y-110087000D01*
X232125978Y-109513867D01*
X232108178Y-109500935D01*
X231945443Y-109418016D01*
X231771728Y-109361572D01*
X231591330Y-109333000D01*
X231408670Y-109333000D01*
X231228271Y-109361572D01*
X231054556Y-109418016D01*
X230891813Y-109500939D01*
X230891808Y-109500943D01*
X230874020Y-109513865D01*
X230874020Y-109513868D01*
X231447154Y-110087000D01*
X231446496Y-110087000D01*
X231343135Y-110114695D01*
X231250464Y-110168199D01*
X231174799Y-110243864D01*
X231121295Y-110336535D01*
X231093600Y-110439896D01*
X231093600Y-110440552D01*
X230520468Y-109867420D01*
X230520465Y-109867420D01*
X230507543Y-109885208D01*
X230507539Y-109885213D01*
X230424616Y-110047956D01*
X230368172Y-110221671D01*
X230339600Y-110402069D01*
X230339600Y-110584730D01*
X230368172Y-110765128D01*
X230424616Y-110938843D01*
X230507537Y-111101582D01*
X230605755Y-111236767D01*
X230629235Y-111302574D01*
X230613410Y-111370628D01*
X230579749Y-111408919D01*
X230482052Y-111482055D01*
X230395806Y-111597264D01*
X230395802Y-111597271D01*
X230345508Y-111732117D01*
X230339101Y-111791716D01*
X230339101Y-111791723D01*
X230339100Y-111791735D01*
X225583600Y-111791735D01*
X225568723Y-111697807D01*
X225568722Y-111697803D01*
X225568722Y-111697802D01*
X225505954Y-111504622D01*
X225494455Y-111482054D01*
X225413734Y-111323631D01*
X225296401Y-111162135D01*
X225294343Y-111159302D01*
X225294339Y-111159297D01*
X225150702Y-111015660D01*
X225150697Y-111015656D01*
X224986372Y-110896268D01*
X224986371Y-110896267D01*
X224986369Y-110896266D01*
X224895874Y-110850156D01*
X224805377Y-110804045D01*
X224612196Y-110741277D01*
X224452023Y-110715908D01*
X224411565Y-110709500D01*
X224208435Y-110709500D01*
X224167971Y-110715909D01*
X224007805Y-110741277D01*
X224007802Y-110741277D01*
X223814622Y-110804045D01*
X223633627Y-110896268D01*
X223469302Y-111015656D01*
X223469297Y-111015660D01*
X223325660Y-111159297D01*
X223325656Y-111159302D01*
X223206268Y-111323627D01*
X223114045Y-111504622D01*
X223051277Y-111697802D01*
X223051277Y-111697805D01*
X223019500Y-111898435D01*
X217980499Y-111898435D01*
X217980499Y-111162128D01*
X217974091Y-111102517D01*
X217973742Y-111101582D01*
X217923797Y-110967671D01*
X217923793Y-110967664D01*
X217837547Y-110852455D01*
X217837544Y-110852452D01*
X217722335Y-110766206D01*
X217722328Y-110766202D01*
X217587482Y-110715908D01*
X217587483Y-110715908D01*
X217527883Y-110709501D01*
X217527881Y-110709500D01*
X217527873Y-110709500D01*
X217527864Y-110709500D01*
X215852129Y-110709500D01*
X215852123Y-110709501D01*
X215792516Y-110715908D01*
X215657671Y-110766202D01*
X215657664Y-110766206D01*
X215542455Y-110852452D01*
X215542452Y-110852455D01*
X215456206Y-110967664D01*
X215456202Y-110967671D01*
X215405908Y-111102517D01*
X215401644Y-111142184D01*
X215399501Y-111162123D01*
X215399500Y-111162135D01*
X211665217Y-111162135D01*
X211655051Y-111142184D01*
X211647023Y-111131134D01*
X211530109Y-110970213D01*
X211379786Y-110819890D01*
X211207820Y-110694951D01*
X211018414Y-110598444D01*
X211018413Y-110598443D01*
X211018412Y-110598443D01*
X210816243Y-110532754D01*
X210816241Y-110532753D01*
X210816240Y-110532753D01*
X210654957Y-110507208D01*
X210606287Y-110499500D01*
X210393713Y-110499500D01*
X210345042Y-110507208D01*
X210183760Y-110532753D01*
X209981585Y-110598444D01*
X209792179Y-110694951D01*
X209620215Y-110819889D01*
X209481035Y-110959069D01*
X209419712Y-110992553D01*
X209350020Y-110987569D01*
X209294087Y-110945697D01*
X209287815Y-110936484D01*
X209192315Y-110781654D01*
X209068345Y-110657684D01*
X208919124Y-110565643D01*
X208919119Y-110565641D01*
X208752697Y-110510494D01*
X208752690Y-110510493D01*
X208649986Y-110500000D01*
X208250000Y-110500000D01*
X208250000Y-111566988D01*
X208192993Y-111534075D01*
X208065826Y-111500000D01*
X207934174Y-111500000D01*
X207807007Y-111534075D01*
X207750000Y-111566988D01*
X207750000Y-110500000D01*
X207350028Y-110500000D01*
X207350012Y-110500001D01*
X207247302Y-110510494D01*
X207080880Y-110565641D01*
X207080875Y-110565643D01*
X206931654Y-110657684D01*
X206807684Y-110781654D01*
X206715643Y-110930875D01*
X206715641Y-110930880D01*
X206660494Y-111097302D01*
X206660493Y-111097309D01*
X206650000Y-111200013D01*
X202492601Y-111200013D01*
X204841518Y-108851096D01*
X240450000Y-108851096D01*
X240452897Y-108893824D01*
X240498831Y-109078523D01*
X240583390Y-109249022D01*
X240583392Y-109249025D01*
X240702632Y-109397366D01*
X240702633Y-109397367D01*
X240850974Y-109516607D01*
X240850977Y-109516609D01*
X241021476Y-109601168D01*
X241206175Y-109647102D01*
X241248903Y-109650000D01*
X241450000Y-109650000D01*
X241450000Y-108400000D01*
X240450000Y-108400000D01*
X240450000Y-108851096D01*
X204841518Y-108851096D01*
X207836094Y-105856521D01*
X207836099Y-105856517D01*
X207846302Y-105846313D01*
X207846304Y-105846313D01*
X207951313Y-105741304D01*
X208025565Y-105612696D01*
X208050953Y-105517946D01*
X208064001Y-105469252D01*
X208064001Y-105320747D01*
X208064000Y-105320743D01*
X208064000Y-66925748D01*
X208054555Y-66890500D01*
X208025565Y-66782304D01*
X207951313Y-66653696D01*
X207846304Y-66548687D01*
X207846303Y-66548686D01*
X207841973Y-66544356D01*
X207841962Y-66544346D01*
X206118383Y-64820767D01*
X206111811Y-64814195D01*
X206104496Y-64800797D01*
X206102890Y-64801869D01*
X206102888Y-64801866D01*
X206104495Y-64800794D01*
X206093029Y-64779793D01*
X206078333Y-64752878D01*
X206078332Y-64752871D01*
X206078331Y-64752869D01*
X206078331Y-64752863D01*
X206075499Y-64726520D01*
X206075499Y-64262129D01*
X206075498Y-64262123D01*
X206075497Y-64262116D01*
X206069091Y-64202517D01*
X206060257Y-64178833D01*
X206018797Y-64067671D01*
X206018793Y-64067664D01*
X205932547Y-63952455D01*
X205932544Y-63952452D01*
X205817335Y-63866206D01*
X205817328Y-63866202D01*
X205682482Y-63815908D01*
X205682483Y-63815908D01*
X205622883Y-63809501D01*
X205622881Y-63809500D01*
X205622873Y-63809500D01*
X205622864Y-63809500D01*
X203827129Y-63809500D01*
X203827123Y-63809501D01*
X203767516Y-63815908D01*
X203632671Y-63866202D01*
X203632664Y-63866206D01*
X203517455Y-63952452D01*
X203517452Y-63952455D01*
X203431206Y-64067664D01*
X203431202Y-64067671D01*
X203380908Y-64202517D01*
X203374501Y-64262116D01*
X203374501Y-64262123D01*
X203374500Y-64262135D01*
X203374500Y-64472936D01*
X203354815Y-64539975D01*
X203302011Y-64585730D01*
X203273597Y-64593891D01*
X203273599Y-64593896D01*
X203273348Y-64593963D01*
X203266696Y-64595874D01*
X203265753Y-64595998D01*
X203265749Y-64595999D01*
X203265748Y-64595999D01*
X203177079Y-64619758D01*
X203122300Y-64634436D01*
X202993699Y-64708684D01*
X202993693Y-64708689D01*
X200548689Y-67153693D01*
X200548685Y-67153699D01*
X200474434Y-67282305D01*
X200474433Y-67282306D01*
X200440370Y-67409440D01*
X200440369Y-67409445D01*
X200436000Y-67425748D01*
X200436000Y-76675021D01*
X200416315Y-76742060D01*
X200399681Y-76762702D01*
X198562181Y-78600202D01*
X198500858Y-78633687D01*
X198431166Y-78628703D01*
X198375233Y-78586831D01*
X198350816Y-78521367D01*
X198350500Y-78512521D01*
X198350500Y-78313713D01*
X198341975Y-78259888D01*
X198317246Y-78103757D01*
X198251557Y-77901588D01*
X198155051Y-77712184D01*
X198155049Y-77712181D01*
X198155048Y-77712179D01*
X198030109Y-77540213D01*
X197879786Y-77389890D01*
X197707820Y-77264951D01*
X197707115Y-77264591D01*
X197699054Y-77260485D01*
X197648259Y-77212512D01*
X197631463Y-77144692D01*
X197653999Y-77078556D01*
X197699054Y-77039515D01*
X197707816Y-77035051D01*
X197783295Y-76980213D01*
X197879786Y-76910109D01*
X197879788Y-76910106D01*
X197879792Y-76910104D01*
X198030104Y-76759792D01*
X198030106Y-76759788D01*
X198030109Y-76759786D01*
X198155048Y-76587820D01*
X198155047Y-76587820D01*
X198155051Y-76587816D01*
X198251557Y-76398412D01*
X198317246Y-76196243D01*
X198350500Y-75986287D01*
X198350500Y-75773713D01*
X198317246Y-75563757D01*
X198251557Y-75361588D01*
X198155051Y-75172184D01*
X198155049Y-75172181D01*
X198155048Y-75172179D01*
X198030109Y-75000213D01*
X197879786Y-74849890D01*
X197707820Y-74724951D01*
X197707115Y-74724591D01*
X197699054Y-74720485D01*
X197648259Y-74672512D01*
X197631463Y-74604692D01*
X197653999Y-74538556D01*
X197699054Y-74499515D01*
X197707816Y-74495051D01*
X197729789Y-74479086D01*
X197879786Y-74370109D01*
X197879788Y-74370106D01*
X197879792Y-74370104D01*
X198030104Y-74219792D01*
X198030106Y-74219788D01*
X198030109Y-74219786D01*
X198155048Y-74047820D01*
X198155047Y-74047820D01*
X198155051Y-74047816D01*
X198251557Y-73858412D01*
X198317246Y-73656243D01*
X198350500Y-73446287D01*
X198350500Y-73233713D01*
X198317246Y-73023757D01*
X198251557Y-72821588D01*
X198155051Y-72632184D01*
X198155049Y-72632181D01*
X198155048Y-72632179D01*
X198030109Y-72460213D01*
X197879786Y-72309890D01*
X197707820Y-72184951D01*
X197518414Y-72088444D01*
X197518413Y-72088443D01*
X197518412Y-72088443D01*
X197316243Y-72022754D01*
X197316241Y-72022753D01*
X197316240Y-72022753D01*
X197154957Y-71997208D01*
X197106287Y-71989500D01*
X196893713Y-71989500D01*
X196845042Y-71997208D01*
X196683760Y-72022753D01*
X196481585Y-72088444D01*
X196292179Y-72184951D01*
X196120213Y-72309890D01*
X195969890Y-72460213D01*
X195844951Y-72632179D01*
X195748444Y-72821585D01*
X195682753Y-73023760D01*
X195649500Y-73233713D01*
X188500500Y-73233713D01*
X188500500Y-57893713D01*
X189149500Y-57893713D01*
X189149500Y-58106286D01*
X189170082Y-58236239D01*
X189182754Y-58316243D01*
X189229635Y-58460528D01*
X189248444Y-58518414D01*
X189344951Y-58707820D01*
X189469890Y-58879786D01*
X189620213Y-59030109D01*
X189792179Y-59155048D01*
X189792181Y-59155049D01*
X189792184Y-59155051D01*
X189981588Y-59251557D01*
X190183757Y-59317246D01*
X190393713Y-59350500D01*
X190393714Y-59350500D01*
X190606286Y-59350500D01*
X190606287Y-59350500D01*
X190816243Y-59317246D01*
X191018412Y-59251557D01*
X191207816Y-59155051D01*
X191245749Y-59127491D01*
X191379786Y-59030109D01*
X191379788Y-59030106D01*
X191379792Y-59030104D01*
X191530104Y-58879792D01*
X191530106Y-58879788D01*
X191530109Y-58879786D01*
X191655048Y-58707820D01*
X191655047Y-58707820D01*
X191655051Y-58707816D01*
X191751557Y-58518412D01*
X191817246Y-58316243D01*
X191850500Y-58106287D01*
X191850500Y-57893713D01*
X191837829Y-57813713D01*
X195649500Y-57813713D01*
X195649500Y-58026286D01*
X195678251Y-58207816D01*
X195682754Y-58236243D01*
X195729394Y-58379786D01*
X195748444Y-58438414D01*
X195844951Y-58627820D01*
X195969890Y-58799786D01*
X196120213Y-58950109D01*
X196292182Y-59075050D01*
X196300946Y-59079516D01*
X196351742Y-59127491D01*
X196368536Y-59195312D01*
X196345998Y-59261447D01*
X196300946Y-59300484D01*
X196292182Y-59304949D01*
X196120213Y-59429890D01*
X195969890Y-59580213D01*
X195844951Y-59752179D01*
X195748444Y-59941585D01*
X195682753Y-60143760D01*
X195649500Y-60353713D01*
X195649500Y-60566286D01*
X195682753Y-60776239D01*
X195748444Y-60978414D01*
X195844951Y-61167820D01*
X195969890Y-61339786D01*
X196120213Y-61490109D01*
X196292182Y-61615050D01*
X196300946Y-61619516D01*
X196351742Y-61667491D01*
X196368536Y-61735312D01*
X196345998Y-61801447D01*
X196300946Y-61840484D01*
X196292182Y-61844949D01*
X196120213Y-61969890D01*
X195969890Y-62120213D01*
X195844951Y-62292179D01*
X195748444Y-62481585D01*
X195682753Y-62683760D01*
X195661473Y-62818118D01*
X195649500Y-62893713D01*
X195649500Y-63106287D01*
X195654855Y-63140097D01*
X195679547Y-63296000D01*
X195682754Y-63316243D01*
X195747350Y-63515049D01*
X195748444Y-63518414D01*
X195844951Y-63707820D01*
X195969890Y-63879786D01*
X196120213Y-64030109D01*
X196292182Y-64155050D01*
X196300946Y-64159516D01*
X196351742Y-64207491D01*
X196368536Y-64275312D01*
X196345998Y-64341447D01*
X196300946Y-64380484D01*
X196292182Y-64384949D01*
X196120213Y-64509890D01*
X195969890Y-64660213D01*
X195844951Y-64832179D01*
X195748444Y-65021585D01*
X195682753Y-65223760D01*
X195649500Y-65433713D01*
X195649500Y-65646286D01*
X195682753Y-65856239D01*
X195748444Y-66058414D01*
X195844951Y-66247820D01*
X195969890Y-66419786D01*
X196083430Y-66533326D01*
X196116915Y-66594649D01*
X196111931Y-66664341D01*
X196070059Y-66720274D01*
X196039083Y-66737189D01*
X195907669Y-66786203D01*
X195907664Y-66786206D01*
X195792455Y-66872452D01*
X195792452Y-66872455D01*
X195706206Y-66987664D01*
X195706202Y-66987671D01*
X195655908Y-67122517D01*
X195652556Y-67153699D01*
X195649501Y-67182123D01*
X195649500Y-67182135D01*
X195649500Y-68977870D01*
X195649501Y-68977876D01*
X195655908Y-69037483D01*
X195706202Y-69172328D01*
X195706206Y-69172335D01*
X195792452Y-69287544D01*
X195792455Y-69287547D01*
X195907664Y-69373793D01*
X195907671Y-69373797D01*
X196042517Y-69424091D01*
X196042516Y-69424091D01*
X196049444Y-69424835D01*
X196102127Y-69430500D01*
X197897872Y-69430499D01*
X197957483Y-69424091D01*
X198092331Y-69373796D01*
X198207546Y-69287546D01*
X198293796Y-69172331D01*
X198344091Y-69037483D01*
X198350500Y-68977873D01*
X198350499Y-67182128D01*
X198344091Y-67122517D01*
X198332144Y-67090486D01*
X198293797Y-66987671D01*
X198293793Y-66987664D01*
X198207547Y-66872455D01*
X198207544Y-66872452D01*
X198092335Y-66786206D01*
X198092328Y-66786202D01*
X197960917Y-66737189D01*
X197904983Y-66695318D01*
X197880566Y-66629853D01*
X197895418Y-66561580D01*
X197916563Y-66533332D01*
X198030104Y-66419792D01*
X198155051Y-66247816D01*
X198251557Y-66058412D01*
X198317246Y-65856243D01*
X198350500Y-65646287D01*
X198350500Y-65433713D01*
X198317246Y-65223757D01*
X198251557Y-65021588D01*
X198155051Y-64832184D01*
X198155049Y-64832181D01*
X198155048Y-64832179D01*
X198030109Y-64660213D01*
X197879786Y-64509890D01*
X197707820Y-64384951D01*
X197707115Y-64384591D01*
X197699054Y-64380485D01*
X197648259Y-64332512D01*
X197631463Y-64264692D01*
X197653999Y-64198556D01*
X197699054Y-64159515D01*
X197707816Y-64155051D01*
X197748115Y-64125772D01*
X197879786Y-64030109D01*
X197879788Y-64030106D01*
X197879792Y-64030104D01*
X198030104Y-63879792D01*
X198030106Y-63879788D01*
X198030109Y-63879786D01*
X198155048Y-63707820D01*
X198155047Y-63707820D01*
X198155051Y-63707816D01*
X198251557Y-63518412D01*
X198317246Y-63316243D01*
X198350500Y-63106287D01*
X198350500Y-62893713D01*
X198317246Y-62683757D01*
X198251557Y-62481588D01*
X198155051Y-62292184D01*
X198092199Y-62205675D01*
X198092198Y-62205672D01*
X198030109Y-62120214D01*
X198030105Y-62120209D01*
X197879786Y-61969890D01*
X197707820Y-61844951D01*
X197707115Y-61844591D01*
X197699054Y-61840485D01*
X197648259Y-61792512D01*
X197631463Y-61724692D01*
X197653999Y-61658556D01*
X197699054Y-61619515D01*
X197707816Y-61615051D01*
X197729789Y-61599086D01*
X197879786Y-61490109D01*
X197879788Y-61490106D01*
X197879792Y-61490104D01*
X198030104Y-61339792D01*
X198030106Y-61339788D01*
X198030109Y-61339786D01*
X198155048Y-61167820D01*
X198155047Y-61167820D01*
X198155051Y-61167816D01*
X198251557Y-60978412D01*
X198317246Y-60776243D01*
X198350500Y-60566287D01*
X198350500Y-60353713D01*
X198317246Y-60143757D01*
X198251557Y-59941588D01*
X198155051Y-59752184D01*
X198155049Y-59752181D01*
X198155048Y-59752179D01*
X198030109Y-59580213D01*
X197879786Y-59429890D01*
X197707820Y-59304951D01*
X197707115Y-59304591D01*
X197699054Y-59300485D01*
X197648259Y-59252512D01*
X197631463Y-59184692D01*
X197653999Y-59118556D01*
X197699054Y-59079515D01*
X197707816Y-59075051D01*
X197769681Y-59030104D01*
X197879786Y-58950109D01*
X197879788Y-58950106D01*
X197879792Y-58950104D01*
X198030104Y-58799792D01*
X198030106Y-58799788D01*
X198030109Y-58799786D01*
X198155048Y-58627820D01*
X198155047Y-58627820D01*
X198155051Y-58627816D01*
X198251557Y-58438412D01*
X198317246Y-58236243D01*
X198350500Y-58026287D01*
X198350500Y-57813713D01*
X198317246Y-57603757D01*
X198251557Y-57401588D01*
X198155051Y-57212184D01*
X198155049Y-57212181D01*
X198155048Y-57212179D01*
X198030109Y-57040213D01*
X197879786Y-56889890D01*
X197707820Y-56764951D01*
X197518414Y-56668444D01*
X197518413Y-56668443D01*
X197518412Y-56668443D01*
X197316243Y-56602754D01*
X197316241Y-56602753D01*
X197316240Y-56602753D01*
X197154957Y-56577208D01*
X197106287Y-56569500D01*
X196893713Y-56569500D01*
X196845042Y-56577208D01*
X196683760Y-56602753D01*
X196481585Y-56668444D01*
X196292179Y-56764951D01*
X196120213Y-56889890D01*
X195969890Y-57040213D01*
X195844951Y-57212179D01*
X195748444Y-57401585D01*
X195682753Y-57603760D01*
X195649500Y-57813713D01*
X191837829Y-57813713D01*
X191817246Y-57683757D01*
X191751557Y-57481588D01*
X191655051Y-57292184D01*
X191655049Y-57292181D01*
X191655048Y-57292179D01*
X191530109Y-57120213D01*
X191379786Y-56969890D01*
X191207820Y-56844951D01*
X191018414Y-56748444D01*
X191018413Y-56748443D01*
X191018412Y-56748443D01*
X190816243Y-56682754D01*
X190816241Y-56682753D01*
X190816240Y-56682753D01*
X190654957Y-56657208D01*
X190606287Y-56649500D01*
X190393713Y-56649500D01*
X190345042Y-56657208D01*
X190183760Y-56682753D01*
X189981585Y-56748444D01*
X189792179Y-56844951D01*
X189620213Y-56969890D01*
X189469890Y-57120213D01*
X189344951Y-57292179D01*
X189248444Y-57481585D01*
X189248443Y-57481587D01*
X189248443Y-57481588D01*
X189223953Y-57556961D01*
X189182753Y-57683760D01*
X189149500Y-57893713D01*
X188500500Y-57893713D01*
X188500500Y-56124500D01*
X188520185Y-56057461D01*
X188572989Y-56011706D01*
X188624500Y-56000500D01*
X235921774Y-56000500D01*
X235988813Y-56020185D01*
G37*
%TD.AperFunction*%
%TA.AperFunction,Conductor*%
G36*
X244578165Y-88478233D02*
G01*
X244605803Y-88480210D01*
X244611979Y-88484833D01*
X244619549Y-88486311D01*
X244639556Y-88505478D01*
X244661736Y-88522082D01*
X244665702Y-88530525D01*
X244670002Y-88534645D01*
X244680783Y-88561761D01*
X244681249Y-88561610D01*
X244682753Y-88566240D01*
X244682754Y-88566243D01*
X244742431Y-88749908D01*
X244748444Y-88768414D01*
X244844951Y-88957820D01*
X244969890Y-89129786D01*
X245120213Y-89280109D01*
X245292179Y-89405048D01*
X245292181Y-89405049D01*
X245292184Y-89405051D01*
X245481588Y-89501557D01*
X245683757Y-89567246D01*
X245893713Y-89600500D01*
X245893714Y-89600500D01*
X246106286Y-89600500D01*
X246106287Y-89600500D01*
X246316243Y-89567246D01*
X246518412Y-89501557D01*
X246707816Y-89405051D01*
X246767832Y-89361447D01*
X246879786Y-89280109D01*
X246879788Y-89280106D01*
X246879792Y-89280104D01*
X247030104Y-89129792D01*
X247030106Y-89129788D01*
X247030109Y-89129786D01*
X247155048Y-88957820D01*
X247155047Y-88957820D01*
X247155051Y-88957816D01*
X247251557Y-88768412D01*
X247257569Y-88749907D01*
X247297006Y-88692232D01*
X247361365Y-88665034D01*
X247430211Y-88676949D01*
X247481687Y-88724193D01*
X247499500Y-88788226D01*
X247499500Y-91980730D01*
X247479815Y-92047769D01*
X247427011Y-92093524D01*
X247357853Y-92103468D01*
X247294297Y-92074443D01*
X247276234Y-92055042D01*
X247207187Y-91962809D01*
X247092093Y-91876649D01*
X247092086Y-91876645D01*
X246957379Y-91826403D01*
X246957372Y-91826401D01*
X246897844Y-91820000D01*
X246250000Y-91820000D01*
X246250000Y-92736988D01*
X246192993Y-92704075D01*
X246065826Y-92670000D01*
X245934174Y-92670000D01*
X245807007Y-92704075D01*
X245750000Y-92736988D01*
X245750000Y-91820000D01*
X245102155Y-91820000D01*
X245042627Y-91826401D01*
X245042620Y-91826403D01*
X244907913Y-91876645D01*
X244907906Y-91876649D01*
X244792812Y-91962809D01*
X244792809Y-91962812D01*
X244706649Y-92077906D01*
X244706645Y-92077913D01*
X244656403Y-92212620D01*
X244656401Y-92212627D01*
X244650000Y-92272155D01*
X244650000Y-92920000D01*
X245566988Y-92920000D01*
X245534075Y-92977007D01*
X245500000Y-93104174D01*
X245500000Y-93235826D01*
X245534075Y-93362993D01*
X245566988Y-93420000D01*
X244650000Y-93420000D01*
X244650000Y-94067844D01*
X244656401Y-94127372D01*
X244656403Y-94127379D01*
X244706645Y-94262086D01*
X244706649Y-94262093D01*
X244792809Y-94377187D01*
X244792812Y-94377190D01*
X244907906Y-94463350D01*
X244907913Y-94463354D01*
X245039470Y-94512422D01*
X245095404Y-94554293D01*
X245119821Y-94619758D01*
X245104969Y-94688031D01*
X245083819Y-94716285D01*
X244969889Y-94830215D01*
X244844951Y-95002179D01*
X244748444Y-95191585D01*
X244682753Y-95393760D01*
X244649500Y-95603713D01*
X244649500Y-95735637D01*
X244629815Y-95802676D01*
X244613181Y-95823318D01*
X243300540Y-97135958D01*
X243300537Y-97135961D01*
X243269275Y-97182750D01*
X243201985Y-97283455D01*
X243168046Y-97365393D01*
X243134106Y-97447329D01*
X243134103Y-97447341D01*
X243101308Y-97612211D01*
X243101309Y-97612212D01*
X243099500Y-97621307D01*
X243099500Y-99376638D01*
X243079815Y-99443677D01*
X243027011Y-99489432D01*
X242957853Y-99499376D01*
X242894297Y-99470351D01*
X242887819Y-99464319D01*
X242436819Y-99013319D01*
X242403334Y-98951996D01*
X242400500Y-98925638D01*
X242400500Y-90634362D01*
X242420185Y-90567323D01*
X242436819Y-90546681D01*
X243453610Y-89529890D01*
X244474790Y-88508709D01*
X244481557Y-88505014D01*
X244486047Y-88498741D01*
X244511796Y-88488503D01*
X244536111Y-88475226D01*
X244543804Y-88475776D01*
X244550973Y-88472926D01*
X244578165Y-88478233D01*
G37*
%TD.AperFunction*%
%TA.AperFunction,Conductor*%
G36*
X244605803Y-78480210D02*
G01*
X244661736Y-78522082D01*
X244680427Y-78561876D01*
X244681249Y-78561610D01*
X244682753Y-78566240D01*
X244682754Y-78566243D01*
X244737991Y-78736243D01*
X244748444Y-78768414D01*
X244844951Y-78957820D01*
X244969890Y-79129786D01*
X245120213Y-79280109D01*
X245292179Y-79405048D01*
X245292181Y-79405049D01*
X245292184Y-79405051D01*
X245481588Y-79501557D01*
X245683757Y-79567246D01*
X245893713Y-79600500D01*
X245893714Y-79600500D01*
X246106286Y-79600500D01*
X246106287Y-79600500D01*
X246316243Y-79567246D01*
X246518412Y-79501557D01*
X246707816Y-79405051D01*
X246852694Y-79299792D01*
X246879786Y-79280109D01*
X246879788Y-79280106D01*
X246879792Y-79280104D01*
X247030104Y-79129792D01*
X247030106Y-79129788D01*
X247030109Y-79129786D01*
X247155048Y-78957820D01*
X247155047Y-78957820D01*
X247155051Y-78957816D01*
X247251557Y-78768412D01*
X247257569Y-78749907D01*
X247297006Y-78692232D01*
X247361365Y-78665034D01*
X247430211Y-78676949D01*
X247481687Y-78724193D01*
X247499500Y-78788226D01*
X247499500Y-81980730D01*
X247479815Y-82047769D01*
X247427011Y-82093524D01*
X247357853Y-82103468D01*
X247294297Y-82074443D01*
X247276234Y-82055042D01*
X247207187Y-81962809D01*
X247092093Y-81876649D01*
X247092086Y-81876645D01*
X246957379Y-81826403D01*
X246957372Y-81826401D01*
X246897844Y-81820000D01*
X246250000Y-81820000D01*
X246250000Y-82736988D01*
X246192993Y-82704075D01*
X246065826Y-82670000D01*
X245934174Y-82670000D01*
X245807007Y-82704075D01*
X245750000Y-82736988D01*
X245750000Y-81820000D01*
X245102155Y-81820000D01*
X245042627Y-81826401D01*
X245042620Y-81826403D01*
X244907913Y-81876645D01*
X244907906Y-81876649D01*
X244792812Y-81962809D01*
X244792809Y-81962812D01*
X244706649Y-82077906D01*
X244706645Y-82077913D01*
X244656403Y-82212620D01*
X244656401Y-82212627D01*
X244650000Y-82272155D01*
X244650000Y-82920000D01*
X245566988Y-82920000D01*
X245534075Y-82977007D01*
X245500000Y-83104174D01*
X245500000Y-83235826D01*
X245534075Y-83362993D01*
X245566988Y-83420000D01*
X244650000Y-83420000D01*
X244650000Y-84067844D01*
X244656401Y-84127372D01*
X244656403Y-84127379D01*
X244706645Y-84262086D01*
X244706649Y-84262093D01*
X244792809Y-84377187D01*
X244792812Y-84377190D01*
X244907906Y-84463350D01*
X244907913Y-84463354D01*
X245039470Y-84512422D01*
X245095404Y-84554293D01*
X245119821Y-84619758D01*
X245104969Y-84688031D01*
X245083819Y-84716285D01*
X244969889Y-84830215D01*
X244844951Y-85002179D01*
X244748444Y-85191585D01*
X244682753Y-85393760D01*
X244649500Y-85603713D01*
X244649500Y-85735638D01*
X244629815Y-85802677D01*
X244613181Y-85823319D01*
X242612181Y-87824319D01*
X242550858Y-87857804D01*
X242481166Y-87852820D01*
X242425233Y-87810948D01*
X242400816Y-87745484D01*
X242400500Y-87736638D01*
X242400500Y-80634362D01*
X242420185Y-80567323D01*
X242436819Y-80546681D01*
X243416254Y-79567246D01*
X244474790Y-78508709D01*
X244536111Y-78475226D01*
X244605803Y-78480210D01*
G37*
%TD.AperFunction*%
%TA.AperFunction,Conductor*%
G36*
X244605803Y-68480210D02*
G01*
X244661736Y-68522082D01*
X244680427Y-68561876D01*
X244681249Y-68561610D01*
X244682753Y-68566240D01*
X244682754Y-68566243D01*
X244742431Y-68749908D01*
X244748444Y-68768414D01*
X244844951Y-68957820D01*
X244969890Y-69129786D01*
X245120213Y-69280109D01*
X245292179Y-69405048D01*
X245292181Y-69405049D01*
X245292184Y-69405051D01*
X245481588Y-69501557D01*
X245683757Y-69567246D01*
X245893713Y-69600500D01*
X245893714Y-69600500D01*
X246106286Y-69600500D01*
X246106287Y-69600500D01*
X246316243Y-69567246D01*
X246518412Y-69501557D01*
X246707816Y-69405051D01*
X246869548Y-69287547D01*
X246879786Y-69280109D01*
X246879788Y-69280106D01*
X246879792Y-69280104D01*
X247030104Y-69129792D01*
X247030106Y-69129788D01*
X247030109Y-69129786D01*
X247155048Y-68957820D01*
X247155047Y-68957820D01*
X247155051Y-68957816D01*
X247251557Y-68768412D01*
X247257569Y-68749907D01*
X247297006Y-68692232D01*
X247361365Y-68665034D01*
X247430211Y-68676949D01*
X247481687Y-68724193D01*
X247499500Y-68788226D01*
X247499500Y-71980730D01*
X247479815Y-72047769D01*
X247427011Y-72093524D01*
X247357853Y-72103468D01*
X247294297Y-72074443D01*
X247276234Y-72055042D01*
X247207187Y-71962809D01*
X247092093Y-71876649D01*
X247092086Y-71876645D01*
X246957379Y-71826403D01*
X246957372Y-71826401D01*
X246897844Y-71820000D01*
X246250000Y-71820000D01*
X246250000Y-72736988D01*
X246192993Y-72704075D01*
X246065826Y-72670000D01*
X245934174Y-72670000D01*
X245807007Y-72704075D01*
X245750000Y-72736988D01*
X245750000Y-71820000D01*
X245102155Y-71820000D01*
X245042627Y-71826401D01*
X245042620Y-71826403D01*
X244907913Y-71876645D01*
X244907906Y-71876649D01*
X244792812Y-71962809D01*
X244792809Y-71962812D01*
X244706649Y-72077906D01*
X244706645Y-72077913D01*
X244656403Y-72212620D01*
X244656401Y-72212627D01*
X244650000Y-72272155D01*
X244650000Y-72920000D01*
X245566988Y-72920000D01*
X245534075Y-72977007D01*
X245500000Y-73104174D01*
X245500000Y-73235826D01*
X245534075Y-73362993D01*
X245566988Y-73420000D01*
X244650000Y-73420000D01*
X244650000Y-74067844D01*
X244656401Y-74127372D01*
X244656403Y-74127379D01*
X244706645Y-74262086D01*
X244706649Y-74262093D01*
X244792809Y-74377187D01*
X244792812Y-74377190D01*
X244907906Y-74463350D01*
X244907913Y-74463354D01*
X245039470Y-74512422D01*
X245095404Y-74554293D01*
X245119821Y-74619758D01*
X245104969Y-74688031D01*
X245083819Y-74716285D01*
X244969889Y-74830215D01*
X244844951Y-75002179D01*
X244748444Y-75191585D01*
X244682753Y-75393760D01*
X244649500Y-75603713D01*
X244649500Y-75735638D01*
X244629815Y-75802677D01*
X244613181Y-75823319D01*
X242612181Y-77824319D01*
X242550858Y-77857804D01*
X242481166Y-77852820D01*
X242425233Y-77810948D01*
X242400816Y-77745484D01*
X242400500Y-77736638D01*
X242400500Y-70634362D01*
X242420185Y-70567323D01*
X242436819Y-70546681D01*
X243451321Y-69532179D01*
X244474790Y-68508709D01*
X244536111Y-68475226D01*
X244605803Y-68480210D01*
G37*
%TD.AperFunction*%
%TD*%
M02*
