%TF.GenerationSoftware,KiCad,Pcbnew,9.0.0*%
%TF.CreationDate,2025-04-27T01:10:23+09:00*%
%TF.ProjectId,PCB,5043422e-6b69-4636-9164-5f7063625858,rev?*%
%TF.SameCoordinates,Original*%
%TF.FileFunction,Soldermask,Bot*%
%TF.FilePolarity,Negative*%
%FSLAX46Y46*%
G04 Gerber Fmt 4.6, Leading zero omitted, Abs format (unit mm)*
G04 Created by KiCad (PCBNEW 9.0.0) date 2025-04-27 01:10:23*
%MOMM*%
%LPD*%
G01*
G04 APERTURE LIST*
G04 Aperture macros list*
%AMRoundRect*
0 Rectangle with rounded corners*
0 $1 Rounding radius*
0 $2 $3 $4 $5 $6 $7 $8 $9 X,Y pos of 4 corners*
0 Add a 4 corners polygon primitive as box body*
4,1,4,$2,$3,$4,$5,$6,$7,$8,$9,$2,$3,0*
0 Add four circle primitives for the rounded corners*
1,1,$1+$1,$2,$3*
1,1,$1+$1,$4,$5*
1,1,$1+$1,$6,$7*
1,1,$1+$1,$8,$9*
0 Add four rect primitives between the rounded corners*
20,1,$1+$1,$2,$3,$4,$5,0*
20,1,$1+$1,$4,$5,$6,$7,0*
20,1,$1+$1,$6,$7,$8,$9,0*
20,1,$1+$1,$8,$9,$2,$3,0*%
G04 Aperture macros list end*
%ADD10C,1.371600*%
%ADD11R,1.700000X1.700000*%
%ADD12O,1.700000X1.700000*%
%ADD13C,2.200000*%
%ADD14R,1.320800X1.320800*%
%ADD15C,1.320800*%
%ADD16R,1.580000X1.580000*%
%ADD17C,1.580000*%
%ADD18RoundRect,0.250000X-0.600000X-0.750000X0.600000X-0.750000X0.600000X0.750000X-0.600000X0.750000X0*%
%ADD19O,1.700000X2.000000*%
G04 APERTURE END LIST*
D10*
%TO.C,C3*%
X238000000Y-87583250D03*
X238000000Y-84083249D03*
%TD*%
D11*
%TO.C,J7*%
X197000000Y-68080000D03*
D12*
X197000000Y-65540000D03*
X197000000Y-63000000D03*
X197000000Y-60460000D03*
X197000000Y-57920000D03*
%TD*%
D11*
%TO.C,J6*%
X239000000Y-57500000D03*
D12*
X236460000Y-57500000D03*
%TD*%
D11*
%TO.C,J3*%
X246000000Y-83170000D03*
D12*
X246000000Y-85710000D03*
X246000000Y-88250000D03*
%TD*%
D10*
%TO.C,C4*%
X238000000Y-66583250D03*
X238000000Y-63083249D03*
%TD*%
D11*
%TO.C,J5*%
X246000000Y-63170000D03*
D12*
X246000000Y-65710000D03*
X246000000Y-68250000D03*
%TD*%
D13*
%TO.C,REF\u002A\u002A*%
X190500000Y-58000000D03*
%TD*%
%TO.C,REF\u002A\u002A*%
X190500000Y-113000000D03*
%TD*%
D11*
%TO.C,J8*%
X197000000Y-83500000D03*
D12*
X197000000Y-80960000D03*
X197000000Y-78420000D03*
X197000000Y-75880000D03*
X197000000Y-73340000D03*
%TD*%
D10*
%TO.C,C1*%
X238000000Y-98083250D03*
X238000000Y-94583249D03*
%TD*%
D14*
%TO.C,C6*%
X231500000Y-112500000D03*
D15*
X231500000Y-110493400D03*
%TD*%
D13*
%TO.C,REF\u002A\u002A*%
X245500000Y-113000000D03*
%TD*%
%TO.C,REF\u002A\u002A*%
X245500000Y-58000000D03*
%TD*%
D11*
%TO.C,J2*%
X246000000Y-93170000D03*
D12*
X246000000Y-95710000D03*
X246000000Y-98250000D03*
%TD*%
D16*
%TO.C,SW1*%
X216690000Y-112000000D03*
D17*
X224310000Y-112000000D03*
%TD*%
D11*
%TO.C,ESP32-DEVKIT1*%
X204725000Y-65160000D03*
D12*
X204725000Y-67700000D03*
X204725000Y-70240000D03*
X204725000Y-72780000D03*
X204725000Y-75320000D03*
X204725000Y-77860000D03*
X204725000Y-80400000D03*
X204725000Y-82940000D03*
X204725000Y-85480000D03*
X204725000Y-88020000D03*
X204725000Y-90560000D03*
X204725000Y-93100000D03*
X204725000Y-95640000D03*
X204725000Y-98180000D03*
X204725000Y-100720000D03*
D11*
X230125000Y-65160000D03*
D12*
X230125000Y-67700000D03*
X230125000Y-70240000D03*
X230125000Y-72780000D03*
X230125000Y-75320000D03*
X230125000Y-77860000D03*
X230125000Y-80400000D03*
X230125000Y-82940000D03*
X230125000Y-85480000D03*
X230125000Y-88020000D03*
X230125000Y-90560000D03*
X230125000Y-93100000D03*
X230125000Y-95640000D03*
X230125000Y-98180000D03*
X230125000Y-100720000D03*
%TD*%
D10*
%TO.C,C2*%
X237850000Y-77083250D03*
X237850000Y-73583249D03*
%TD*%
D11*
%TO.C,J4*%
X246000000Y-73170000D03*
D12*
X246000000Y-75710000D03*
X246000000Y-78250000D03*
%TD*%
D14*
%TO.C,C7*%
X236000000Y-104500000D03*
D15*
X236000000Y-106989200D03*
%TD*%
D11*
%TO.C,MPU9250*%
X199775000Y-113120000D03*
D12*
X199775000Y-110580000D03*
X199775000Y-108040000D03*
X199775000Y-105500000D03*
X199775000Y-102960000D03*
X199775000Y-100420000D03*
X199775000Y-97880000D03*
X199775000Y-95340000D03*
X199775000Y-92800000D03*
X199775000Y-90260000D03*
%TD*%
D18*
%TO.C,J1*%
X208000000Y-112000000D03*
D19*
X210500000Y-112000000D03*
%TD*%
M02*
